<svg xmlns="http://www.w3.org/2000/svg" xmlns:xlink="http://www.w3.org/1999/xlink" width="500" zoomAndPan="magnify" viewBox="0 0 375 374.999991" height="500" preserveAspectRatio="xMidYMid meet" version="1.0"><defs><g/><clipPath id="0a0a0d8e46"><path d="M 194.046875 32.484375 L 343.296875 32.484375 L 343.296875 182.484375 L 194.046875 182.484375 Z M 194.046875 32.484375 " clip-rule="nonzero"/></clipPath><clipPath id="e1375eae28"><path d="M 65 286 L 323 286 L 323 286.550781 L 65 286.550781 Z M 73.53125 286.550781 L 104.113281 286.550781 L 104.113281 290 L 73.53125 290 Z M 121.847656 286.550781 L 323 286.550781 L 323 290 L 121.847656 290 Z M 121.847656 286.550781 " clip-rule="nonzero"/></clipPath></defs><g clip-path="url(#0a0a0d8e46)"><path fill="#faba6f" d="M 343.269531 107.476562 C 343.269531 108.703125 343.238281 109.929688 343.179688 111.15625 C 343.117188 112.382812 343.027344 113.605469 342.910156 114.828125 C 342.789062 116.046875 342.640625 117.265625 342.460938 118.480469 C 342.28125 119.695312 342.074219 120.902344 341.835938 122.105469 C 341.597656 123.3125 341.328125 124.507812 341.035156 125.699219 C 340.738281 126.890625 340.410156 128.070312 340.058594 129.246094 C 339.703125 130.421875 339.320312 131.585938 338.910156 132.742188 C 338.496094 133.898438 338.058594 135.042969 337.589844 136.175781 C 337.125 137.308594 336.628906 138.429688 336.105469 139.542969 C 335.585938 140.652344 335.035156 141.746094 334.460938 142.828125 C 333.886719 143.910156 333.285156 144.980469 332.65625 146.03125 C 332.027344 147.085938 331.375 148.121094 330.699219 149.140625 C 330.019531 150.164062 329.316406 151.164062 328.589844 152.152344 C 327.863281 153.136719 327.113281 154.105469 326.335938 155.054688 C 325.5625 156 324.765625 156.929688 323.945312 157.839844 C 323.125 158.75 322.285156 159.636719 321.421875 160.507812 C 320.558594 161.375 319.675781 162.21875 318.769531 163.042969 C 317.867188 163.867188 316.941406 164.671875 315.996094 165.449219 C 315.054688 166.226562 314.09375 166.980469 313.113281 167.714844 C 312.132812 168.445312 311.132812 169.152344 310.117188 169.832031 C 309.101562 170.515625 308.074219 171.171875 307.023438 171.800781 C 305.976562 172.433594 304.917969 173.039062 303.839844 173.617188 C 302.761719 174.195312 301.671875 174.746094 300.570312 175.273438 C 299.464844 175.796875 298.351562 176.292969 297.222656 176.761719 C 296.09375 177.234375 294.957031 177.675781 293.808594 178.089844 C 292.65625 178.5 291.5 178.886719 290.332031 179.242188 C 289.164062 179.597656 287.988281 179.925781 286.800781 180.222656 C 285.617188 180.523438 284.425781 180.792969 283.230469 181.03125 C 282.03125 181.269531 280.832031 181.480469 279.621094 181.660156 C 278.414062 181.839844 277.203125 181.992188 275.988281 182.109375 C 274.773438 182.230469 273.558594 182.320312 272.339844 182.382812 C 271.117188 182.441406 269.898438 182.472656 268.679688 182.472656 C 267.457031 182.472656 266.238281 182.441406 265.019531 182.382812 C 263.800781 182.320312 262.582031 182.230469 261.367188 182.109375 C 260.152344 181.992188 258.941406 181.839844 257.734375 181.660156 C 256.527344 181.480469 255.324219 181.269531 254.125 181.03125 C 252.929688 180.792969 251.738281 180.523438 250.554688 180.222656 C 249.371094 179.925781 248.195312 179.597656 247.027344 179.242188 C 245.859375 178.886719 244.699219 178.5 243.550781 178.089844 C 242.398438 177.675781 241.261719 177.234375 240.132812 176.761719 C 239.007812 176.292969 237.890625 175.796875 236.785156 175.273438 C 235.683594 174.746094 234.59375 174.195312 233.515625 173.617188 C 232.441406 173.039062 231.378906 172.433594 230.332031 171.800781 C 229.285156 171.171875 228.253906 170.515625 227.238281 169.832031 C 226.222656 169.152344 225.226562 168.445312 224.246094 167.714844 C 223.265625 166.980469 222.300781 166.226562 221.359375 165.449219 C 220.414062 164.671875 219.492188 163.867188 218.585938 163.042969 C 217.683594 162.21875 216.796875 161.375 215.933594 160.507812 C 215.070312 159.636719 214.230469 158.75 213.410156 157.839844 C 212.589844 156.929688 211.792969 156 211.019531 155.054688 C 210.246094 154.105469 209.492188 153.136719 208.765625 152.152344 C 208.039062 151.164062 207.335938 150.164062 206.660156 149.140625 C 205.980469 148.121094 205.328125 147.085938 204.699219 146.03125 C 204.074219 144.980469 203.472656 143.910156 202.894531 142.828125 C 202.320312 141.746094 201.769531 140.652344 201.25 139.542969 C 200.726562 138.429688 200.234375 137.308594 199.765625 136.175781 C 199.296875 135.042969 198.859375 133.898438 198.449219 132.742188 C 198.035156 131.585938 197.652344 130.421875 197.300781 129.246094 C 196.945312 128.070312 196.621094 126.890625 196.324219 125.699219 C 196.027344 124.507812 195.757812 123.3125 195.519531 122.105469 C 195.28125 120.902344 195.074219 119.695312 194.894531 118.480469 C 194.714844 117.265625 194.566406 116.046875 194.445312 114.828125 C 194.328125 113.605469 194.238281 112.382812 194.175781 111.15625 C 194.117188 109.929688 194.085938 108.703125 194.085938 107.476562 C 194.085938 106.25 194.117188 105.023438 194.175781 103.796875 C 194.238281 102.570312 194.328125 101.347656 194.445312 100.125 C 194.566406 98.902344 194.714844 97.6875 194.894531 96.472656 C 195.074219 95.257812 195.28125 94.050781 195.519531 92.84375 C 195.757812 91.640625 196.027344 90.445312 196.324219 89.253906 C 196.621094 88.0625 196.945312 86.878906 197.300781 85.707031 C 197.652344 84.53125 198.035156 83.367188 198.449219 82.210938 C 198.859375 81.054688 199.296875 79.910156 199.765625 78.777344 C 200.234375 77.644531 200.726562 76.519531 201.25 75.410156 C 201.769531 74.300781 202.320312 73.207031 202.894531 72.125 C 203.472656 71.042969 204.074219 69.972656 204.699219 68.921875 C 205.328125 67.867188 205.980469 66.832031 206.660156 65.8125 C 207.335938 64.789062 208.039062 63.789062 208.765625 62.800781 C 209.492188 61.816406 210.246094 60.847656 211.019531 59.898438 C 211.792969 58.949219 212.589844 58.023438 213.410156 57.113281 C 214.230469 56.203125 215.070312 55.3125 215.933594 54.445312 C 216.796875 53.578125 217.683594 52.730469 218.585938 51.90625 C 219.492188 51.082031 220.414062 50.28125 221.359375 49.503906 C 222.300781 48.726562 223.265625 47.96875 224.246094 47.238281 C 225.226562 46.507812 226.222656 45.800781 227.238281 45.121094 C 228.253906 44.4375 229.285156 43.78125 230.332031 43.148438 C 231.378906 42.519531 232.441406 41.914062 233.515625 41.335938 C 234.59375 40.757812 235.683594 40.207031 236.785156 39.679688 C 237.890625 39.15625 239.007812 38.660156 240.132812 38.1875 C 241.261719 37.71875 242.398438 37.277344 243.550781 36.863281 C 244.699219 36.449219 245.859375 36.066406 247.027344 35.710938 C 248.195312 35.355469 249.371094 35.027344 250.554688 34.726562 C 251.738281 34.429688 252.929688 34.160156 254.125 33.921875 C 255.324219 33.683594 256.527344 33.472656 257.734375 33.292969 C 258.941406 33.113281 260.152344 32.960938 261.367188 32.839844 C 262.582031 32.722656 263.800781 32.632812 265.019531 32.570312 C 266.238281 32.511719 267.457031 32.480469 268.679688 32.480469 C 269.898438 32.480469 271.117188 32.511719 272.339844 32.570312 C 273.558594 32.632812 274.773438 32.722656 275.988281 32.839844 C 277.203125 32.960938 278.414062 33.113281 279.621094 33.292969 C 280.832031 33.472656 282.03125 33.683594 283.230469 33.921875 C 284.425781 34.160156 285.617188 34.429688 286.800781 34.726562 C 287.988281 35.027344 289.164062 35.355469 290.332031 35.710938 C 291.5 36.066406 292.65625 36.449219 293.808594 36.863281 C 294.957031 37.277344 296.09375 37.71875 297.222656 38.1875 C 298.351562 38.660156 299.464844 39.15625 300.570312 39.679688 C 301.671875 40.207031 302.761719 40.757812 303.839844 41.335938 C 304.917969 41.914062 305.976562 42.519531 307.023438 43.148438 C 308.074219 43.78125 309.101562 44.4375 310.117188 45.121094 C 311.132812 45.800781 312.132812 46.507812 313.113281 47.238281 C 314.09375 47.96875 315.054688 48.726562 315.996094 49.503906 C 316.941406 50.28125 317.867188 51.082031 318.769531 51.90625 C 319.675781 52.730469 320.558594 53.578125 321.421875 54.445312 C 322.285156 55.3125 323.125 56.203125 323.945312 57.113281 C 324.765625 58.023438 325.5625 58.949219 326.335938 59.898438 C 327.113281 60.847656 327.863281 61.816406 328.589844 62.800781 C 329.316406 63.789062 330.019531 64.789062 330.699219 65.8125 C 331.375 66.832031 332.027344 67.867188 332.65625 68.921875 C 333.285156 69.972656 333.886719 71.042969 334.460938 72.125 C 335.035156 73.207031 335.585938 74.300781 336.105469 75.410156 C 336.628906 76.519531 337.125 77.644531 337.589844 78.777344 C 338.058594 79.910156 338.496094 81.054688 338.910156 82.210938 C 339.320312 83.367188 339.703125 84.53125 340.058594 85.707031 C 340.410156 86.878906 340.738281 88.0625 341.035156 89.253906 C 341.328125 90.445312 341.597656 91.640625 341.835938 92.84375 C 342.074219 94.050781 342.28125 95.257812 342.460938 96.472656 C 342.640625 97.6875 342.789062 98.902344 342.910156 100.125 C 343.027344 101.347656 343.117188 102.570312 343.179688 103.796875 C 343.238281 105.023438 343.269531 106.25 343.269531 107.476562 Z M 343.269531 107.476562 " fill-opacity="1" fill-rule="nonzero"/></g><path fill="#7b572d" d="M 267.046875 68.515625 C 240.820312 68.515625 219.5625 85.6875 219.5625 106.871094 C 219.5625 114.109375 222.074219 120.875 226.398438 126.648438 L 219.5625 142.796875 L 238.601562 137.535156 C 246.53125 142.34375 256.363281 145.230469 267.046875 145.230469 C 293.269531 145.230469 314.527344 128.054688 314.527344 106.871094 C 314.527344 85.6875 293.269531 68.515625 267.046875 68.515625 Z M 270.375 128.558594 L 263.699219 128.558594 L 263.699219 121.660156 L 270.375 121.660156 Z M 270.375 114.289062 L 270.375 116.574219 L 263.699219 116.574219 L 263.699219 113.761719 C 263.699219 105.285156 272.65625 103.941406 272.65625 97.921875 C 272.65625 95.171875 270.375 93.066406 267.390625 93.066406 C 264.296875 93.066406 261.578125 95.523438 261.578125 95.523438 L 257.78125 90.433594 C 257.78125 90.433594 261.523438 86.222656 267.984375 86.222656 C 274.125 86.222656 279.824219 90.316406 279.824219 97.214844 C 279.824219 106.867188 270.375 107.976562 270.375 114.289062 Z M 270.375 114.289062 " fill-opacity="1" fill-rule="nonzero"/><path fill="#ffffff" d="M 269.898438 68.515625 C 243.675781 68.515625 222.414062 85.6875 222.414062 106.871094 C 222.414062 114.109375 224.929688 120.875 229.253906 126.648438 L 222.414062 142.796875 L 241.453125 137.535156 C 249.386719 142.34375 259.214844 145.230469 269.898438 145.230469 C 296.125 145.230469 317.382812 128.054688 317.382812 106.871094 C 317.382812 85.6875 296.125 68.515625 269.898438 68.515625 Z M 273.230469 128.558594 L 266.550781 128.558594 L 266.550781 121.660156 L 273.230469 121.660156 Z M 273.230469 114.289062 L 273.230469 116.574219 L 266.550781 116.574219 L 266.550781 113.761719 C 266.550781 105.285156 275.507812 103.941406 275.507812 97.921875 C 275.507812 95.171875 273.230469 93.066406 270.242188 93.066406 C 267.148438 93.066406 264.433594 95.523438 264.433594 95.523438 L 260.632812 90.433594 C 260.632812 90.433594 264.378906 86.222656 270.839844 86.222656 C 276.976562 86.222656 282.675781 90.316406 282.675781 97.214844 C 282.679688 106.867188 273.230469 107.976562 273.230469 114.289062 Z M 273.230469 114.289062 " fill-opacity="1" fill-rule="nonzero"/><g fill="#343434" fill-opacity="1"><g transform="translate(123.454681, 240.192757)"><g><path d="M 35.328125 -41.234375 C 35.015625 -38.515625 34.859375 -36.070312 34.859375 -33.90625 C 34.859375 -32.144531 34.925781 -30.742188 35.0625 -29.703125 L 33.5 -29.703125 C 33.1875 -33.410156 32.40625 -36 31.15625 -37.46875 C 29.914062 -38.9375 27.894531 -39.671875 25.09375 -39.671875 L 20.140625 -39.671875 C 18.515625 -39.671875 17.328125 -39.546875 16.578125 -39.296875 C 15.835938 -39.046875 15.328125 -38.535156 15.046875 -37.765625 C 14.773438 -37.003906 14.640625 -35.765625 14.640625 -34.046875 L 14.640625 -21.421875 L 20.28125 -21.421875 C 21.726562 -21.421875 22.832031 -21.796875 23.59375 -22.546875 C 24.363281 -23.296875 24.882812 -24.109375 25.15625 -24.984375 C 25.425781 -25.867188 25.675781 -26.988281 25.90625 -28.34375 L 27.46875 -28.34375 C 27.332031 -26.8125 27.265625 -25.140625 27.265625 -23.328125 L 27.265625 -20.75 C 27.265625 -18.988281 27.398438 -16.457031 27.671875 -13.15625 L 26.109375 -13.15625 C 25.835938 -15.320312 25.316406 -17.015625 24.546875 -18.234375 C 23.773438 -19.460938 22.351562 -20.078125 20.28125 -20.078125 L 14.640625 -20.078125 L 14.640625 -7.1875 C 14.640625 -5.46875 14.820312 -4.222656 15.1875 -3.453125 C 15.550781 -2.691406 16.179688 -2.171875 17.078125 -1.890625 C 17.984375 -1.617188 19.457031 -1.441406 21.5 -1.359375 L 21.5 0 C 19.144531 -0.132812 15.820312 -0.203125 11.53125 -0.203125 C 7.644531 -0.203125 4.75 -0.132812 2.84375 0 L 2.84375 -1.359375 C 4.476562 -1.441406 5.664062 -1.617188 6.40625 -1.890625 C 7.15625 -2.171875 7.664062 -2.691406 7.9375 -3.453125 C 8.207031 -4.222656 8.34375 -5.46875 8.34375 -7.1875 L 8.34375 -34.046875 C 8.34375 -35.765625 8.207031 -37.003906 7.9375 -37.765625 C 7.664062 -38.535156 7.15625 -39.054688 6.40625 -39.328125 C 5.664062 -39.597656 4.476562 -39.78125 2.84375 -39.875 L 2.84375 -41.234375 C 7.144531 -41.097656 13.472656 -41.03125 21.828125 -41.03125 C 28.160156 -41.03125 32.660156 -41.097656 35.328125 -41.234375 Z M 35.328125 -41.234375 "/></g></g></g><g fill="#343434" fill-opacity="1"><g transform="translate(160.815037, 240.192757)"><g><path d="M 37.296875 -5.703125 C 38.515625 -2.890625 40.070312 -1.441406 41.96875 -1.359375 L 41.96875 0 C 40.164062 -0.132812 37.75 -0.203125 34.71875 -0.203125 C 30.832031 -0.203125 27.941406 -0.132812 26.046875 0 L 26.046875 -1.359375 C 27.710938 -1.441406 28.941406 -1.664062 29.734375 -2.03125 C 30.523438 -2.394531 30.921875 -3.003906 30.921875 -3.859375 C 30.921875 -4.585938 30.601562 -5.648438 29.96875 -7.046875 L 26.515625 -14.78125 L 10.03125 -14.78125 L 7.734375 -9.703125 C 6.960938 -7.929688 6.578125 -6.484375 6.578125 -5.359375 C 6.578125 -4.179688 6.992188 -3.265625 7.828125 -2.609375 C 8.671875 -1.953125 10.015625 -1.535156 11.859375 -1.359375 L 11.859375 0 C 10.503906 -0.132812 8.453125 -0.203125 5.703125 -0.203125 C 2.941406 -0.203125 0.972656 -0.132812 -0.203125 0 L -0.203125 -1.359375 C 1.015625 -1.671875 2.050781 -2.359375 2.90625 -3.421875 C 3.769531 -4.484375 4.585938 -5.894531 5.359375 -7.65625 L 20.34375 -41.5625 L 21.421875 -41.5625 Z M 25.96875 -16.140625 L 18.3125 -33.359375 L 10.578125 -16.140625 Z M 25.96875 -16.140625 "/></g></g></g><g fill="#343434" fill-opacity="1"><g transform="translate(202.582685, 240.192757)"><g><path d="M 53.90625 1.96875 C 52.957031 5.539062 51.328125 8.226562 49.015625 10.03125 C 46.710938 11.84375 43.644531 12.75 39.8125 12.75 C 37.414062 12.75 35.003906 12.375 32.578125 11.625 C 30.160156 10.882812 27.078125 9.765625 23.328125 8.265625 C 19.078125 6.597656 16.070312 5.535156 14.3125 5.078125 C 12.363281 5.765625 10.488281 6.109375 8.6875 6.109375 C 6.601562 6.109375 5.5625 5.65625 5.5625 4.75 C 5.5625 3.800781 6.78125 3.328125 9.21875 3.328125 C 10.800781 3.328125 12.5 3.503906 14.3125 3.859375 C 15.757812 3.453125 17.429688 2.820312 19.328125 1.96875 C 20.503906 1.425781 21.382812 1.039062 21.96875 0.8125 C 16.363281 0.3125 11.910156 -1.765625 8.609375 -5.421875 C 5.304688 -9.085938 3.65625 -14.015625 3.65625 -20.203125 C 3.65625 -24.546875 4.546875 -28.378906 6.328125 -31.703125 C 8.117188 -35.023438 10.597656 -37.597656 13.765625 -39.421875 C 16.929688 -41.253906 20.523438 -42.171875 24.546875 -42.171875 C 28.703125 -42.171875 32.351562 -41.347656 35.5 -39.703125 C 38.644531 -38.054688 41.070312 -35.640625 42.78125 -32.453125 C 44.5 -29.265625 45.359375 -25.453125 45.359375 -21.015625 C 45.359375 -16.953125 44.566406 -13.328125 42.984375 -10.140625 C 41.410156 -6.953125 39.21875 -4.394531 36.40625 -2.46875 C 33.601562 -0.550781 30.375 0.5625 26.71875 0.875 C 25.632812 1.007812 24.695312 1.203125 23.90625 1.453125 C 23.113281 1.703125 22.0625 2.097656 20.75 2.640625 C 19.125 3.367188 17.769531 3.890625 16.6875 4.203125 C 22.0625 5.203125 26.035156 5.90625 28.609375 6.3125 C 33.359375 7.070312 37 7.453125 39.53125 7.453125 C 43.101562 7.453125 45.925781 6.976562 48 6.03125 C 50.082031 5.082031 51.710938 3.59375 52.890625 1.5625 Z M 10.4375 -20.484375 C 10.4375 -16.453125 11.066406 -12.898438 12.328125 -9.828125 C 13.597656 -6.753906 15.316406 -4.390625 17.484375 -2.734375 C 19.660156 -1.085938 22.082031 -0.265625 24.75 -0.265625 C 27.507812 -0.265625 29.9375 -1.132812 32.03125 -2.875 C 34.132812 -4.625 35.75 -7.046875 36.875 -10.140625 C 38.007812 -13.234375 38.578125 -16.769531 38.578125 -20.75 C 38.578125 -24.769531 37.941406 -28.316406 36.671875 -31.390625 C 35.410156 -34.472656 33.695312 -36.835938 31.53125 -38.484375 C 29.363281 -40.128906 26.945312 -40.953125 24.28125 -40.953125 C 21.519531 -40.953125 19.085938 -40.082031 16.984375 -38.34375 C 14.878906 -36.601562 13.257812 -34.1875 12.125 -31.09375 C 11 -28 10.4375 -24.460938 10.4375 -20.484375 Z M 10.4375 -20.484375 "/></g></g></g><g clip-path="url(#e1375eae28)"><path fill="#343434" d="M 65.222656 286.925781 L 322.859375 286.925781 L 322.859375 289.175781 L 65.222656 289.175781 Z M 65.222656 286.925781 " fill-opacity="1" fill-rule="nonzero"/></g><g fill="#343434" fill-opacity="1"><g transform="translate(65.224498, 285.427599)"><g><path d="M 5.078125 -14.203125 L 5.078125 2.375 C 5.078125 3.144531 5.304688 3.660156 5.765625 3.921875 C 6.222656 4.179688 6.859375 4.3125 7.671875 4.3125 L 7.671875 4.890625 C 7.273438 4.867188 6.722656 4.84375 6.015625 4.8125 C 5.316406 4.789062 4.570312 4.78125 3.78125 4.78125 C 3.21875 4.78125 2.660156 4.789062 2.109375 4.8125 C 1.566406 4.84375 1.148438 4.867188 0.859375 4.890625 L 0.859375 4.3125 C 1.515625 4.3125 1.972656 4.195312 2.234375 3.96875 C 2.503906 3.738281 2.640625 3.296875 2.640625 2.640625 L 2.640625 -10.96875 C 2.640625 -11.769531 2.492188 -12.363281 2.203125 -12.75 C 1.921875 -13.144531 1.382812 -13.34375 0.59375 -13.34375 L 0.59375 -13.90625 C 1.164062 -13.851562 1.722656 -13.828125 2.265625 -13.828125 C 2.785156 -13.828125 3.285156 -13.859375 3.765625 -13.921875 C 4.242188 -13.984375 4.679688 -14.078125 5.078125 -14.203125 Z M 9.390625 -14.28125 C 10.347656 -14.28125 11.203125 -14.023438 11.953125 -13.515625 C 12.710938 -13.003906 13.3125 -12.253906 13.75 -11.265625 C 14.195312 -10.273438 14.421875 -9.050781 14.421875 -7.59375 C 14.421875 -6.613281 14.300781 -5.648438 14.0625 -4.703125 C 13.832031 -3.765625 13.46875 -2.910156 12.96875 -2.140625 C 12.476562 -1.378906 11.835938 -0.769531 11.046875 -0.3125 C 10.265625 0.144531 9.328125 0.375 8.234375 0.375 C 7.390625 0.375 6.65625 0.175781 6.03125 -0.21875 C 5.414062 -0.613281 5 -1.085938 4.78125 -1.640625 L 5.046875 -2.03125 C 5.296875 -1.519531 5.660156 -1.09375 6.140625 -0.75 C 6.617188 -0.414062 7.21875 -0.25 7.9375 -0.25 C 8.945312 -0.25 9.726562 -0.5625 10.28125 -1.1875 C 10.84375 -1.820312 11.234375 -2.664062 11.453125 -3.71875 C 11.679688 -4.769531 11.796875 -5.929688 11.796875 -7.203125 C 11.796875 -8.648438 11.675781 -9.832031 11.4375 -10.75 C 11.207031 -11.664062 10.859375 -12.347656 10.390625 -12.796875 C 9.921875 -13.242188 9.347656 -13.46875 8.671875 -13.46875 C 7.785156 -13.46875 6.984375 -13.101562 6.265625 -12.375 C 5.546875 -11.644531 5.085938 -10.546875 4.890625 -9.078125 L 4.5625 -9.453125 C 4.757812 -10.984375 5.300781 -12.171875 6.1875 -13.015625 C 7.082031 -13.859375 8.148438 -14.28125 9.390625 -14.28125 Z M 9.390625 -14.28125 "/></g></g></g><g fill="#343434" fill-opacity="1"><g transform="translate(80.904642, 285.427599)"><g><path d="M 9.1875 -14.28125 C 9.664062 -14.28125 10.085938 -14.179688 10.453125 -13.984375 C 10.828125 -13.785156 11.117188 -13.53125 11.328125 -13.21875 C 11.535156 -12.90625 11.640625 -12.550781 11.640625 -12.15625 C 11.640625 -11.695312 11.5 -11.296875 11.21875 -10.953125 C 10.9375 -10.617188 10.5625 -10.453125 10.09375 -10.453125 C 9.71875 -10.453125 9.382812 -10.570312 9.09375 -10.8125 C 8.8125 -11.050781 8.671875 -11.398438 8.671875 -11.859375 C 8.671875 -12.191406 8.765625 -12.476562 8.953125 -12.71875 C 9.140625 -12.96875 9.347656 -13.164062 9.578125 -13.3125 C 9.453125 -13.488281 9.265625 -13.578125 9.015625 -13.578125 C 8.460938 -13.578125 7.953125 -13.410156 7.484375 -13.078125 C 7.015625 -12.742188 6.617188 -12.316406 6.296875 -11.796875 C 5.972656 -11.273438 5.71875 -10.722656 5.53125 -10.140625 C 5.351562 -9.554688 5.265625 -9.007812 5.265625 -8.5 L 5.265625 -2.78125 C 5.265625 -1.894531 5.519531 -1.300781 6.03125 -1 C 6.539062 -0.707031 7.238281 -0.5625 8.125 -0.5625 L 8.125 0 C 7.707031 -0.0195312 7.117188 -0.0390625 6.359375 -0.0625 C 5.609375 -0.09375 4.8125 -0.109375 3.96875 -0.109375 C 3.351562 -0.109375 2.742188 -0.09375 2.140625 -0.0625 C 1.535156 -0.0390625 1.082031 -0.0195312 0.78125 0 L 0.78125 -0.5625 C 1.519531 -0.5625 2.046875 -0.695312 2.359375 -0.96875 C 2.671875 -1.238281 2.828125 -1.753906 2.828125 -2.515625 L 2.828125 -10.96875 C 2.828125 -11.769531 2.679688 -12.363281 2.390625 -12.75 C 2.109375 -13.144531 1.570312 -13.34375 0.78125 -13.34375 L 0.78125 -13.90625 C 1.351562 -13.851562 1.910156 -13.828125 2.453125 -13.828125 C 2.972656 -13.828125 3.472656 -13.859375 3.953125 -13.921875 C 4.429688 -13.984375 4.867188 -14.078125 5.265625 -14.203125 L 5.265625 -10.828125 C 5.460938 -11.347656 5.742188 -11.875 6.109375 -12.40625 C 6.484375 -12.9375 6.929688 -13.378906 7.453125 -13.734375 C 7.972656 -14.097656 8.550781 -14.28125 9.1875 -14.28125 Z M 9.1875 -14.28125 "/></g></g></g><g fill="#343434" fill-opacity="1"><g transform="translate(92.914392, 285.427599)"><g><path d="M 7.34375 -14.28125 C 8.925781 -14.28125 10.160156 -13.796875 11.046875 -12.828125 C 11.941406 -11.867188 12.390625 -10.375 12.390625 -8.34375 L 2.859375 -8.34375 L 2.828125 -8.859375 L 9.796875 -8.859375 C 9.835938 -9.734375 9.765625 -10.546875 9.578125 -11.296875 C 9.398438 -12.046875 9.117188 -12.644531 8.734375 -13.09375 C 8.347656 -13.539062 7.847656 -13.765625 7.234375 -13.765625 C 6.410156 -13.765625 5.675781 -13.347656 5.03125 -12.515625 C 4.394531 -11.691406 4.015625 -10.382812 3.890625 -8.59375 L 3.96875 -8.484375 C 3.9375 -8.210938 3.910156 -7.910156 3.890625 -7.578125 C 3.867188 -7.253906 3.859375 -6.929688 3.859375 -6.609375 C 3.859375 -5.390625 4.054688 -4.335938 4.453125 -3.453125 C 4.847656 -2.578125 5.363281 -1.90625 6 -1.4375 C 6.644531 -0.976562 7.304688 -0.75 7.984375 -0.75 C 8.523438 -0.75 9.039062 -0.832031 9.53125 -1 C 10.019531 -1.175781 10.46875 -1.460938 10.875 -1.859375 C 11.289062 -2.253906 11.65625 -2.785156 11.96875 -3.453125 L 12.5 -3.234375 C 12.300781 -2.640625 11.976562 -2.0625 11.53125 -1.5 C 11.082031 -0.945312 10.515625 -0.492188 9.828125 -0.140625 C 9.140625 0.203125 8.347656 0.375 7.453125 0.375 C 6.160156 0.375 5.050781 0.078125 4.125 -0.515625 C 3.195312 -1.109375 2.484375 -1.929688 1.984375 -2.984375 C 1.484375 -4.035156 1.234375 -5.242188 1.234375 -6.609375 C 1.234375 -8.191406 1.484375 -9.554688 1.984375 -10.703125 C 2.492188 -11.847656 3.207031 -12.726562 4.125 -13.34375 C 5.050781 -13.96875 6.125 -14.28125 7.34375 -14.28125 Z M 7.34375 -14.28125 "/></g></g></g><g fill="#343434" fill-opacity="1"><g transform="translate(106.57042, 285.427599)"><g><path d="M 5.75 5.078125 C 4.789062 5.078125 3.890625 4.976562 3.046875 4.78125 C 2.203125 4.582031 1.523438 4.269531 1.015625 3.84375 C 0.503906 3.425781 0.25 2.890625 0.25 2.234375 C 0.25 1.609375 0.5 1.070312 1 0.625 C 1.5 0.175781 2.179688 -0.164062 3.046875 -0.40625 L 3.21875 0.03125 C 2.820312 0.15625 2.503906 0.40625 2.265625 0.78125 C 2.035156 1.15625 1.921875 1.578125 1.921875 2.046875 C 1.921875 2.878906 2.300781 3.515625 3.0625 3.953125 C 3.832031 4.390625 4.828125 4.609375 6.046875 4.609375 C 6.859375 4.609375 7.648438 4.503906 8.421875 4.296875 C 9.191406 4.097656 9.828125 3.753906 10.328125 3.265625 C 10.835938 2.773438 11.09375 2.132812 11.09375 1.34375 C 11.09375 0.75 10.878906 0.257812 10.453125 -0.125 C 10.035156 -0.507812 9.207031 -0.703125 7.96875 -0.703125 L 5.96875 -0.703125 C 5.394531 -0.703125 4.835938 -0.742188 4.296875 -0.828125 C 3.753906 -0.921875 3.3125 -1.113281 2.96875 -1.40625 C 2.625 -1.695312 2.453125 -2.140625 2.453125 -2.734375 C 2.453125 -3.335938 2.703125 -3.921875 3.203125 -4.484375 C 3.710938 -5.054688 4.644531 -5.640625 6 -6.234375 L 6.3125 -6 C 5.707031 -5.675781 5.175781 -5.347656 4.71875 -5.015625 C 4.269531 -4.679688 4.046875 -4.285156 4.046875 -3.828125 C 4.046875 -3.253906 4.476562 -2.96875 5.34375 -2.96875 L 8.71875 -2.96875 C 9.476562 -2.96875 10.175781 -2.859375 10.8125 -2.640625 C 11.445312 -2.429688 11.960938 -2.09375 12.359375 -1.625 C 12.753906 -1.15625 12.953125 -0.539062 12.953125 0.21875 C 12.953125 1.0625 12.679688 1.851562 12.140625 2.59375 C 11.609375 3.332031 10.804688 3.929688 9.734375 4.390625 C 8.660156 4.847656 7.332031 5.078125 5.75 5.078125 Z M 5.890625 -5.75 C 5.003906 -5.75 4.203125 -5.894531 3.484375 -6.1875 C 2.765625 -6.488281 2.195312 -6.953125 1.78125 -7.578125 C 1.363281 -8.210938 1.15625 -9.023438 1.15625 -10.015625 C 1.15625 -11.003906 1.363281 -11.8125 1.78125 -12.4375 C 2.195312 -13.070312 2.765625 -13.535156 3.484375 -13.828125 C 4.203125 -14.128906 5.003906 -14.28125 5.890625 -14.28125 C 6.785156 -14.28125 7.585938 -14.128906 8.296875 -13.828125 C 9.015625 -13.535156 9.578125 -13.070312 9.984375 -12.4375 C 10.398438 -11.8125 10.609375 -11.003906 10.609375 -10.015625 C 10.609375 -9.023438 10.398438 -8.210938 9.984375 -7.578125 C 9.578125 -6.953125 9.015625 -6.488281 8.296875 -6.1875 C 7.585938 -5.894531 6.785156 -5.75 5.890625 -5.75 Z M 5.890625 -6.234375 C 6.566406 -6.234375 7.097656 -6.503906 7.484375 -7.046875 C 7.878906 -7.585938 8.078125 -8.578125 8.078125 -10.015625 C 8.078125 -11.453125 7.878906 -12.441406 7.484375 -12.984375 C 7.097656 -13.523438 6.566406 -13.796875 5.890625 -13.796875 C 5.222656 -13.796875 4.691406 -13.523438 4.296875 -12.984375 C 3.898438 -12.441406 3.703125 -11.453125 3.703125 -10.015625 C 3.703125 -8.578125 3.898438 -7.585938 4.296875 -7.046875 C 4.691406 -6.503906 5.222656 -6.234375 5.890625 -6.234375 Z M 9.78125 -12.046875 L 9.28125 -12.234375 C 9.539062 -12.847656 9.972656 -13.382812 10.578125 -13.84375 C 11.191406 -14.3125 11.832031 -14.546875 12.5 -14.546875 C 12.96875 -14.546875 13.34375 -14.414062 13.625 -14.15625 C 13.914062 -13.894531 14.0625 -13.503906 14.0625 -12.984375 C 14.0625 -12.429688 13.910156 -12.039062 13.609375 -11.8125 C 13.316406 -11.582031 13.019531 -11.46875 12.71875 -11.46875 C 12.445312 -11.46875 12.191406 -11.5625 11.953125 -11.75 C 11.722656 -11.945312 11.585938 -12.25 11.546875 -12.65625 C 11.515625 -13.070312 11.644531 -13.601562 11.9375 -14.25 L 12.28125 -14.171875 C 11.53125 -13.890625 10.988281 -13.585938 10.65625 -13.265625 C 10.332031 -12.953125 10.039062 -12.546875 9.78125 -12.046875 Z M 9.78125 -12.046875 "/></g></g></g><g fill="#343434" fill-opacity="1"><g transform="translate(120.82019, 285.427599)"><g><path d="M 13.046875 -14.203125 L 13.046875 -2.921875 C 13.046875 -2.109375 13.191406 -1.507812 13.484375 -1.125 C 13.785156 -0.738281 14.320312 -0.546875 15.09375 -0.546875 L 15.09375 0.03125 C 14.53125 -0.0195312 13.972656 -0.046875 13.421875 -0.046875 C 12.898438 -0.046875 12.398438 -0.0195312 11.921875 0.03125 C 11.441406 0.0820312 11.003906 0.179688 10.609375 0.328125 L 10.609375 -2.859375 C 10.160156 -1.691406 9.523438 -0.859375 8.703125 -0.359375 C 7.890625 0.128906 7.050781 0.375 6.1875 0.375 C 5.550781 0.375 5 0.285156 4.53125 0.109375 C 4.0625 -0.0664062 3.675781 -0.316406 3.375 -0.640625 C 3.03125 -1.003906 2.796875 -1.472656 2.671875 -2.046875 C 2.546875 -2.628906 2.484375 -3.34375 2.484375 -4.1875 L 2.484375 -10.96875 C 2.484375 -11.769531 2.335938 -12.363281 2.046875 -12.75 C 1.765625 -13.144531 1.226562 -13.34375 0.4375 -13.34375 L 0.4375 -13.90625 C 1.007812 -13.851562 1.566406 -13.828125 2.109375 -13.828125 C 2.628906 -13.828125 3.125 -13.859375 3.59375 -13.921875 C 4.070312 -13.984375 4.507812 -14.078125 4.90625 -14.203125 L 4.90625 -3.59375 C 4.90625 -3.03125 4.941406 -2.515625 5.015625 -2.046875 C 5.085938 -1.578125 5.269531 -1.195312 5.5625 -0.90625 C 5.851562 -0.625 6.320312 -0.484375 6.96875 -0.484375 C 7.664062 -0.484375 8.289062 -0.695312 8.84375 -1.125 C 9.394531 -1.5625 9.828125 -2.148438 10.140625 -2.890625 C 10.453125 -3.628906 10.609375 -4.457031 10.609375 -5.375 L 10.609375 -10.96875 C 10.609375 -11.769531 10.460938 -12.363281 10.171875 -12.75 C 9.890625 -13.144531 9.351562 -13.34375 8.5625 -13.34375 L 8.5625 -13.90625 C 9.132812 -13.851562 9.691406 -13.828125 10.234375 -13.828125 C 10.753906 -13.828125 11.253906 -13.859375 11.734375 -13.921875 C 12.210938 -13.984375 12.648438 -14.078125 13.046875 -14.203125 Z M 13.046875 -14.203125 "/></g></g></g><g fill="#343434" fill-opacity="1"><g transform="translate(136.500334, 285.427599)"><g><path d="M 9.859375 -14.28125 C 10.535156 -14.28125 11.101562 -14.191406 11.5625 -14.015625 C 12.03125 -13.835938 12.414062 -13.582031 12.71875 -13.25 C 13.0625 -12.894531 13.300781 -12.445312 13.4375 -11.90625 C 13.582031 -11.363281 13.65625 -10.632812 13.65625 -9.71875 L 13.65625 -2.515625 C 13.65625 -1.753906 13.8125 -1.238281 14.125 -0.96875 C 14.445312 -0.695312 14.976562 -0.5625 15.71875 -0.5625 L 15.71875 0 C 15.40625 -0.0195312 14.929688 -0.0390625 14.296875 -0.0625 C 13.671875 -0.09375 13.0625 -0.109375 12.46875 -0.109375 C 11.875 -0.109375 11.289062 -0.09375 10.71875 -0.0625 C 10.15625 -0.0390625 9.734375 -0.0195312 9.453125 0 L 9.453125 -0.5625 C 10.097656 -0.5625 10.554688 -0.695312 10.828125 -0.96875 C 11.097656 -1.238281 11.234375 -1.753906 11.234375 -2.515625 L 11.234375 -10.3125 C 11.234375 -10.875 11.1875 -11.390625 11.09375 -11.859375 C 11.007812 -12.328125 10.804688 -12.703125 10.484375 -12.984375 C 10.171875 -13.273438 9.691406 -13.421875 9.046875 -13.421875 C 8.285156 -13.421875 7.617188 -13.203125 7.046875 -12.765625 C 6.484375 -12.335938 6.046875 -11.75 5.734375 -11 C 5.421875 -10.25 5.265625 -9.414062 5.265625 -8.5 L 5.265625 -2.515625 C 5.265625 -1.753906 5.398438 -1.238281 5.671875 -0.96875 C 5.941406 -0.695312 6.398438 -0.5625 7.046875 -0.5625 L 7.046875 0 C 6.753906 -0.0195312 6.320312 -0.0390625 5.75 -0.0625 C 5.1875 -0.09375 4.609375 -0.109375 4.015625 -0.109375 C 3.421875 -0.109375 2.804688 -0.09375 2.171875 -0.0625 C 1.546875 -0.0390625 1.082031 -0.0195312 0.78125 0 L 0.78125 -0.5625 C 1.519531 -0.5625 2.046875 -0.695312 2.359375 -0.96875 C 2.671875 -1.238281 2.828125 -1.753906 2.828125 -2.515625 L 2.828125 -10.96875 C 2.828125 -11.769531 2.679688 -12.363281 2.390625 -12.75 C 2.109375 -13.144531 1.570312 -13.34375 0.78125 -13.34375 L 0.78125 -13.90625 C 1.351562 -13.851562 1.910156 -13.828125 2.453125 -13.828125 C 2.972656 -13.828125 3.472656 -13.859375 3.953125 -13.921875 C 4.429688 -13.984375 4.867188 -14.078125 5.265625 -14.203125 L 5.265625 -11.015625 C 5.734375 -12.242188 6.382812 -13.09375 7.21875 -13.5625 C 8.0625 -14.039062 8.941406 -14.28125 9.859375 -14.28125 Z M 9.859375 -14.28125 "/></g></g></g><g fill="#343434" fill-opacity="1"><g transform="translate(152.612298, 285.427599)"><g><path d="M 5.125 -18.390625 L 5.125 -13.875 L 9.125 -13.875 L 9.125 -13.34375 L 5.125 -13.34375 L 5.125 -2.890625 C 5.125 -2.046875 5.273438 -1.453125 5.578125 -1.109375 C 5.890625 -0.765625 6.316406 -0.59375 6.859375 -0.59375 C 7.398438 -0.59375 7.867188 -0.8125 8.265625 -1.25 C 8.660156 -1.695312 9 -2.441406 9.28125 -3.484375 L 9.828125 -3.34375 C 9.648438 -2.300781 9.296875 -1.421875 8.765625 -0.703125 C 8.234375 0.015625 7.414062 0.375 6.3125 0.375 C 5.707031 0.375 5.207031 0.296875 4.8125 0.140625 C 4.414062 -0.00390625 4.0625 -0.222656 3.75 -0.515625 C 3.351562 -0.929688 3.078125 -1.425781 2.921875 -2 C 2.773438 -2.570312 2.703125 -3.335938 2.703125 -4.296875 L 2.703125 -13.34375 L 0.109375 -13.34375 L 0.109375 -13.875 L 2.703125 -13.875 L 2.703125 -18.015625 C 3.148438 -18.023438 3.578125 -18.054688 3.984375 -18.109375 C 4.398438 -18.171875 4.78125 -18.265625 5.125 -18.390625 Z M 5.125 -18.390625 "/></g></g></g><g fill="#343434" fill-opacity="1"><g transform="translate(162.166123, 285.427599)"><g><path d="M 4.609375 0.1875 C 3.878906 0.1875 3.242188 0.0507812 2.703125 -0.21875 C 2.160156 -0.5 1.75 -0.890625 1.46875 -1.390625 C 1.1875 -1.898438 1.046875 -2.488281 1.046875 -3.15625 C 1.046875 -3.945312 1.226562 -4.59375 1.59375 -5.09375 C 1.96875 -5.601562 2.441406 -6.007812 3.015625 -6.3125 C 3.597656 -6.625 4.207031 -6.878906 4.84375 -7.078125 C 5.488281 -7.285156 6.097656 -7.484375 6.671875 -7.671875 C 7.242188 -7.867188 7.710938 -8.09375 8.078125 -8.34375 C 8.453125 -8.59375 8.640625 -8.925781 8.640625 -9.34375 L 8.640625 -11.015625 C 8.640625 -11.773438 8.523438 -12.351562 8.296875 -12.75 C 8.078125 -13.144531 7.773438 -13.410156 7.390625 -13.546875 C 7.015625 -13.679688 6.59375 -13.75 6.125 -13.75 C 5.675781 -13.75 5.195312 -13.679688 4.6875 -13.546875 C 4.175781 -13.421875 3.765625 -13.160156 3.453125 -12.765625 C 3.796875 -12.691406 4.09375 -12.507812 4.34375 -12.21875 C 4.59375 -11.9375 4.71875 -11.570312 4.71875 -11.125 C 4.71875 -10.675781 4.570312 -10.320312 4.28125 -10.0625 C 4 -9.800781 3.632812 -9.671875 3.1875 -9.671875 C 2.664062 -9.671875 2.28125 -9.835938 2.03125 -10.171875 C 1.789062 -10.503906 1.671875 -10.875 1.671875 -11.28125 C 1.671875 -11.75 1.785156 -12.128906 2.015625 -12.421875 C 2.253906 -12.710938 2.554688 -12.984375 2.921875 -13.234375 C 3.328125 -13.515625 3.859375 -13.757812 4.515625 -13.96875 C 5.179688 -14.175781 5.925781 -14.28125 6.75 -14.28125 C 7.488281 -14.28125 8.117188 -14.191406 8.640625 -14.015625 C 9.160156 -13.847656 9.59375 -13.601562 9.9375 -13.28125 C 10.40625 -12.851562 10.707031 -12.328125 10.84375 -11.703125 C 10.988281 -11.078125 11.0625 -10.335938 11.0625 -9.484375 L 11.0625 -1.96875 C 11.0625 -1.519531 11.128906 -1.195312 11.265625 -1 C 11.398438 -0.800781 11.613281 -0.703125 11.90625 -0.703125 C 12.101562 -0.703125 12.289062 -0.742188 12.46875 -0.828125 C 12.65625 -0.921875 12.875 -1.066406 13.125 -1.265625 L 13.421875 -0.8125 C 13.046875 -0.519531 12.6875 -0.28125 12.34375 -0.09375 C 12 0.09375 11.539062 0.1875 10.96875 0.1875 C 10.4375 0.1875 10 0.0976562 9.65625 -0.078125 C 9.320312 -0.253906 9.066406 -0.519531 8.890625 -0.875 C 8.722656 -1.226562 8.640625 -1.675781 8.640625 -2.21875 C 8.148438 -1.40625 7.566406 -0.800781 6.890625 -0.40625 C 6.222656 -0.0078125 5.460938 0.1875 4.609375 0.1875 Z M 5.59375 -0.890625 C 6.1875 -0.890625 6.738281 -1.0625 7.25 -1.40625 C 7.757812 -1.75 8.222656 -2.257812 8.640625 -2.9375 L 8.640625 -8.234375 C 8.421875 -7.929688 8.101562 -7.675781 7.6875 -7.46875 C 7.28125 -7.257812 6.832031 -7.050781 6.34375 -6.84375 C 5.851562 -6.632812 5.390625 -6.390625 4.953125 -6.109375 C 4.515625 -5.835938 4.148438 -5.472656 3.859375 -5.015625 C 3.566406 -4.566406 3.421875 -3.984375 3.421875 -3.265625 C 3.421875 -2.546875 3.613281 -1.96875 4 -1.53125 C 4.394531 -1.101562 4.925781 -0.890625 5.59375 -0.890625 Z M 5.59375 -0.890625 "/></g></g></g><g fill="#343434" fill-opacity="1"><g transform="translate(175.606246, 285.427599)"><g><path d="M 5.609375 -14.28125 C 6.335938 -14.28125 6.953125 -14.160156 7.453125 -13.921875 C 7.953125 -13.691406 8.320312 -13.476562 8.5625 -13.28125 C 9.15625 -12.800781 9.515625 -13.125 9.640625 -14.25 L 10.265625 -14.25 C 10.222656 -13.75 10.191406 -13.148438 10.171875 -12.453125 C 10.160156 -11.765625 10.15625 -10.835938 10.15625 -9.671875 L 9.53125 -9.671875 C 9.425781 -10.335938 9.242188 -10.984375 8.984375 -11.609375 C 8.722656 -12.242188 8.335938 -12.757812 7.828125 -13.15625 C 7.328125 -13.5625 6.671875 -13.765625 5.859375 -13.765625 C 5.222656 -13.765625 4.691406 -13.585938 4.265625 -13.234375 C 3.847656 -12.890625 3.640625 -12.375 3.640625 -11.6875 C 3.640625 -11.144531 3.800781 -10.679688 4.125 -10.296875 C 4.445312 -9.910156 4.867188 -9.550781 5.390625 -9.21875 C 5.921875 -8.882812 6.488281 -8.519531 7.09375 -8.125 C 7.78125 -7.695312 8.398438 -7.253906 8.953125 -6.796875 C 9.515625 -6.347656 9.960938 -5.851562 10.296875 -5.3125 C 10.628906 -4.78125 10.796875 -4.144531 10.796875 -3.40625 C 10.796875 -2.570312 10.578125 -1.875 10.140625 -1.3125 C 9.710938 -0.757812 9.148438 -0.335938 8.453125 -0.046875 C 7.765625 0.234375 7.007812 0.375 6.1875 0.375 C 5.789062 0.375 5.414062 0.34375 5.0625 0.28125 C 4.707031 0.21875 4.367188 0.125 4.046875 0 C 3.867188 -0.09375 3.6875 -0.203125 3.5 -0.328125 C 3.3125 -0.453125 3.125 -0.585938 2.9375 -0.734375 C 2.757812 -0.867188 2.597656 -0.859375 2.453125 -0.703125 C 2.304688 -0.554688 2.203125 -0.257812 2.140625 0.1875 L 1.515625 0.1875 C 1.546875 -0.382812 1.570312 -1.082031 1.59375 -1.90625 C 1.613281 -2.738281 1.625 -3.84375 1.625 -5.21875 L 2.234375 -5.21875 C 2.367188 -4.207031 2.550781 -3.320312 2.78125 -2.5625 C 3.007812 -1.8125 3.375 -1.222656 3.875 -0.796875 C 4.382812 -0.367188 5.09375 -0.15625 6 -0.15625 C 6.351562 -0.15625 6.710938 -0.234375 7.078125 -0.390625 C 7.453125 -0.554688 7.765625 -0.828125 8.015625 -1.203125 C 8.265625 -1.585938 8.390625 -2.097656 8.390625 -2.734375 C 8.390625 -3.523438 8.101562 -4.171875 7.53125 -4.671875 C 6.957031 -5.171875 6.226562 -5.703125 5.34375 -6.265625 C 4.695312 -6.679688 4.085938 -7.09375 3.515625 -7.5 C 2.953125 -7.914062 2.492188 -8.382812 2.140625 -8.90625 C 1.796875 -9.425781 1.625 -10.054688 1.625 -10.796875 C 1.625 -11.609375 1.804688 -12.269531 2.171875 -12.78125 C 2.546875 -13.289062 3.035156 -13.664062 3.640625 -13.90625 C 4.253906 -14.15625 4.910156 -14.28125 5.609375 -14.28125 Z M 5.609375 -14.28125 "/></g></g></g><g fill="#343434" fill-opacity="1"><g transform="translate(187.669978, 285.427599)"><g/></g></g><g fill="#343434" fill-opacity="1"><g transform="translate(194.390039, 285.427599)"><g><path d="M 7.453125 -21.109375 C 7.953125 -21.109375 8.394531 -21.039062 8.78125 -20.90625 C 9.175781 -20.769531 9.515625 -20.597656 9.796875 -20.390625 C 10.066406 -20.171875 10.273438 -19.914062 10.421875 -19.625 C 10.566406 -19.34375 10.640625 -19.039062 10.640625 -18.71875 C 10.640625 -18.300781 10.503906 -17.957031 10.234375 -17.6875 C 9.960938 -17.414062 9.617188 -17.28125 9.203125 -17.28125 C 8.804688 -17.28125 8.457031 -17.410156 8.15625 -17.671875 C 7.863281 -17.929688 7.71875 -18.285156 7.71875 -18.734375 C 7.71875 -19.117188 7.820312 -19.425781 8.03125 -19.65625 C 8.238281 -19.882812 8.515625 -20.035156 8.859375 -20.109375 C 8.804688 -20.273438 8.664062 -20.414062 8.4375 -20.53125 C 8.207031 -20.644531 7.90625 -20.703125 7.53125 -20.703125 C 7.113281 -20.703125 6.753906 -20.613281 6.453125 -20.4375 C 6.160156 -20.257812 5.9375 -20.015625 5.78125 -19.703125 C 5.5625 -19.328125 5.425781 -18.765625 5.375 -18.015625 C 5.320312 -17.273438 5.296875 -16.128906 5.296875 -14.578125 L 5.296875 -13.875 L 8.1875 -13.875 L 8.1875 -13.34375 L 5.296875 -13.34375 L 5.296875 -2.78125 C 5.296875 -1.894531 5.550781 -1.300781 6.0625 -1 C 6.570312 -0.707031 7.269531 -0.5625 8.15625 -0.5625 L 8.15625 0 C 7.738281 -0.0195312 7.148438 -0.0390625 6.390625 -0.0625 C 5.640625 -0.09375 4.84375 -0.109375 4 -0.109375 C 3.382812 -0.109375 2.773438 -0.09375 2.171875 -0.0625 C 1.566406 -0.0390625 1.113281 -0.0195312 0.8125 0 L 0.8125 -0.5625 C 1.550781 -0.5625 2.078125 -0.695312 2.390625 -0.96875 C 2.703125 -1.238281 2.859375 -1.753906 2.859375 -2.515625 L 2.859375 -13.34375 L 0.703125 -13.34375 L 0.703125 -13.875 L 2.859375 -13.875 C 2.859375 -14.9375 2.898438 -15.828125 2.984375 -16.546875 C 3.078125 -17.265625 3.222656 -17.878906 3.421875 -18.390625 C 3.617188 -18.910156 3.890625 -19.367188 4.234375 -19.765625 C 4.597656 -20.179688 5.054688 -20.507812 5.609375 -20.75 C 6.171875 -20.988281 6.785156 -21.109375 7.453125 -21.109375 Z M 7.453125 -21.109375 "/></g></g></g><g fill="#343434" fill-opacity="1"><g transform="translate(203.350122, 285.427599)"><g><path d="M 9.1875 -14.28125 C 9.664062 -14.28125 10.085938 -14.179688 10.453125 -13.984375 C 10.828125 -13.785156 11.117188 -13.53125 11.328125 -13.21875 C 11.535156 -12.90625 11.640625 -12.550781 11.640625 -12.15625 C 11.640625 -11.695312 11.5 -11.296875 11.21875 -10.953125 C 10.9375 -10.617188 10.5625 -10.453125 10.09375 -10.453125 C 9.71875 -10.453125 9.382812 -10.570312 9.09375 -10.8125 C 8.8125 -11.050781 8.671875 -11.398438 8.671875 -11.859375 C 8.671875 -12.191406 8.765625 -12.476562 8.953125 -12.71875 C 9.140625 -12.96875 9.347656 -13.164062 9.578125 -13.3125 C 9.453125 -13.488281 9.265625 -13.578125 9.015625 -13.578125 C 8.460938 -13.578125 7.953125 -13.410156 7.484375 -13.078125 C 7.015625 -12.742188 6.617188 -12.316406 6.296875 -11.796875 C 5.972656 -11.273438 5.71875 -10.722656 5.53125 -10.140625 C 5.351562 -9.554688 5.265625 -9.007812 5.265625 -8.5 L 5.265625 -2.78125 C 5.265625 -1.894531 5.519531 -1.300781 6.03125 -1 C 6.539062 -0.707031 7.238281 -0.5625 8.125 -0.5625 L 8.125 0 C 7.707031 -0.0195312 7.117188 -0.0390625 6.359375 -0.0625 C 5.609375 -0.09375 4.8125 -0.109375 3.96875 -0.109375 C 3.351562 -0.109375 2.742188 -0.09375 2.140625 -0.0625 C 1.535156 -0.0390625 1.082031 -0.0195312 0.78125 0 L 0.78125 -0.5625 C 1.519531 -0.5625 2.046875 -0.695312 2.359375 -0.96875 C 2.671875 -1.238281 2.828125 -1.753906 2.828125 -2.515625 L 2.828125 -10.96875 C 2.828125 -11.769531 2.679688 -12.363281 2.390625 -12.75 C 2.109375 -13.144531 1.570312 -13.34375 0.78125 -13.34375 L 0.78125 -13.90625 C 1.351562 -13.851562 1.910156 -13.828125 2.453125 -13.828125 C 2.972656 -13.828125 3.472656 -13.859375 3.953125 -13.921875 C 4.429688 -13.984375 4.867188 -14.078125 5.265625 -14.203125 L 5.265625 -10.828125 C 5.460938 -11.347656 5.742188 -11.875 6.109375 -12.40625 C 6.484375 -12.9375 6.929688 -13.378906 7.453125 -13.734375 C 7.972656 -14.097656 8.550781 -14.28125 9.1875 -14.28125 Z M 9.1875 -14.28125 "/></g></g></g><g fill="#343434" fill-opacity="1"><g transform="translate(215.359871, 285.427599)"><g><path d="M 7.34375 -14.28125 C 8.925781 -14.28125 10.160156 -13.796875 11.046875 -12.828125 C 11.941406 -11.867188 12.390625 -10.375 12.390625 -8.34375 L 2.859375 -8.34375 L 2.828125 -8.859375 L 9.796875 -8.859375 C 9.835938 -9.734375 9.765625 -10.546875 9.578125 -11.296875 C 9.398438 -12.046875 9.117188 -12.644531 8.734375 -13.09375 C 8.347656 -13.539062 7.847656 -13.765625 7.234375 -13.765625 C 6.410156 -13.765625 5.675781 -13.347656 5.03125 -12.515625 C 4.394531 -11.691406 4.015625 -10.382812 3.890625 -8.59375 L 3.96875 -8.484375 C 3.9375 -8.210938 3.910156 -7.910156 3.890625 -7.578125 C 3.867188 -7.253906 3.859375 -6.929688 3.859375 -6.609375 C 3.859375 -5.390625 4.054688 -4.335938 4.453125 -3.453125 C 4.847656 -2.578125 5.363281 -1.90625 6 -1.4375 C 6.644531 -0.976562 7.304688 -0.75 7.984375 -0.75 C 8.523438 -0.75 9.039062 -0.832031 9.53125 -1 C 10.019531 -1.175781 10.46875 -1.460938 10.875 -1.859375 C 11.289062 -2.253906 11.65625 -2.785156 11.96875 -3.453125 L 12.5 -3.234375 C 12.300781 -2.640625 11.976562 -2.0625 11.53125 -1.5 C 11.082031 -0.945312 10.515625 -0.492188 9.828125 -0.140625 C 9.140625 0.203125 8.347656 0.375 7.453125 0.375 C 6.160156 0.375 5.050781 0.078125 4.125 -0.515625 C 3.195312 -1.109375 2.484375 -1.929688 1.984375 -2.984375 C 1.484375 -4.035156 1.234375 -5.242188 1.234375 -6.609375 C 1.234375 -8.191406 1.484375 -9.554688 1.984375 -10.703125 C 2.492188 -11.847656 3.207031 -12.726562 4.125 -13.34375 C 5.050781 -13.96875 6.125 -14.28125 7.34375 -14.28125 Z M 7.34375 -14.28125 "/></g></g></g><g fill="#343434" fill-opacity="1"><g transform="translate(229.015899, 285.427599)"><g><path d="M 7.53125 -14.28125 C 8.101562 -14.28125 8.660156 -14.207031 9.203125 -14.0625 C 9.742188 -13.914062 10.234375 -13.703125 10.671875 -13.421875 C 11.078125 -13.148438 11.390625 -12.835938 11.609375 -12.484375 C 11.828125 -12.140625 11.9375 -11.757812 11.9375 -11.34375 C 11.9375 -10.851562 11.800781 -10.476562 11.53125 -10.21875 C 11.257812 -9.957031 10.914062 -9.828125 10.5 -9.828125 C 10.101562 -9.828125 9.753906 -9.941406 9.453125 -10.171875 C 9.160156 -10.410156 9.015625 -10.742188 9.015625 -11.171875 C 9.015625 -11.585938 9.125 -11.921875 9.34375 -12.171875 C 9.570312 -12.429688 9.84375 -12.59375 10.15625 -12.65625 C 9.96875 -12.988281 9.644531 -13.257812 9.1875 -13.46875 C 8.726562 -13.6875 8.238281 -13.796875 7.71875 -13.796875 C 7.269531 -13.796875 6.820312 -13.6875 6.375 -13.46875 C 5.925781 -13.257812 5.507812 -12.90625 5.125 -12.40625 C 4.75 -11.90625 4.441406 -11.226562 4.203125 -10.375 C 3.972656 -9.519531 3.859375 -8.457031 3.859375 -7.1875 C 3.859375 -5.601562 4.035156 -4.34375 4.390625 -3.40625 C 4.753906 -2.46875 5.226562 -1.796875 5.8125 -1.390625 C 6.40625 -0.984375 7.050781 -0.78125 7.75 -0.78125 C 8.21875 -0.78125 8.691406 -0.867188 9.171875 -1.046875 C 9.660156 -1.234375 10.117188 -1.523438 10.546875 -1.921875 C 10.984375 -2.328125 11.351562 -2.875 11.65625 -3.5625 L 12.171875 -3.375 C 11.992188 -2.800781 11.695312 -2.21875 11.28125 -1.625 C 10.875 -1.039062 10.335938 -0.5625 9.671875 -0.1875 C 9.003906 0.1875 8.179688 0.375 7.203125 0.375 C 6.085938 0.375 5.078125 0.0859375 4.171875 -0.484375 C 3.273438 -1.054688 2.5625 -1.878906 2.03125 -2.953125 C 1.5 -4.023438 1.234375 -5.300781 1.234375 -6.78125 C 1.234375 -8.25 1.5 -9.546875 2.03125 -10.671875 C 2.5625 -11.796875 3.304688 -12.675781 4.265625 -13.3125 C 5.222656 -13.957031 6.3125 -14.28125 7.53125 -14.28125 Z M 7.53125 -14.28125 "/></g></g></g><g fill="#343434" fill-opacity="1"><g transform="translate(242.132167, 285.427599)"><g><path d="M 13.046875 -14.203125 L 13.046875 -2.921875 C 13.046875 -2.109375 13.191406 -1.507812 13.484375 -1.125 C 13.785156 -0.738281 14.320312 -0.546875 15.09375 -0.546875 L 15.09375 0.03125 C 14.53125 -0.0195312 13.972656 -0.046875 13.421875 -0.046875 C 12.898438 -0.046875 12.398438 -0.0195312 11.921875 0.03125 C 11.441406 0.0820312 11.003906 0.179688 10.609375 0.328125 L 10.609375 -2.859375 C 10.160156 -1.691406 9.523438 -0.859375 8.703125 -0.359375 C 7.890625 0.128906 7.050781 0.375 6.1875 0.375 C 5.550781 0.375 5 0.285156 4.53125 0.109375 C 4.0625 -0.0664062 3.675781 -0.316406 3.375 -0.640625 C 3.03125 -1.003906 2.796875 -1.472656 2.671875 -2.046875 C 2.546875 -2.628906 2.484375 -3.34375 2.484375 -4.1875 L 2.484375 -10.96875 C 2.484375 -11.769531 2.335938 -12.363281 2.046875 -12.75 C 1.765625 -13.144531 1.226562 -13.34375 0.4375 -13.34375 L 0.4375 -13.90625 C 1.007812 -13.851562 1.566406 -13.828125 2.109375 -13.828125 C 2.628906 -13.828125 3.125 -13.859375 3.59375 -13.921875 C 4.070312 -13.984375 4.507812 -14.078125 4.90625 -14.203125 L 4.90625 -3.59375 C 4.90625 -3.03125 4.941406 -2.515625 5.015625 -2.046875 C 5.085938 -1.578125 5.269531 -1.195312 5.5625 -0.90625 C 5.851562 -0.625 6.320312 -0.484375 6.96875 -0.484375 C 7.664062 -0.484375 8.289062 -0.695312 8.84375 -1.125 C 9.394531 -1.5625 9.828125 -2.148438 10.140625 -2.890625 C 10.453125 -3.628906 10.609375 -4.457031 10.609375 -5.375 L 10.609375 -10.96875 C 10.609375 -11.769531 10.460938 -12.363281 10.171875 -12.75 C 9.890625 -13.144531 9.351562 -13.34375 8.5625 -13.34375 L 8.5625 -13.90625 C 9.132812 -13.851562 9.691406 -13.828125 10.234375 -13.828125 C 10.753906 -13.828125 11.253906 -13.859375 11.734375 -13.921875 C 12.210938 -13.984375 12.648438 -14.078125 13.046875 -14.203125 Z M 13.046875 -14.203125 "/></g></g></g><g fill="#343434" fill-opacity="1"><g transform="translate(257.812299, 285.427599)"><g><path d="M 7.34375 -14.28125 C 8.925781 -14.28125 10.160156 -13.796875 11.046875 -12.828125 C 11.941406 -11.867188 12.390625 -10.375 12.390625 -8.34375 L 2.859375 -8.34375 L 2.828125 -8.859375 L 9.796875 -8.859375 C 9.835938 -9.734375 9.765625 -10.546875 9.578125 -11.296875 C 9.398438 -12.046875 9.117188 -12.644531 8.734375 -13.09375 C 8.347656 -13.539062 7.847656 -13.765625 7.234375 -13.765625 C 6.410156 -13.765625 5.675781 -13.347656 5.03125 -12.515625 C 4.394531 -11.691406 4.015625 -10.382812 3.890625 -8.59375 L 3.96875 -8.484375 C 3.9375 -8.210938 3.910156 -7.910156 3.890625 -7.578125 C 3.867188 -7.253906 3.859375 -6.929688 3.859375 -6.609375 C 3.859375 -5.390625 4.054688 -4.335938 4.453125 -3.453125 C 4.847656 -2.578125 5.363281 -1.90625 6 -1.4375 C 6.644531 -0.976562 7.304688 -0.75 7.984375 -0.75 C 8.523438 -0.75 9.039062 -0.832031 9.53125 -1 C 10.019531 -1.175781 10.46875 -1.460938 10.875 -1.859375 C 11.289062 -2.253906 11.65625 -2.785156 11.96875 -3.453125 L 12.5 -3.234375 C 12.300781 -2.640625 11.976562 -2.0625 11.53125 -1.5 C 11.082031 -0.945312 10.515625 -0.492188 9.828125 -0.140625 C 9.140625 0.203125 8.347656 0.375 7.453125 0.375 C 6.160156 0.375 5.050781 0.078125 4.125 -0.515625 C 3.195312 -1.109375 2.484375 -1.929688 1.984375 -2.984375 C 1.484375 -4.035156 1.234375 -5.242188 1.234375 -6.609375 C 1.234375 -8.191406 1.484375 -9.554688 1.984375 -10.703125 C 2.492188 -11.847656 3.207031 -12.726562 4.125 -13.34375 C 5.050781 -13.96875 6.125 -14.28125 7.34375 -14.28125 Z M 7.34375 -14.28125 "/></g></g></g><g fill="#343434" fill-opacity="1"><g transform="translate(271.468327, 285.427599)"><g><path d="M 9.859375 -14.28125 C 10.535156 -14.28125 11.101562 -14.191406 11.5625 -14.015625 C 12.03125 -13.835938 12.414062 -13.582031 12.71875 -13.25 C 13.0625 -12.894531 13.300781 -12.445312 13.4375 -11.90625 C 13.582031 -11.363281 13.65625 -10.632812 13.65625 -9.71875 L 13.65625 -2.515625 C 13.65625 -1.753906 13.8125 -1.238281 14.125 -0.96875 C 14.445312 -0.695312 14.976562 -0.5625 15.71875 -0.5625 L 15.71875 0 C 15.40625 -0.0195312 14.929688 -0.0390625 14.296875 -0.0625 C 13.671875 -0.09375 13.0625 -0.109375 12.46875 -0.109375 C 11.875 -0.109375 11.289062 -0.09375 10.71875 -0.0625 C 10.15625 -0.0390625 9.734375 -0.0195312 9.453125 0 L 9.453125 -0.5625 C 10.097656 -0.5625 10.554688 -0.695312 10.828125 -0.96875 C 11.097656 -1.238281 11.234375 -1.753906 11.234375 -2.515625 L 11.234375 -10.3125 C 11.234375 -10.875 11.1875 -11.390625 11.09375 -11.859375 C 11.007812 -12.328125 10.804688 -12.703125 10.484375 -12.984375 C 10.171875 -13.273438 9.691406 -13.421875 9.046875 -13.421875 C 8.285156 -13.421875 7.617188 -13.203125 7.046875 -12.765625 C 6.484375 -12.335938 6.046875 -11.75 5.734375 -11 C 5.421875 -10.25 5.265625 -9.414062 5.265625 -8.5 L 5.265625 -2.515625 C 5.265625 -1.753906 5.398438 -1.238281 5.671875 -0.96875 C 5.941406 -0.695312 6.398438 -0.5625 7.046875 -0.5625 L 7.046875 0 C 6.753906 -0.0195312 6.320312 -0.0390625 5.75 -0.0625 C 5.1875 -0.09375 4.609375 -0.109375 4.015625 -0.109375 C 3.421875 -0.109375 2.804688 -0.09375 2.171875 -0.0625 C 1.546875 -0.0390625 1.082031 -0.0195312 0.78125 0 L 0.78125 -0.5625 C 1.519531 -0.5625 2.046875 -0.695312 2.359375 -0.96875 C 2.671875 -1.238281 2.828125 -1.753906 2.828125 -2.515625 L 2.828125 -10.96875 C 2.828125 -11.769531 2.679688 -12.363281 2.390625 -12.75 C 2.109375 -13.144531 1.570312 -13.34375 0.78125 -13.34375 L 0.78125 -13.90625 C 1.351562 -13.851562 1.910156 -13.828125 2.453125 -13.828125 C 2.972656 -13.828125 3.472656 -13.859375 3.953125 -13.921875 C 4.429688 -13.984375 4.867188 -14.078125 5.265625 -14.203125 L 5.265625 -11.015625 C 5.734375 -12.242188 6.382812 -13.09375 7.21875 -13.5625 C 8.0625 -14.039062 8.941406 -14.28125 9.859375 -14.28125 Z M 9.859375 -14.28125 "/></g></g></g><g fill="#343434" fill-opacity="1"><g transform="translate(287.580302, 285.427599)"><g><path d="M 5.125 -18.390625 L 5.125 -13.875 L 9.125 -13.875 L 9.125 -13.34375 L 5.125 -13.34375 L 5.125 -2.890625 C 5.125 -2.046875 5.273438 -1.453125 5.578125 -1.109375 C 5.890625 -0.765625 6.316406 -0.59375 6.859375 -0.59375 C 7.398438 -0.59375 7.867188 -0.8125 8.265625 -1.25 C 8.660156 -1.695312 9 -2.441406 9.28125 -3.484375 L 9.828125 -3.34375 C 9.648438 -2.300781 9.296875 -1.421875 8.765625 -0.703125 C 8.234375 0.015625 7.414062 0.375 6.3125 0.375 C 5.707031 0.375 5.207031 0.296875 4.8125 0.140625 C 4.414062 -0.00390625 4.0625 -0.222656 3.75 -0.515625 C 3.351562 -0.929688 3.078125 -1.425781 2.921875 -2 C 2.773438 -2.570312 2.703125 -3.335938 2.703125 -4.296875 L 2.703125 -13.34375 L 0.109375 -13.34375 L 0.109375 -13.875 L 2.703125 -13.875 L 2.703125 -18.015625 C 3.148438 -18.023438 3.578125 -18.054688 3.984375 -18.109375 C 4.398438 -18.171875 4.78125 -18.265625 5.125 -18.390625 Z M 5.125 -18.390625 "/></g></g></g><g fill="#343434" fill-opacity="1"><g transform="translate(297.134127, 285.427599)"><g><path d="M 7.34375 -14.28125 C 8.925781 -14.28125 10.160156 -13.796875 11.046875 -12.828125 C 11.941406 -11.867188 12.390625 -10.375 12.390625 -8.34375 L 2.859375 -8.34375 L 2.828125 -8.859375 L 9.796875 -8.859375 C 9.835938 -9.734375 9.765625 -10.546875 9.578125 -11.296875 C 9.398438 -12.046875 9.117188 -12.644531 8.734375 -13.09375 C 8.347656 -13.539062 7.847656 -13.765625 7.234375 -13.765625 C 6.410156 -13.765625 5.675781 -13.347656 5.03125 -12.515625 C 4.394531 -11.691406 4.015625 -10.382812 3.890625 -8.59375 L 3.96875 -8.484375 C 3.9375 -8.210938 3.910156 -7.910156 3.890625 -7.578125 C 3.867188 -7.253906 3.859375 -6.929688 3.859375 -6.609375 C 3.859375 -5.390625 4.054688 -4.335938 4.453125 -3.453125 C 4.847656 -2.578125 5.363281 -1.90625 6 -1.4375 C 6.644531 -0.976562 7.304688 -0.75 7.984375 -0.75 C 8.523438 -0.75 9.039062 -0.832031 9.53125 -1 C 10.019531 -1.175781 10.46875 -1.460938 10.875 -1.859375 C 11.289062 -2.253906 11.65625 -2.785156 11.96875 -3.453125 L 12.5 -3.234375 C 12.300781 -2.640625 11.976562 -2.0625 11.53125 -1.5 C 11.082031 -0.945312 10.515625 -0.492188 9.828125 -0.140625 C 9.140625 0.203125 8.347656 0.375 7.453125 0.375 C 6.160156 0.375 5.050781 0.078125 4.125 -0.515625 C 3.195312 -1.109375 2.484375 -1.929688 1.984375 -2.984375 C 1.484375 -4.035156 1.234375 -5.242188 1.234375 -6.609375 C 1.234375 -8.191406 1.484375 -9.554688 1.984375 -10.703125 C 2.492188 -11.847656 3.207031 -12.726562 4.125 -13.34375 C 5.050781 -13.96875 6.125 -14.28125 7.34375 -14.28125 Z M 7.34375 -14.28125 "/></g></g></g><g fill="#343434" fill-opacity="1"><g transform="translate(310.790154, 285.427599)"><g><path d="M 5.609375 -14.28125 C 6.335938 -14.28125 6.953125 -14.160156 7.453125 -13.921875 C 7.953125 -13.691406 8.320312 -13.476562 8.5625 -13.28125 C 9.15625 -12.800781 9.515625 -13.125 9.640625 -14.25 L 10.265625 -14.25 C 10.222656 -13.75 10.191406 -13.148438 10.171875 -12.453125 C 10.160156 -11.765625 10.15625 -10.835938 10.15625 -9.671875 L 9.53125 -9.671875 C 9.425781 -10.335938 9.242188 -10.984375 8.984375 -11.609375 C 8.722656 -12.242188 8.335938 -12.757812 7.828125 -13.15625 C 7.328125 -13.5625 6.671875 -13.765625 5.859375 -13.765625 C 5.222656 -13.765625 4.691406 -13.585938 4.265625 -13.234375 C 3.847656 -12.890625 3.640625 -12.375 3.640625 -11.6875 C 3.640625 -11.144531 3.800781 -10.679688 4.125 -10.296875 C 4.445312 -9.910156 4.867188 -9.550781 5.390625 -9.21875 C 5.921875 -8.882812 6.488281 -8.519531 7.09375 -8.125 C 7.78125 -7.695312 8.398438 -7.253906 8.953125 -6.796875 C 9.515625 -6.347656 9.960938 -5.851562 10.296875 -5.3125 C 10.628906 -4.78125 10.796875 -4.144531 10.796875 -3.40625 C 10.796875 -2.570312 10.578125 -1.875 10.140625 -1.3125 C 9.710938 -0.757812 9.148438 -0.335938 8.453125 -0.046875 C 7.765625 0.234375 7.007812 0.375 6.1875 0.375 C 5.789062 0.375 5.414062 0.34375 5.0625 0.28125 C 4.707031 0.21875 4.367188 0.125 4.046875 0 C 3.867188 -0.09375 3.6875 -0.203125 3.5 -0.328125 C 3.3125 -0.453125 3.125 -0.585938 2.9375 -0.734375 C 2.757812 -0.867188 2.597656 -0.859375 2.453125 -0.703125 C 2.304688 -0.554688 2.203125 -0.257812 2.140625 0.1875 L 1.515625 0.1875 C 1.546875 -0.382812 1.570312 -1.082031 1.59375 -1.90625 C 1.613281 -2.738281 1.625 -3.84375 1.625 -5.21875 L 2.234375 -5.21875 C 2.367188 -4.207031 2.550781 -3.320312 2.78125 -2.5625 C 3.007812 -1.8125 3.375 -1.222656 3.875 -0.796875 C 4.382812 -0.367188 5.09375 -0.15625 6 -0.15625 C 6.351562 -0.15625 6.710938 -0.234375 7.078125 -0.390625 C 7.453125 -0.554688 7.765625 -0.828125 8.015625 -1.203125 C 8.265625 -1.585938 8.390625 -2.097656 8.390625 -2.734375 C 8.390625 -3.523438 8.101562 -4.171875 7.53125 -4.671875 C 6.957031 -5.171875 6.226562 -5.703125 5.34375 -6.265625 C 4.695312 -6.679688 4.085938 -7.09375 3.515625 -7.5 C 2.953125 -7.914062 2.492188 -8.382812 2.140625 -8.90625 C 1.796875 -9.425781 1.625 -10.054688 1.625 -10.796875 C 1.625 -11.609375 1.804688 -12.269531 2.171875 -12.78125 C 2.546875 -13.289062 3.035156 -13.664062 3.640625 -13.90625 C 4.253906 -14.15625 4.910156 -14.28125 5.609375 -14.28125 Z M 5.609375 -14.28125 "/></g></g></g></svg>