<svg xmlns="http://www.w3.org/2000/svg" xmlns:xlink="http://www.w3.org/1999/xlink" width="1080" zoomAndPan="magnify" viewBox="0 0 810 809.999993" height="1080" preserveAspectRatio="xMidYMid meet" version="1.0"><defs><g/></defs><rect x="-81" width="972" fill="#ffffff" y="-80.999999" height="971.999992" fill-opacity="1"/><rect x="-81" width="972" fill="#51877a" y="-80.999999" height="971.999992" fill-opacity="1"/><g fill="#e3e6e3" fill-opacity="1"><g transform="translate(120.17386, 369.000001)"><g><path d="M 39.546875 -47.296875 C 39.234375 -44.128906 39.078125 -41.273438 39.078125 -38.734375 C 39.078125 -36.515625 39.144531 -34.691406 39.28125 -33.265625 L 37.734375 -33.265625 C 37.378906 -36.691406 36.9375 -39.238281 36.40625 -40.90625 C 35.875 -42.582031 34.9375 -43.804688 33.59375 -44.578125 C 32.257812 -45.359375 30.210938 -45.75 27.453125 -45.75 L 23.84375 -45.75 L 23.84375 -7.75 C 23.84375 -5.875 24.019531 -4.515625 24.375 -3.671875 C 24.738281 -2.828125 25.363281 -2.25 26.25 -1.9375 C 27.144531 -1.625 28.59375 -1.421875 30.59375 -1.328125 L 30.59375 0 C 28.28125 -0.132812 25.007812 -0.203125 20.78125 -0.203125 C 16.320312 -0.203125 13.023438 -0.132812 10.890625 0 L 10.890625 -1.328125 C 12.890625 -1.421875 14.332031 -1.625 15.21875 -1.9375 C 16.113281 -2.25 16.738281 -2.828125 17.09375 -3.671875 C 17.457031 -4.515625 17.640625 -5.875 17.640625 -7.75 L 17.640625 -45.75 L 14.03125 -45.75 C 11.269531 -45.75 9.21875 -45.359375 7.875 -44.578125 C 6.539062 -43.804688 5.609375 -42.582031 5.078125 -40.90625 C 4.546875 -39.238281 4.097656 -36.691406 3.734375 -33.265625 L 2.203125 -33.265625 C 2.335938 -34.691406 2.40625 -36.515625 2.40625 -38.734375 C 2.40625 -41.273438 2.25 -44.128906 1.9375 -47.296875 C 5.632812 -47.160156 11.914062 -47.09375 20.78125 -47.09375 C 29.59375 -47.09375 35.847656 -47.160156 39.546875 -47.296875 Z M 39.546875 -47.296875 "/></g></g></g><g fill="#e3e6e3" fill-opacity="1"><g transform="translate(158.314218, 369.000001)"><g><path d="M 42.21875 -2.8125 C 41.375 -1.601562 40.40625 -0.675781 39.3125 -0.03125 C 38.21875 0.613281 36.914062 0.9375 35.40625 0.9375 C 31.664062 0.9375 29.367188 -0.753906 28.515625 -4.140625 L 26.453125 -12.484375 C 25.828125 -14.984375 24.898438 -16.65625 23.671875 -17.5 C 22.453125 -18.34375 20.640625 -18.765625 18.234375 -18.765625 L 14.421875 -18.765625 L 14.421875 -7.078125 C 14.421875 -5.390625 14.554688 -4.164062 14.828125 -3.40625 C 15.097656 -2.644531 15.597656 -2.128906 16.328125 -1.859375 C 17.066406 -1.597656 18.238281 -1.421875 19.84375 -1.328125 L 19.84375 0 C 17.789062 -0.132812 14.960938 -0.203125 11.359375 -0.203125 C 7.523438 -0.203125 4.675781 -0.132812 2.8125 0 L 2.8125 -1.328125 C 4.40625 -1.421875 5.570312 -1.597656 6.3125 -1.859375 C 7.050781 -2.128906 7.550781 -2.644531 7.8125 -3.40625 C 8.082031 -4.164062 8.21875 -5.390625 8.21875 -7.078125 L 8.21875 -33.53125 C 8.21875 -35.21875 8.082031 -36.441406 7.8125 -37.203125 C 7.550781 -37.960938 7.050781 -38.472656 6.3125 -38.734375 C 5.570312 -39.003906 4.40625 -39.1875 2.8125 -39.28125 L 2.8125 -40.609375 C 4.675781 -40.472656 7.390625 -40.40625 10.953125 -40.40625 L 17.765625 -40.484375 C 18.523438 -40.523438 19.394531 -40.546875 20.375 -40.546875 C 25.363281 -40.546875 29.179688 -39.609375 31.828125 -37.734375 C 34.472656 -35.867188 35.796875 -33.441406 35.796875 -30.453125 C 35.796875 -27.867188 34.757812 -25.507812 32.6875 -23.375 C 30.625 -21.238281 27.234375 -19.878906 22.515625 -19.296875 C 23.398438 -19.210938 24.15625 -19.125 24.78125 -19.03125 C 27.144531 -18.675781 29.015625 -17.960938 30.390625 -16.890625 C 31.773438 -15.828125 32.753906 -14.113281 33.328125 -11.75 L 34.796875 -5.671875 C 35.148438 -4.117188 35.539062 -3.019531 35.96875 -2.375 C 36.394531 -1.726562 36.941406 -1.40625 37.609375 -1.40625 C 38.722656 -1.40625 39.945312 -2.160156 41.28125 -3.671875 Z M 18.703125 -39.28125 C 17.503906 -39.28125 16.601562 -39.125 16 -38.8125 C 15.394531 -38.5 14.976562 -37.941406 14.75 -37.140625 C 14.53125 -36.335938 14.421875 -35.132812 14.421875 -33.53125 L 14.421875 -20.109375 L 18.90625 -20.109375 C 22.820312 -20.109375 25.503906 -20.941406 26.953125 -22.609375 C 28.398438 -24.273438 29.125 -26.644531 29.125 -29.71875 C 29.125 -32.925781 28.3125 -35.320312 26.6875 -36.90625 C 25.0625 -38.488281 22.398438 -39.28125 18.703125 -39.28125 Z M 18.703125 -39.28125 "/></g></g></g><g fill="#e3e6e3" fill-opacity="1"><g transform="translate(196.654962, 369.000001)"><g><path d="M 36.734375 -5.609375 C 37.941406 -2.847656 39.476562 -1.421875 41.34375 -1.328125 L 41.34375 0 C 39.5625 -0.132812 37.179688 -0.203125 34.203125 -0.203125 C 30.367188 -0.203125 27.519531 -0.132812 25.65625 0 L 25.65625 -1.328125 C 27.300781 -1.421875 28.507812 -1.644531 29.28125 -2 C 30.0625 -2.351562 30.453125 -2.957031 30.453125 -3.8125 C 30.453125 -4.519531 30.144531 -5.566406 29.53125 -6.953125 L 26.125 -14.5625 L 9.890625 -14.5625 L 7.609375 -9.546875 C 6.859375 -7.816406 6.484375 -6.394531 6.484375 -5.28125 C 6.484375 -4.125 6.894531 -3.222656 7.71875 -2.578125 C 8.539062 -1.929688 9.863281 -1.515625 11.6875 -1.328125 L 11.6875 0 C 10.351562 -0.132812 8.328125 -0.203125 5.609375 -0.203125 C 2.890625 -0.203125 0.953125 -0.132812 -0.203125 0 L -0.203125 -1.328125 C 1.003906 -1.640625 2.03125 -2.316406 2.875 -3.359375 C 3.71875 -4.410156 4.519531 -5.804688 5.28125 -7.546875 L 20.03125 -40.953125 L 21.109375 -40.953125 Z M 25.578125 -15.890625 L 18.03125 -32.859375 L 10.421875 -15.890625 Z M 25.578125 -15.890625 "/></g></g></g><g fill="#e3e6e3" fill-opacity="1"><g transform="translate(234.46133, 369.000001)"><g><path d="M 17.09375 -41.546875 C 19.050781 -41.546875 20.597656 -41.332031 21.734375 -40.90625 C 22.878906 -40.488281 24.050781 -39.878906 25.25 -39.078125 C 26.226562 -38.453125 26.984375 -38.140625 27.515625 -38.140625 C 27.921875 -38.140625 28.234375 -38.375 28.453125 -38.84375 C 28.679688 -39.3125 28.859375 -40.054688 28.984375 -41.078125 L 30.53125 -41.078125 C 30.300781 -38.765625 30.1875 -34.671875 30.1875 -28.796875 L 28.65625 -28.796875 C 28.382812 -31.992188 27.347656 -34.707031 25.546875 -36.9375 C 23.742188 -39.164062 21.128906 -40.28125 17.703125 -40.28125 C 15.335938 -40.28125 13.382812 -39.65625 11.84375 -38.40625 C 10.3125 -37.15625 9.546875 -35.578125 9.546875 -33.671875 C 9.546875 -32.285156 9.890625 -31.078125 10.578125 -30.046875 C 11.273438 -29.023438 12.164062 -28.144531 13.25 -27.40625 C 14.34375 -26.675781 15.894531 -25.78125 17.90625 -24.71875 L 20.109375 -23.515625 C 22.867188 -22.046875 25.082031 -20.726562 26.75 -19.5625 C 28.414062 -18.40625 29.757812 -17.082031 30.78125 -15.59375 C 31.8125 -14.101562 32.328125 -12.378906 32.328125 -10.421875 C 32.328125 -6.816406 31.023438 -4.019531 28.421875 -2.03125 C 25.816406 -0.0507812 22.554688 0.9375 18.640625 0.9375 C 16.503906 0.9375 14.753906 0.710938 13.390625 0.265625 C 12.035156 -0.179688 10.734375 -0.78125 9.484375 -1.53125 C 8.503906 -2.15625 7.75 -2.46875 7.21875 -2.46875 C 6.8125 -2.46875 6.492188 -2.234375 6.265625 -1.765625 C 6.046875 -1.296875 5.875 -0.550781 5.75 0.46875 L 4.203125 0.46875 C 4.378906 -1.71875 4.46875 -6.617188 4.46875 -14.234375 L 6.015625 -14.234375 C 6.328125 -10.085938 7.4375 -6.742188 9.34375 -4.203125 C 11.257812 -1.671875 14.203125 -0.40625 18.171875 -0.40625 C 20.398438 -0.40625 22.328125 -1.035156 23.953125 -2.296875 C 25.578125 -3.566406 26.390625 -5.453125 26.390625 -7.953125 C 26.390625 -9.421875 25.960938 -10.722656 25.109375 -11.859375 C 24.265625 -12.992188 23.128906 -14.003906 21.703125 -14.890625 C 20.285156 -15.785156 18.304688 -16.898438 15.765625 -18.234375 C 12.109375 -20.109375 9.320312 -21.976562 7.40625 -23.84375 C 5.5 -25.71875 4.546875 -28.144531 4.546875 -31.125 C 4.546875 -34.414062 5.757812 -36.972656 8.1875 -38.796875 C 10.613281 -40.628906 13.582031 -41.546875 17.09375 -41.546875 Z M 17.09375 -41.546875 "/></g></g></g><g fill="#e3e6e3" fill-opacity="1"><g transform="translate(266.857148, 369.000001)"><g><path d="M 39.875 -40.609375 C 39.5625 -37.671875 39.40625 -35.046875 39.40625 -32.734375 C 39.40625 -30.410156 39.472656 -28.582031 39.609375 -27.25 L 38.078125 -27.25 C 37.804688 -30.363281 37.378906 -32.742188 36.796875 -34.390625 C 36.222656 -36.046875 35.289062 -37.238281 34 -37.96875 C 32.707031 -38.707031 30.859375 -39.078125 28.453125 -39.078125 L 24.1875 -39.078125 L 24.1875 -7.75 C 24.1875 -5.875 24.363281 -4.515625 24.71875 -3.671875 C 25.070312 -2.828125 25.691406 -2.25 26.578125 -1.9375 C 27.472656 -1.625 28.921875 -1.421875 30.921875 -1.328125 L 30.921875 0 C 28.609375 -0.132812 25.335938 -0.203125 21.109375 -0.203125 C 16.648438 -0.203125 13.351562 -0.132812 11.21875 0 L 11.21875 -1.328125 C 13.226562 -1.421875 14.675781 -1.625 15.5625 -1.9375 C 16.457031 -2.25 17.082031 -2.828125 17.4375 -3.671875 C 17.789062 -4.515625 17.96875 -5.875 17.96875 -7.75 L 17.96875 -39.078125 L 13.6875 -39.078125 C 11.289062 -39.078125 9.445312 -38.707031 8.15625 -37.96875 C 6.863281 -37.238281 5.925781 -36.046875 5.34375 -34.390625 C 4.757812 -32.742188 4.335938 -30.363281 4.078125 -27.25 L 2.53125 -27.25 C 2.664062 -28.675781 2.734375 -30.503906 2.734375 -32.734375 C 2.734375 -35.046875 2.578125 -37.671875 2.265625 -40.609375 C 5.960938 -40.472656 12.242188 -40.40625 21.109375 -40.40625 C 29.921875 -40.40625 36.175781 -40.472656 39.875 -40.609375 Z M 39.875 -40.609375 "/></g></g></g><g fill="#e3e6e3" fill-opacity="1"><g transform="translate(305.665481, 369.000001)"><g><path d="M 24.109375 -41.546875 C 28.210938 -41.546875 31.8125 -40.734375 34.90625 -39.109375 C 38 -37.484375 40.390625 -35.097656 42.078125 -31.953125 C 43.773438 -28.816406 44.625 -25.066406 44.625 -20.703125 C 44.625 -16.429688 43.742188 -12.65625 41.984375 -9.375 C 40.222656 -6.101562 37.78125 -3.566406 34.65625 -1.765625 C 31.539062 0.0351562 28.003906 0.9375 24.046875 0.9375 C 19.953125 0.9375 16.351562 0.125 13.25 -1.5 C 10.15625 -3.125 7.765625 -5.503906 6.078125 -8.640625 C 4.390625 -11.785156 3.546875 -15.539062 3.546875 -19.90625 C 3.546875 -24.175781 4.421875 -27.945312 6.171875 -31.21875 C 7.929688 -34.5 10.367188 -37.039062 13.484375 -38.84375 C 16.609375 -40.644531 20.148438 -41.546875 24.109375 -41.546875 Z M 23.84375 -40.34375 C 21.125 -40.34375 18.726562 -39.484375 16.65625 -37.765625 C 14.59375 -36.054688 13.003906 -33.675781 11.890625 -30.625 C 10.773438 -27.570312 10.21875 -24.085938 10.21875 -20.171875 C 10.21875 -16.210938 10.835938 -12.71875 12.078125 -9.6875 C 13.328125 -6.65625 15.019531 -4.328125 17.15625 -2.703125 C 19.300781 -1.078125 21.6875 -0.265625 24.3125 -0.265625 C 27.03125 -0.265625 29.421875 -1.117188 31.484375 -2.828125 C 33.554688 -4.546875 35.148438 -6.929688 36.265625 -9.984375 C 37.378906 -13.035156 37.9375 -16.519531 37.9375 -20.4375 C 37.9375 -24.40625 37.3125 -27.898438 36.0625 -30.921875 C 34.820312 -33.953125 33.128906 -36.28125 30.984375 -37.90625 C 28.847656 -39.53125 26.46875 -40.34375 23.84375 -40.34375 Z M 23.84375 -40.34375 "/></g></g></g><g fill="#e3e6e3" fill-opacity="1"><g transform="translate(350.485532, 369.000001)"><g><path d="M 42.21875 -2.8125 C 41.375 -1.601562 40.40625 -0.675781 39.3125 -0.03125 C 38.21875 0.613281 36.914062 0.9375 35.40625 0.9375 C 31.664062 0.9375 29.367188 -0.753906 28.515625 -4.140625 L 26.453125 -12.484375 C 25.828125 -14.984375 24.898438 -16.65625 23.671875 -17.5 C 22.453125 -18.34375 20.640625 -18.765625 18.234375 -18.765625 L 14.421875 -18.765625 L 14.421875 -7.078125 C 14.421875 -5.390625 14.554688 -4.164062 14.828125 -3.40625 C 15.097656 -2.644531 15.597656 -2.128906 16.328125 -1.859375 C 17.066406 -1.597656 18.238281 -1.421875 19.84375 -1.328125 L 19.84375 0 C 17.789062 -0.132812 14.960938 -0.203125 11.359375 -0.203125 C 7.523438 -0.203125 4.675781 -0.132812 2.8125 0 L 2.8125 -1.328125 C 4.40625 -1.421875 5.570312 -1.597656 6.3125 -1.859375 C 7.050781 -2.128906 7.550781 -2.644531 7.8125 -3.40625 C 8.082031 -4.164062 8.21875 -5.390625 8.21875 -7.078125 L 8.21875 -33.53125 C 8.21875 -35.21875 8.082031 -36.441406 7.8125 -37.203125 C 7.550781 -37.960938 7.050781 -38.472656 6.3125 -38.734375 C 5.570312 -39.003906 4.40625 -39.1875 2.8125 -39.28125 L 2.8125 -40.609375 C 4.675781 -40.472656 7.390625 -40.40625 10.953125 -40.40625 L 17.765625 -40.484375 C 18.523438 -40.523438 19.394531 -40.546875 20.375 -40.546875 C 25.363281 -40.546875 29.179688 -39.609375 31.828125 -37.734375 C 34.472656 -35.867188 35.796875 -33.441406 35.796875 -30.453125 C 35.796875 -27.867188 34.757812 -25.507812 32.6875 -23.375 C 30.625 -21.238281 27.234375 -19.878906 22.515625 -19.296875 C 23.398438 -19.210938 24.15625 -19.125 24.78125 -19.03125 C 27.144531 -18.675781 29.015625 -17.960938 30.390625 -16.890625 C 31.773438 -15.828125 32.753906 -14.113281 33.328125 -11.75 L 34.796875 -5.671875 C 35.148438 -4.117188 35.539062 -3.019531 35.96875 -2.375 C 36.394531 -1.726562 36.941406 -1.40625 37.609375 -1.40625 C 38.722656 -1.40625 39.945312 -2.160156 41.28125 -3.671875 Z M 18.703125 -39.28125 C 17.503906 -39.28125 16.601562 -39.125 16 -38.8125 C 15.394531 -38.5 14.976562 -37.941406 14.75 -37.140625 C 14.53125 -36.335938 14.421875 -35.132812 14.421875 -33.53125 L 14.421875 -20.109375 L 18.90625 -20.109375 C 22.820312 -20.109375 25.503906 -20.941406 26.953125 -22.609375 C 28.398438 -24.273438 29.125 -26.644531 29.125 -29.71875 C 29.125 -32.925781 28.3125 -35.320312 26.6875 -36.90625 C 25.0625 -38.488281 22.398438 -39.28125 18.703125 -39.28125 Z M 18.703125 -39.28125 "/></g></g></g><g fill="#e3e6e3" fill-opacity="1"><g transform="translate(388.826281, 369.000001)"><g><path d="M 43.421875 -39.28125 C 41.859375 -39.1875 40.695312 -38.945312 39.9375 -38.5625 C 39.1875 -38.1875 38.675781 -37.566406 38.40625 -36.703125 C 38.132812 -35.835938 38 -34.554688 38 -32.859375 L 38 0.328125 L 36.46875 0.328125 L 9.75 -36.671875 L 9.75 -7.75 C 9.75 -6.007812 9.894531 -4.71875 10.1875 -3.875 C 10.476562 -3.03125 11.046875 -2.414062 11.890625 -2.03125 C 12.734375 -1.65625 14.046875 -1.421875 15.828125 -1.328125 L 15.828125 0 C 14.222656 -0.132812 11.953125 -0.203125 9.015625 -0.203125 C 6.347656 -0.203125 4.28125 -0.132812 2.8125 0 L 2.8125 -1.328125 C 4.363281 -1.421875 5.519531 -1.65625 6.28125 -2.03125 C 7.039062 -2.414062 7.550781 -3.039062 7.8125 -3.90625 C 8.082031 -4.769531 8.21875 -6.050781 8.21875 -7.75 L 8.21875 -33.53125 C 8.21875 -35.21875 8.082031 -36.441406 7.8125 -37.203125 C 7.550781 -37.960938 7.050781 -38.472656 6.3125 -38.734375 C 5.570312 -39.003906 4.40625 -39.1875 2.8125 -39.28125 L 2.8125 -40.609375 C 4.28125 -40.472656 6.347656 -40.40625 9.015625 -40.40625 C 11.421875 -40.40625 13.46875 -40.472656 15.15625 -40.609375 L 36.46875 -10.953125 L 36.46875 -32.859375 C 36.46875 -34.597656 36.320312 -35.890625 36.03125 -36.734375 C 35.75 -37.578125 35.179688 -38.1875 34.328125 -38.5625 C 33.484375 -38.945312 32.171875 -39.1875 30.390625 -39.28125 L 30.390625 -40.609375 C 31.992188 -40.472656 34.265625 -40.40625 37.203125 -40.40625 C 39.878906 -40.40625 41.953125 -40.472656 43.421875 -40.609375 Z M 43.421875 -39.28125 "/></g></g></g><g fill="#e3e6e3" fill-opacity="1"><g transform="translate(431.241631, 369.000001)"><g><path d="M 24.109375 -41.546875 C 28.210938 -41.546875 31.8125 -40.734375 34.90625 -39.109375 C 38 -37.484375 40.390625 -35.097656 42.078125 -31.953125 C 43.773438 -28.816406 44.625 -25.066406 44.625 -20.703125 C 44.625 -16.429688 43.742188 -12.65625 41.984375 -9.375 C 40.222656 -6.101562 37.78125 -3.566406 34.65625 -1.765625 C 31.539062 0.0351562 28.003906 0.9375 24.046875 0.9375 C 19.953125 0.9375 16.351562 0.125 13.25 -1.5 C 10.15625 -3.125 7.765625 -5.503906 6.078125 -8.640625 C 4.390625 -11.785156 3.546875 -15.539062 3.546875 -19.90625 C 3.546875 -24.175781 4.421875 -27.945312 6.171875 -31.21875 C 7.929688 -34.5 10.367188 -37.039062 13.484375 -38.84375 C 16.609375 -40.644531 20.148438 -41.546875 24.109375 -41.546875 Z M 23.84375 -40.34375 C 21.125 -40.34375 18.726562 -39.484375 16.65625 -37.765625 C 14.59375 -36.054688 13.003906 -33.675781 11.890625 -30.625 C 10.773438 -27.570312 10.21875 -24.085938 10.21875 -20.171875 C 10.21875 -16.210938 10.835938 -12.71875 12.078125 -9.6875 C 13.328125 -6.65625 15.019531 -4.328125 17.15625 -2.703125 C 19.300781 -1.078125 21.6875 -0.265625 24.3125 -0.265625 C 27.03125 -0.265625 29.421875 -1.117188 31.484375 -2.828125 C 33.554688 -4.546875 35.148438 -6.929688 36.265625 -9.984375 C 37.378906 -13.035156 37.9375 -16.519531 37.9375 -20.4375 C 37.9375 -24.40625 37.3125 -27.898438 36.0625 -30.921875 C 34.820312 -33.953125 33.128906 -36.28125 30.984375 -37.90625 C 28.847656 -39.53125 26.46875 -40.34375 23.84375 -40.34375 Z M 23.84375 -40.34375 "/></g></g></g><g fill="#e3e6e3" fill-opacity="1"><g transform="translate(476.061682, 369.000001)"><g><path d="M 17.09375 -41.546875 C 19.050781 -41.546875 20.597656 -41.332031 21.734375 -40.90625 C 22.878906 -40.488281 24.050781 -39.878906 25.25 -39.078125 C 26.226562 -38.453125 26.984375 -38.140625 27.515625 -38.140625 C 27.921875 -38.140625 28.234375 -38.375 28.453125 -38.84375 C 28.679688 -39.3125 28.859375 -40.054688 28.984375 -41.078125 L 30.53125 -41.078125 C 30.300781 -38.765625 30.1875 -34.671875 30.1875 -28.796875 L 28.65625 -28.796875 C 28.382812 -31.992188 27.347656 -34.707031 25.546875 -36.9375 C 23.742188 -39.164062 21.128906 -40.28125 17.703125 -40.28125 C 15.335938 -40.28125 13.382812 -39.65625 11.84375 -38.40625 C 10.3125 -37.15625 9.546875 -35.578125 9.546875 -33.671875 C 9.546875 -32.285156 9.890625 -31.078125 10.578125 -30.046875 C 11.273438 -29.023438 12.164062 -28.144531 13.25 -27.40625 C 14.34375 -26.675781 15.894531 -25.78125 17.90625 -24.71875 L 20.109375 -23.515625 C 22.867188 -22.046875 25.082031 -20.726562 26.75 -19.5625 C 28.414062 -18.40625 29.757812 -17.082031 30.78125 -15.59375 C 31.8125 -14.101562 32.328125 -12.378906 32.328125 -10.421875 C 32.328125 -6.816406 31.023438 -4.019531 28.421875 -2.03125 C 25.816406 -0.0507812 22.554688 0.9375 18.640625 0.9375 C 16.503906 0.9375 14.753906 0.710938 13.390625 0.265625 C 12.035156 -0.179688 10.734375 -0.78125 9.484375 -1.53125 C 8.503906 -2.15625 7.75 -2.46875 7.21875 -2.46875 C 6.8125 -2.46875 6.492188 -2.234375 6.265625 -1.765625 C 6.046875 -1.296875 5.875 -0.550781 5.75 0.46875 L 4.203125 0.46875 C 4.378906 -1.71875 4.46875 -6.617188 4.46875 -14.234375 L 6.015625 -14.234375 C 6.328125 -10.085938 7.4375 -6.742188 9.34375 -4.203125 C 11.257812 -1.671875 14.203125 -0.40625 18.171875 -0.40625 C 20.398438 -0.40625 22.328125 -1.035156 23.953125 -2.296875 C 25.578125 -3.566406 26.390625 -5.453125 26.390625 -7.953125 C 26.390625 -9.421875 25.960938 -10.722656 25.109375 -11.859375 C 24.265625 -12.992188 23.128906 -14.003906 21.703125 -14.890625 C 20.285156 -15.785156 18.304688 -16.898438 15.765625 -18.234375 C 12.109375 -20.109375 9.320312 -21.976562 7.40625 -23.84375 C 5.5 -25.71875 4.546875 -28.144531 4.546875 -31.125 C 4.546875 -34.414062 5.757812 -36.972656 8.1875 -38.796875 C 10.613281 -40.628906 13.582031 -41.546875 17.09375 -41.546875 Z M 17.09375 -41.546875 "/></g></g></g><g fill="#e3e6e3" fill-opacity="1"><g transform="translate(521.749446, 369.000001)"><g><path d="M 21.046875 -40.609375 C 27.992188 -40.609375 33.210938 -38.925781 36.703125 -35.5625 C 40.203125 -32.207031 41.953125 -27.300781 41.953125 -20.84375 C 41.953125 -16.65625 41.101562 -12.988281 39.40625 -9.84375 C 37.71875 -6.707031 35.257812 -4.28125 32.03125 -2.5625 C 28.800781 -0.851562 24.9375 0 20.4375 0 L 16.5625 -0.0625 C 14.070312 -0.15625 12.25 -0.203125 11.09375 -0.203125 C 7.4375 -0.203125 4.675781 -0.132812 2.8125 0 L 2.8125 -1.328125 C 4.40625 -1.421875 5.570312 -1.597656 6.3125 -1.859375 C 7.050781 -2.128906 7.550781 -2.644531 7.8125 -3.40625 C 8.082031 -4.164062 8.21875 -5.390625 8.21875 -7.078125 L 8.21875 -33.53125 C 8.21875 -35.21875 8.082031 -36.441406 7.8125 -37.203125 C 7.550781 -37.960938 7.050781 -38.472656 6.3125 -38.734375 C 5.570312 -39.003906 4.40625 -39.1875 2.8125 -39.28125 L 2.8125 -40.609375 C 4.363281 -40.472656 6.519531 -40.40625 9.28125 -40.40625 L 14.96875 -40.484375 C 17.988281 -40.566406 20.015625 -40.609375 21.046875 -40.609375 Z M 19.375 -39.40625 C 17.988281 -39.40625 16.953125 -39.25 16.265625 -38.9375 C 15.578125 -38.625 15.097656 -38.066406 14.828125 -37.265625 C 14.554688 -36.460938 14.421875 -35.265625 14.421875 -33.671875 L 14.421875 -6.953125 C 14.421875 -5.347656 14.554688 -4.144531 14.828125 -3.34375 C 15.097656 -2.539062 15.578125 -1.984375 16.265625 -1.671875 C 16.953125 -1.359375 18.007812 -1.203125 19.4375 -1.203125 C 23.488281 -1.203125 26.671875 -1.925781 28.984375 -3.375 C 31.304688 -4.820312 32.929688 -6.945312 33.859375 -9.75 C 34.796875 -12.550781 35.265625 -16.160156 35.265625 -20.578125 C 35.265625 -27.078125 34.0625 -31.835938 31.65625 -34.859375 C 29.25 -37.890625 25.15625 -39.40625 19.375 -39.40625 Z M 19.375 -39.40625 "/></g></g></g><g fill="#e3e6e3" fill-opacity="1"><g transform="translate(564.031197, 369.000001)"><g><path d="M 35.671875 -7.875 C 35.671875 -5.5625 35.828125 -2.9375 36.140625 0 C 33.242188 -0.132812 28.367188 -0.203125 21.515625 -0.203125 C 13.273438 -0.203125 7.039062 -0.132812 2.8125 0 L 2.8125 -1.328125 C 4.40625 -1.421875 5.570312 -1.597656 6.3125 -1.859375 C 7.050781 -2.128906 7.550781 -2.644531 7.8125 -3.40625 C 8.082031 -4.164062 8.21875 -5.390625 8.21875 -7.078125 L 8.21875 -33.53125 C 8.21875 -35.21875 8.082031 -36.441406 7.8125 -37.203125 C 7.550781 -37.960938 7.050781 -38.472656 6.3125 -38.734375 C 5.570312 -39.003906 4.40625 -39.1875 2.8125 -39.28125 L 2.8125 -40.609375 C 7.039062 -40.472656 13.273438 -40.40625 21.515625 -40.40625 C 27.742188 -40.40625 32.171875 -40.472656 34.796875 -40.609375 C 34.484375 -37.941406 34.328125 -35.535156 34.328125 -33.390625 C 34.328125 -31.660156 34.394531 -30.28125 34.53125 -29.25 L 33 -29.25 C 32.6875 -32.90625 31.914062 -35.457031 30.6875 -36.90625 C 29.46875 -38.351562 27.476562 -39.078125 24.71875 -39.078125 L 19.84375 -39.078125 C 18.238281 -39.078125 17.066406 -38.953125 16.328125 -38.703125 C 15.597656 -38.460938 15.097656 -37.960938 14.828125 -37.203125 C 14.554688 -36.441406 14.421875 -35.21875 14.421875 -33.53125 L 14.421875 -21.109375 L 19.96875 -21.109375 C 21.394531 -21.109375 22.484375 -21.472656 23.234375 -22.203125 C 23.992188 -22.941406 24.507812 -23.742188 24.78125 -24.609375 C 25.050781 -25.484375 25.296875 -26.585938 25.515625 -27.921875 L 27.046875 -27.921875 C 26.921875 -26.410156 26.859375 -24.765625 26.859375 -22.984375 L 26.859375 -20.4375 C 26.859375 -18.695312 26.988281 -16.203125 27.25 -12.953125 L 25.71875 -12.953125 C 25.445312 -15.097656 24.929688 -16.769531 24.171875 -17.96875 C 23.421875 -19.164062 22.019531 -19.765625 19.96875 -19.765625 L 14.421875 -19.765625 L 14.421875 -7.078125 C 14.421875 -5.390625 14.554688 -4.164062 14.828125 -3.40625 C 15.097656 -2.644531 15.597656 -2.140625 16.328125 -1.890625 C 17.066406 -1.648438 18.238281 -1.53125 19.84375 -1.53125 L 24.71875 -1.53125 C 26.9375 -1.53125 28.691406 -1.882812 29.984375 -2.59375 C 31.273438 -3.3125 32.253906 -4.460938 32.921875 -6.046875 C 33.597656 -7.628906 34.066406 -9.84375 34.328125 -12.6875 L 35.875 -12.6875 C 35.738281 -11.488281 35.671875 -9.882812 35.671875 -7.875 Z M 35.671875 -7.875 "/></g></g></g><g fill="#e3e6e3" fill-opacity="1"><g transform="translate(613.726797, 369.000001)"><g><path d="M 19.84375 -39.28125 C 18.238281 -39.1875 17.066406 -39.003906 16.328125 -38.734375 C 15.597656 -38.472656 15.097656 -37.960938 14.828125 -37.203125 C 14.554688 -36.441406 14.421875 -35.21875 14.421875 -33.53125 L 14.421875 -7.078125 C 14.421875 -5.390625 14.554688 -4.164062 14.828125 -3.40625 C 15.097656 -2.644531 15.597656 -2.140625 16.328125 -1.890625 C 17.066406 -1.648438 18.238281 -1.53125 19.84375 -1.53125 L 24.046875 -1.53125 C 27.117188 -1.53125 29.507812 -2.441406 31.21875 -4.265625 C 32.9375 -6.097656 33.972656 -9.128906 34.328125 -13.359375 L 35.875 -13.359375 C 35.738281 -11.972656 35.671875 -10.144531 35.671875 -7.875 C 35.671875 -5.5625 35.828125 -2.9375 36.140625 0 C 33.242188 -0.132812 28.367188 -0.203125 21.515625 -0.203125 C 13.273438 -0.203125 7.039062 -0.132812 2.8125 0 L 2.8125 -1.328125 C 4.40625 -1.421875 5.570312 -1.597656 6.3125 -1.859375 C 7.050781 -2.128906 7.550781 -2.644531 7.8125 -3.40625 C 8.082031 -4.164062 8.21875 -5.390625 8.21875 -7.078125 L 8.21875 -33.53125 C 8.21875 -35.21875 8.082031 -36.441406 7.8125 -37.203125 C 7.550781 -37.960938 7.050781 -38.472656 6.3125 -38.734375 C 5.570312 -39.003906 4.40625 -39.1875 2.8125 -39.28125 L 2.8125 -40.609375 C 4.675781 -40.472656 7.523438 -40.40625 11.359375 -40.40625 C 14.921875 -40.40625 17.75 -40.472656 19.84375 -40.609375 Z M 19.84375 -39.28125 "/></g></g></g><g fill="#e3e6e3" fill-opacity="1"><g transform="translate(648.660892, 369.000001)"><g><path d="M 36.734375 -5.609375 C 37.941406 -2.847656 39.476562 -1.421875 41.34375 -1.328125 L 41.34375 0 C 39.5625 -0.132812 37.179688 -0.203125 34.203125 -0.203125 C 30.367188 -0.203125 27.519531 -0.132812 25.65625 0 L 25.65625 -1.328125 C 27.300781 -1.421875 28.507812 -1.644531 29.28125 -2 C 30.0625 -2.351562 30.453125 -2.957031 30.453125 -3.8125 C 30.453125 -4.519531 30.144531 -5.566406 29.53125 -6.953125 L 26.125 -14.5625 L 9.890625 -14.5625 L 7.609375 -9.546875 C 6.859375 -7.816406 6.484375 -6.394531 6.484375 -5.28125 C 6.484375 -4.125 6.894531 -3.222656 7.71875 -2.578125 C 8.539062 -1.929688 9.863281 -1.515625 11.6875 -1.328125 L 11.6875 0 C 10.351562 -0.132812 8.328125 -0.203125 5.609375 -0.203125 C 2.890625 -0.203125 0.953125 -0.132812 -0.203125 0 L -0.203125 -1.328125 C 1.003906 -1.640625 2.03125 -2.316406 2.875 -3.359375 C 3.71875 -4.410156 4.519531 -5.804688 5.28125 -7.546875 L 20.03125 -40.953125 L 21.109375 -40.953125 Z M 25.578125 -15.890625 L 18.03125 -32.859375 L 10.421875 -15.890625 Z M 25.578125 -15.890625 "/></g></g></g><g fill="#e3e6e3" fill-opacity="1"><g transform="translate(240.337916, 431.999998)"><g><path d="M 23.515625 -41.546875 C 25.691406 -41.546875 27.535156 -41.175781 29.046875 -40.4375 C 30.566406 -39.707031 32.148438 -38.628906 33.796875 -37.203125 C 34.285156 -36.804688 34.707031 -36.609375 35.0625 -36.609375 C 35.957031 -36.609375 36.539062 -37.941406 36.8125 -40.609375 L 38.34375 -40.609375 C 38.164062 -37.941406 38.078125 -33.265625 38.078125 -26.578125 L 36.53125 -26.578125 C 36.09375 -28.898438 35.648438 -30.613281 35.203125 -31.71875 C 34.753906 -32.832031 34.085938 -33.972656 33.203125 -35.140625 C 31.953125 -36.785156 30.457031 -38.039062 28.71875 -38.90625 C 26.988281 -39.78125 25.164062 -40.21875 23.25 -40.21875 C 20.613281 -40.21875 18.328125 -39.414062 16.390625 -37.8125 C 14.460938 -36.207031 12.960938 -33.890625 11.890625 -30.859375 C 10.816406 -27.828125 10.28125 -24.265625 10.28125 -20.171875 C 10.28125 -15.984375 10.867188 -12.410156 12.046875 -9.453125 C 13.234375 -6.492188 14.835938 -4.242188 16.859375 -2.703125 C 18.890625 -1.171875 21.175781 -0.40625 23.71875 -0.40625 C 25.675781 -0.40625 27.554688 -0.835938 29.359375 -1.703125 C 31.160156 -2.566406 32.6875 -3.828125 33.9375 -5.484375 C 34.78125 -6.640625 35.410156 -7.863281 35.828125 -9.15625 C 36.253906 -10.445312 36.644531 -12.289062 37 -14.6875 L 38.546875 -14.6875 C 38.546875 -7.695312 38.632812 -2.800781 38.8125 0 L 37.265625 0 C 37.140625 -1.382812 36.941406 -2.394531 36.671875 -3.03125 C 36.398438 -3.675781 36.046875 -4 35.609375 -4 C 35.242188 -4 34.796875 -3.800781 34.265625 -3.40625 C 32.578125 -1.976562 30.929688 -0.894531 29.328125 -0.15625 C 27.722656 0.570312 25.765625 0.9375 23.453125 0.9375 C 19.484375 0.9375 16.003906 0.125 13.015625 -1.5 C 10.035156 -3.125 7.722656 -5.503906 6.078125 -8.640625 C 4.429688 -11.785156 3.609375 -15.539062 3.609375 -19.90625 C 3.609375 -24.175781 4.453125 -27.945312 6.140625 -31.21875 C 7.835938 -34.5 10.195312 -37.039062 13.21875 -38.84375 C 16.25 -40.644531 19.679688 -41.546875 23.515625 -41.546875 Z M 23.515625 -41.546875 "/></g></g></g><g fill="#e3e6e3" fill-opacity="1"><g transform="translate(279.947798, 431.999998)"><g><path d="M 24.109375 -41.546875 C 28.210938 -41.546875 31.8125 -40.734375 34.90625 -39.109375 C 38 -37.484375 40.390625 -35.097656 42.078125 -31.953125 C 43.773438 -28.816406 44.625 -25.066406 44.625 -20.703125 C 44.625 -16.429688 43.742188 -12.65625 41.984375 -9.375 C 40.222656 -6.101562 37.78125 -3.566406 34.65625 -1.765625 C 31.539062 0.0351562 28.003906 0.9375 24.046875 0.9375 C 19.953125 0.9375 16.351562 0.125 13.25 -1.5 C 10.15625 -3.125 7.765625 -5.503906 6.078125 -8.640625 C 4.390625 -11.785156 3.546875 -15.539062 3.546875 -19.90625 C 3.546875 -24.175781 4.421875 -27.945312 6.171875 -31.21875 C 7.929688 -34.5 10.367188 -37.039062 13.484375 -38.84375 C 16.609375 -40.644531 20.148438 -41.546875 24.109375 -41.546875 Z M 23.84375 -40.34375 C 21.125 -40.34375 18.726562 -39.484375 16.65625 -37.765625 C 14.59375 -36.054688 13.003906 -33.675781 11.890625 -30.625 C 10.773438 -27.570312 10.21875 -24.085938 10.21875 -20.171875 C 10.21875 -16.210938 10.835938 -12.71875 12.078125 -9.6875 C 13.328125 -6.65625 15.019531 -4.328125 17.15625 -2.703125 C 19.300781 -1.078125 21.6875 -0.265625 24.3125 -0.265625 C 27.03125 -0.265625 29.421875 -1.117188 31.484375 -2.828125 C 33.554688 -4.546875 35.148438 -6.929688 36.265625 -9.984375 C 37.378906 -13.035156 37.9375 -16.519531 37.9375 -20.4375 C 37.9375 -24.40625 37.3125 -27.898438 36.0625 -30.921875 C 34.820312 -33.953125 33.128906 -36.28125 30.984375 -37.90625 C 28.847656 -39.53125 26.46875 -40.34375 23.84375 -40.34375 Z M 23.84375 -40.34375 "/></g></g></g><g fill="#e3e6e3" fill-opacity="1"><g transform="translate(324.767843, 431.999998)"><g><path d="M 43.421875 -39.28125 C 41.859375 -39.1875 40.695312 -38.945312 39.9375 -38.5625 C 39.1875 -38.1875 38.675781 -37.566406 38.40625 -36.703125 C 38.132812 -35.835938 38 -34.554688 38 -32.859375 L 38 0.328125 L 36.46875 0.328125 L 9.75 -36.671875 L 9.75 -7.75 C 9.75 -6.007812 9.894531 -4.71875 10.1875 -3.875 C 10.476562 -3.03125 11.046875 -2.414062 11.890625 -2.03125 C 12.734375 -1.65625 14.046875 -1.421875 15.828125 -1.328125 L 15.828125 0 C 14.222656 -0.132812 11.953125 -0.203125 9.015625 -0.203125 C 6.347656 -0.203125 4.28125 -0.132812 2.8125 0 L 2.8125 -1.328125 C 4.363281 -1.421875 5.519531 -1.65625 6.28125 -2.03125 C 7.039062 -2.414062 7.550781 -3.039062 7.8125 -3.90625 C 8.082031 -4.769531 8.21875 -6.050781 8.21875 -7.75 L 8.21875 -33.53125 C 8.21875 -35.21875 8.082031 -36.441406 7.8125 -37.203125 C 7.550781 -37.960938 7.050781 -38.472656 6.3125 -38.734375 C 5.570312 -39.003906 4.40625 -39.1875 2.8125 -39.28125 L 2.8125 -40.609375 C 4.28125 -40.472656 6.347656 -40.40625 9.015625 -40.40625 C 11.421875 -40.40625 13.46875 -40.472656 15.15625 -40.609375 L 36.46875 -10.953125 L 36.46875 -32.859375 C 36.46875 -34.597656 36.320312 -35.890625 36.03125 -36.734375 C 35.75 -37.578125 35.179688 -38.1875 34.328125 -38.5625 C 33.484375 -38.945312 32.171875 -39.1875 30.390625 -39.28125 L 30.390625 -40.609375 C 31.992188 -40.472656 34.265625 -40.40625 37.203125 -40.40625 C 39.878906 -40.40625 41.953125 -40.472656 43.421875 -40.609375 Z M 43.421875 -39.28125 "/></g></g></g><g fill="#e3e6e3" fill-opacity="1"><g transform="translate(367.183193, 431.999998)"><g><path d="M 21.046875 -40.609375 C 27.992188 -40.609375 33.210938 -38.925781 36.703125 -35.5625 C 40.203125 -32.207031 41.953125 -27.300781 41.953125 -20.84375 C 41.953125 -16.65625 41.101562 -12.988281 39.40625 -9.84375 C 37.71875 -6.707031 35.257812 -4.28125 32.03125 -2.5625 C 28.800781 -0.851562 24.9375 0 20.4375 0 L 16.5625 -0.0625 C 14.070312 -0.15625 12.25 -0.203125 11.09375 -0.203125 C 7.4375 -0.203125 4.675781 -0.132812 2.8125 0 L 2.8125 -1.328125 C 4.40625 -1.421875 5.570312 -1.597656 6.3125 -1.859375 C 7.050781 -2.128906 7.550781 -2.644531 7.8125 -3.40625 C 8.082031 -4.164062 8.21875 -5.390625 8.21875 -7.078125 L 8.21875 -33.53125 C 8.21875 -35.21875 8.082031 -36.441406 7.8125 -37.203125 C 7.550781 -37.960938 7.050781 -38.472656 6.3125 -38.734375 C 5.570312 -39.003906 4.40625 -39.1875 2.8125 -39.28125 L 2.8125 -40.609375 C 4.363281 -40.472656 6.519531 -40.40625 9.28125 -40.40625 L 14.96875 -40.484375 C 17.988281 -40.566406 20.015625 -40.609375 21.046875 -40.609375 Z M 19.375 -39.40625 C 17.988281 -39.40625 16.953125 -39.25 16.265625 -38.9375 C 15.578125 -38.625 15.097656 -38.066406 14.828125 -37.265625 C 14.554688 -36.460938 14.421875 -35.265625 14.421875 -33.671875 L 14.421875 -6.953125 C 14.421875 -5.347656 14.554688 -4.144531 14.828125 -3.34375 C 15.097656 -2.539062 15.578125 -1.984375 16.265625 -1.671875 C 16.953125 -1.359375 18.007812 -1.203125 19.4375 -1.203125 C 23.488281 -1.203125 26.671875 -1.925781 28.984375 -3.375 C 31.304688 -4.820312 32.929688 -6.945312 33.859375 -9.75 C 34.796875 -12.550781 35.265625 -16.160156 35.265625 -20.578125 C 35.265625 -27.078125 34.0625 -31.835938 31.65625 -34.859375 C 29.25 -37.890625 25.15625 -39.40625 19.375 -39.40625 Z M 19.375 -39.40625 "/></g></g></g><g fill="#e3e6e3" fill-opacity="1"><g transform="translate(409.464944, 431.999998)"><g><path d="M 42.28125 -39.28125 C 40.71875 -39.1875 39.554688 -38.945312 38.796875 -38.5625 C 38.046875 -38.1875 37.535156 -37.566406 37.265625 -36.703125 C 37.003906 -35.835938 36.875 -34.554688 36.875 -32.859375 L 36.875 -18.109375 C 36.875 -15.035156 36.660156 -12.414062 36.234375 -10.25 C 35.816406 -8.09375 35.117188 -6.210938 34.140625 -4.609375 C 33.066406 -2.921875 31.515625 -1.570312 29.484375 -0.5625 C 27.460938 0.4375 25.160156 0.9375 22.578125 0.9375 C 17.992188 0.9375 14.472656 -0.0390625 12.015625 -2 C 10.054688 -3.738281 8.742188 -5.71875 8.078125 -7.9375 C 7.410156 -10.164062 7.078125 -13.488281 7.078125 -17.90625 L 7.078125 -33.53125 C 7.078125 -35.21875 6.941406 -36.441406 6.671875 -37.203125 C 6.410156 -37.960938 5.910156 -38.472656 5.171875 -38.734375 C 4.441406 -39.003906 3.273438 -39.1875 1.671875 -39.28125 L 1.671875 -40.609375 C 3.535156 -40.472656 6.382812 -40.40625 10.21875 -40.40625 C 13.78125 -40.40625 16.609375 -40.472656 18.703125 -40.609375 L 18.703125 -39.28125 C 17.097656 -39.1875 15.925781 -39.003906 15.1875 -38.734375 C 14.457031 -38.472656 13.957031 -37.960938 13.6875 -37.203125 C 13.425781 -36.441406 13.296875 -35.21875 13.296875 -33.53125 L 13.296875 -16.765625 C 13.296875 -13.472656 13.515625 -10.742188 13.953125 -8.578125 C 14.398438 -6.421875 15.347656 -4.6875 16.796875 -3.375 C 18.242188 -2.0625 20.367188 -1.40625 23.171875 -1.40625 C 27.628906 -1.40625 30.769531 -2.804688 32.59375 -5.609375 C 34.414062 -8.410156 35.328125 -12.328125 35.328125 -17.359375 L 35.328125 -32.859375 C 35.328125 -35.265625 34.894531 -36.910156 34.03125 -37.796875 C 33.164062 -38.691406 31.570312 -39.1875 29.25 -39.28125 L 29.25 -40.609375 C 30.851562 -40.472656 33.125 -40.40625 36.0625 -40.40625 C 38.738281 -40.40625 40.8125 -40.472656 42.28125 -40.609375 Z M 42.28125 -39.28125 "/></g></g></g><g fill="#e3e6e3" fill-opacity="1"><g transform="translate(450.076774, 431.999998)"><g><path d="M 23.515625 -41.546875 C 25.691406 -41.546875 27.535156 -41.175781 29.046875 -40.4375 C 30.566406 -39.707031 32.148438 -38.628906 33.796875 -37.203125 C 34.285156 -36.804688 34.707031 -36.609375 35.0625 -36.609375 C 35.957031 -36.609375 36.539062 -37.941406 36.8125 -40.609375 L 38.34375 -40.609375 C 38.164062 -37.941406 38.078125 -33.265625 38.078125 -26.578125 L 36.53125 -26.578125 C 36.09375 -28.898438 35.648438 -30.613281 35.203125 -31.71875 C 34.753906 -32.832031 34.085938 -33.972656 33.203125 -35.140625 C 31.953125 -36.785156 30.457031 -38.039062 28.71875 -38.90625 C 26.988281 -39.78125 25.164062 -40.21875 23.25 -40.21875 C 20.613281 -40.21875 18.328125 -39.414062 16.390625 -37.8125 C 14.460938 -36.207031 12.960938 -33.890625 11.890625 -30.859375 C 10.816406 -27.828125 10.28125 -24.265625 10.28125 -20.171875 C 10.28125 -15.984375 10.867188 -12.410156 12.046875 -9.453125 C 13.234375 -6.492188 14.835938 -4.242188 16.859375 -2.703125 C 18.890625 -1.171875 21.175781 -0.40625 23.71875 -0.40625 C 25.675781 -0.40625 27.554688 -0.835938 29.359375 -1.703125 C 31.160156 -2.566406 32.6875 -3.828125 33.9375 -5.484375 C 34.78125 -6.640625 35.410156 -7.863281 35.828125 -9.15625 C 36.253906 -10.445312 36.644531 -12.289062 37 -14.6875 L 38.546875 -14.6875 C 38.546875 -7.695312 38.632812 -2.800781 38.8125 0 L 37.265625 0 C 37.140625 -1.382812 36.941406 -2.394531 36.671875 -3.03125 C 36.398438 -3.675781 36.046875 -4 35.609375 -4 C 35.242188 -4 34.796875 -3.800781 34.265625 -3.40625 C 32.578125 -1.976562 30.929688 -0.894531 29.328125 -0.15625 C 27.722656 0.570312 25.765625 0.9375 23.453125 0.9375 C 19.484375 0.9375 16.003906 0.125 13.015625 -1.5 C 10.035156 -3.125 7.722656 -5.503906 6.078125 -8.640625 C 4.429688 -11.785156 3.609375 -15.539062 3.609375 -19.90625 C 3.609375 -24.175781 4.453125 -27.945312 6.140625 -31.21875 C 7.835938 -34.5 10.195312 -37.039062 13.21875 -38.84375 C 16.25 -40.644531 19.679688 -41.546875 23.515625 -41.546875 Z M 23.515625 -41.546875 "/></g></g></g><g fill="#e3e6e3" fill-opacity="1"><g transform="translate(489.68665, 431.999998)"><g><path d="M 39.875 -40.609375 C 39.5625 -37.671875 39.40625 -35.046875 39.40625 -32.734375 C 39.40625 -30.410156 39.472656 -28.582031 39.609375 -27.25 L 38.078125 -27.25 C 37.804688 -30.363281 37.378906 -32.742188 36.796875 -34.390625 C 36.222656 -36.046875 35.289062 -37.238281 34 -37.96875 C 32.707031 -38.707031 30.859375 -39.078125 28.453125 -39.078125 L 24.1875 -39.078125 L 24.1875 -7.75 C 24.1875 -5.875 24.363281 -4.515625 24.71875 -3.671875 C 25.070312 -2.828125 25.691406 -2.25 26.578125 -1.9375 C 27.472656 -1.625 28.921875 -1.421875 30.921875 -1.328125 L 30.921875 0 C 28.609375 -0.132812 25.335938 -0.203125 21.109375 -0.203125 C 16.648438 -0.203125 13.351562 -0.132812 11.21875 0 L 11.21875 -1.328125 C 13.226562 -1.421875 14.675781 -1.625 15.5625 -1.9375 C 16.457031 -2.25 17.082031 -2.828125 17.4375 -3.671875 C 17.789062 -4.515625 17.96875 -5.875 17.96875 -7.75 L 17.96875 -39.078125 L 13.6875 -39.078125 C 11.289062 -39.078125 9.445312 -38.707031 8.15625 -37.96875 C 6.863281 -37.238281 5.925781 -36.046875 5.34375 -34.390625 C 4.757812 -32.742188 4.335938 -30.363281 4.078125 -27.25 L 2.53125 -27.25 C 2.664062 -28.675781 2.734375 -30.503906 2.734375 -32.734375 C 2.734375 -35.046875 2.578125 -37.671875 2.265625 -40.609375 C 5.960938 -40.472656 12.242188 -40.40625 21.109375 -40.40625 C 29.921875 -40.40625 36.175781 -40.472656 39.875 -40.609375 Z M 39.875 -40.609375 "/></g></g></g><g fill="#e3e6e3" fill-opacity="1"><g transform="translate(528.494982, 431.999998)"><g><path d="M 36.734375 -5.609375 C 37.941406 -2.847656 39.476562 -1.421875 41.34375 -1.328125 L 41.34375 0 C 39.5625 -0.132812 37.179688 -0.203125 34.203125 -0.203125 C 30.367188 -0.203125 27.519531 -0.132812 25.65625 0 L 25.65625 -1.328125 C 27.300781 -1.421875 28.507812 -1.644531 29.28125 -2 C 30.0625 -2.351562 30.453125 -2.957031 30.453125 -3.8125 C 30.453125 -4.519531 30.144531 -5.566406 29.53125 -6.953125 L 26.125 -14.5625 L 9.890625 -14.5625 L 7.609375 -9.546875 C 6.859375 -7.816406 6.484375 -6.394531 6.484375 -5.28125 C 6.484375 -4.125 6.894531 -3.222656 7.71875 -2.578125 C 8.539062 -1.929688 9.863281 -1.515625 11.6875 -1.328125 L 11.6875 0 C 10.351562 -0.132812 8.328125 -0.203125 5.609375 -0.203125 C 2.890625 -0.203125 0.953125 -0.132812 -0.203125 0 L -0.203125 -1.328125 C 1.003906 -1.640625 2.03125 -2.316406 2.875 -3.359375 C 3.71875 -4.410156 4.519531 -5.804688 5.28125 -7.546875 L 20.03125 -40.953125 L 21.109375 -40.953125 Z M 25.578125 -15.890625 L 18.03125 -32.859375 L 10.421875 -15.890625 Z M 25.578125 -15.890625 "/></g></g></g><g fill="#e3e6e3" fill-opacity="1"><g transform="translate(205.111355, 494.999995)"><g><path d="M 36.734375 -5.609375 C 37.941406 -2.847656 39.476562 -1.421875 41.34375 -1.328125 L 41.34375 0 C 39.5625 -0.132812 37.179688 -0.203125 34.203125 -0.203125 C 30.367188 -0.203125 27.519531 -0.132812 25.65625 0 L 25.65625 -1.328125 C 27.300781 -1.421875 28.507812 -1.644531 29.28125 -2 C 30.0625 -2.351562 30.453125 -2.957031 30.453125 -3.8125 C 30.453125 -4.519531 30.144531 -5.566406 29.53125 -6.953125 L 26.125 -14.5625 L 9.890625 -14.5625 L 7.609375 -9.546875 C 6.859375 -7.816406 6.484375 -6.394531 6.484375 -5.28125 C 6.484375 -4.125 6.894531 -3.222656 7.71875 -2.578125 C 8.539062 -1.929688 9.863281 -1.515625 11.6875 -1.328125 L 11.6875 0 C 10.351562 -0.132812 8.328125 -0.203125 5.609375 -0.203125 C 2.890625 -0.203125 0.953125 -0.132812 -0.203125 0 L -0.203125 -1.328125 C 1.003906 -1.640625 2.03125 -2.316406 2.875 -3.359375 C 3.71875 -4.410156 4.519531 -5.804688 5.28125 -7.546875 L 20.03125 -40.953125 L 21.109375 -40.953125 Z M 25.578125 -15.890625 L 18.03125 -32.859375 L 10.421875 -15.890625 Z M 25.578125 -15.890625 "/></g></g></g><g fill="#e3e6e3" fill-opacity="1"><g transform="translate(242.917729, 494.999995)"><g><path d="M 19.84375 -39.28125 C 18.238281 -39.1875 17.066406 -39.003906 16.328125 -38.734375 C 15.597656 -38.472656 15.097656 -37.960938 14.828125 -37.203125 C 14.554688 -36.441406 14.421875 -35.21875 14.421875 -33.53125 L 14.421875 -7.078125 C 14.421875 -5.390625 14.554688 -4.164062 14.828125 -3.40625 C 15.097656 -2.644531 15.597656 -2.140625 16.328125 -1.890625 C 17.066406 -1.648438 18.238281 -1.53125 19.84375 -1.53125 L 24.046875 -1.53125 C 27.117188 -1.53125 29.507812 -2.441406 31.21875 -4.265625 C 32.9375 -6.097656 33.972656 -9.128906 34.328125 -13.359375 L 35.875 -13.359375 C 35.738281 -11.972656 35.671875 -10.144531 35.671875 -7.875 C 35.671875 -5.5625 35.828125 -2.9375 36.140625 0 C 33.242188 -0.132812 28.367188 -0.203125 21.515625 -0.203125 C 13.273438 -0.203125 7.039062 -0.132812 2.8125 0 L 2.8125 -1.328125 C 4.40625 -1.421875 5.570312 -1.597656 6.3125 -1.859375 C 7.050781 -2.128906 7.550781 -2.644531 7.8125 -3.40625 C 8.082031 -4.164062 8.21875 -5.390625 8.21875 -7.078125 L 8.21875 -33.53125 C 8.21875 -35.21875 8.082031 -36.441406 7.8125 -37.203125 C 7.550781 -37.960938 7.050781 -38.472656 6.3125 -38.734375 C 5.570312 -39.003906 4.40625 -39.1875 2.8125 -39.28125 L 2.8125 -40.609375 C 4.675781 -40.472656 7.523438 -40.40625 11.359375 -40.40625 C 14.921875 -40.40625 17.75 -40.472656 19.84375 -40.609375 Z M 19.84375 -39.28125 "/></g></g></g><g fill="#e3e6e3" fill-opacity="1"><g transform="translate(277.851842, 494.999995)"><g><path d="M 19.84375 -39.28125 C 18.238281 -39.1875 17.066406 -39.003906 16.328125 -38.734375 C 15.597656 -38.472656 15.097656 -37.960938 14.828125 -37.203125 C 14.554688 -36.441406 14.421875 -35.21875 14.421875 -33.53125 L 14.421875 -7.078125 C 14.421875 -5.390625 14.554688 -4.164062 14.828125 -3.40625 C 15.097656 -2.644531 15.597656 -2.128906 16.328125 -1.859375 C 17.066406 -1.597656 18.238281 -1.421875 19.84375 -1.328125 L 19.84375 0 C 17.789062 -0.132812 14.960938 -0.203125 11.359375 -0.203125 C 7.523438 -0.203125 4.675781 -0.132812 2.8125 0 L 2.8125 -1.328125 C 4.40625 -1.421875 5.570312 -1.597656 6.3125 -1.859375 C 7.050781 -2.128906 7.550781 -2.644531 7.8125 -3.40625 C 8.082031 -4.164062 8.21875 -5.390625 8.21875 -7.078125 L 8.21875 -33.53125 C 8.21875 -35.21875 8.082031 -36.441406 7.8125 -37.203125 C 7.550781 -37.960938 7.050781 -38.472656 6.3125 -38.734375 C 5.570312 -39.003906 4.40625 -39.1875 2.8125 -39.28125 L 2.8125 -40.609375 C 4.675781 -40.472656 7.523438 -40.40625 11.359375 -40.40625 C 14.921875 -40.40625 17.75 -40.472656 19.84375 -40.609375 Z M 19.84375 -39.28125 "/></g></g></g><g fill="#e3e6e3" fill-opacity="1"><g transform="translate(297.155489, 494.999995)"><g><path d="M 54.03125 -39.28125 C 52.4375 -39.1875 51.269531 -39.003906 50.53125 -38.734375 C 49.789062 -38.472656 49.285156 -37.960938 49.015625 -37.203125 C 48.753906 -36.441406 48.625 -35.21875 48.625 -33.53125 L 48.625 -7.078125 C 48.625 -5.390625 48.753906 -4.164062 49.015625 -3.40625 C 49.285156 -2.644531 49.789062 -2.128906 50.53125 -1.859375 C 51.269531 -1.597656 52.4375 -1.421875 54.03125 -1.328125 L 54.03125 0 C 51.988281 -0.132812 49.164062 -0.203125 45.5625 -0.203125 C 41.726562 -0.203125 38.875 -0.132812 37 0 L 37 -1.328125 C 38.601562 -1.421875 39.769531 -1.597656 40.5 -1.859375 C 41.238281 -2.128906 41.742188 -2.644531 42.015625 -3.40625 C 42.285156 -4.164062 42.421875 -5.390625 42.421875 -7.078125 L 42.421875 -36.40625 L 26.3125 0.328125 L 25.25 0.328125 L 9.75 -36.34375 L 9.75 -7.75 C 9.75 -6.007812 9.894531 -4.71875 10.1875 -3.875 C 10.476562 -3.03125 11.046875 -2.414062 11.890625 -2.03125 C 12.734375 -1.65625 14.046875 -1.421875 15.828125 -1.328125 L 15.828125 0 C 14.222656 -0.132812 11.953125 -0.203125 9.015625 -0.203125 C 6.347656 -0.203125 4.28125 -0.132812 2.8125 0 L 2.8125 -1.328125 C 4.363281 -1.421875 5.519531 -1.65625 6.28125 -2.03125 C 7.039062 -2.414062 7.550781 -3.039062 7.8125 -3.90625 C 8.082031 -4.769531 8.21875 -6.050781 8.21875 -7.75 L 8.21875 -33.53125 C 8.21875 -35.21875 8.082031 -36.441406 7.8125 -37.203125 C 7.550781 -37.960938 7.050781 -38.472656 6.3125 -38.734375 C 5.570312 -39.003906 4.40625 -39.1875 2.8125 -39.28125 L 2.8125 -40.609375 C 4.28125 -40.472656 6.347656 -40.40625 9.015625 -40.40625 C 11.148438 -40.40625 13.039062 -40.472656 14.6875 -40.609375 L 28.125 -8.078125 L 42.421875 -40.40625 L 45.5625 -40.40625 C 49.164062 -40.40625 51.988281 -40.472656 54.03125 -40.609375 Z M 54.03125 -39.28125 "/></g></g></g><g fill="#e3e6e3" fill-opacity="1"><g transform="translate(350.659116, 494.999995)"><g><path d="M 35.671875 -7.875 C 35.671875 -5.5625 35.828125 -2.9375 36.140625 0 C 33.242188 -0.132812 28.367188 -0.203125 21.515625 -0.203125 C 13.273438 -0.203125 7.039062 -0.132812 2.8125 0 L 2.8125 -1.328125 C 4.40625 -1.421875 5.570312 -1.597656 6.3125 -1.859375 C 7.050781 -2.128906 7.550781 -2.644531 7.8125 -3.40625 C 8.082031 -4.164062 8.21875 -5.390625 8.21875 -7.078125 L 8.21875 -33.53125 C 8.21875 -35.21875 8.082031 -36.441406 7.8125 -37.203125 C 7.550781 -37.960938 7.050781 -38.472656 6.3125 -38.734375 C 5.570312 -39.003906 4.40625 -39.1875 2.8125 -39.28125 L 2.8125 -40.609375 C 7.039062 -40.472656 13.273438 -40.40625 21.515625 -40.40625 C 27.742188 -40.40625 32.171875 -40.472656 34.796875 -40.609375 C 34.484375 -37.941406 34.328125 -35.535156 34.328125 -33.390625 C 34.328125 -31.660156 34.394531 -30.28125 34.53125 -29.25 L 33 -29.25 C 32.6875 -32.90625 31.914062 -35.457031 30.6875 -36.90625 C 29.46875 -38.351562 27.476562 -39.078125 24.71875 -39.078125 L 19.84375 -39.078125 C 18.238281 -39.078125 17.066406 -38.953125 16.328125 -38.703125 C 15.597656 -38.460938 15.097656 -37.960938 14.828125 -37.203125 C 14.554688 -36.441406 14.421875 -35.21875 14.421875 -33.53125 L 14.421875 -21.109375 L 19.96875 -21.109375 C 21.394531 -21.109375 22.484375 -21.472656 23.234375 -22.203125 C 23.992188 -22.941406 24.507812 -23.742188 24.78125 -24.609375 C 25.050781 -25.484375 25.296875 -26.585938 25.515625 -27.921875 L 27.046875 -27.921875 C 26.921875 -26.410156 26.859375 -24.765625 26.859375 -22.984375 L 26.859375 -20.4375 C 26.859375 -18.695312 26.988281 -16.203125 27.25 -12.953125 L 25.71875 -12.953125 C 25.445312 -15.097656 24.929688 -16.769531 24.171875 -17.96875 C 23.421875 -19.164062 22.019531 -19.765625 19.96875 -19.765625 L 14.421875 -19.765625 L 14.421875 -7.078125 C 14.421875 -5.390625 14.554688 -4.164062 14.828125 -3.40625 C 15.097656 -2.644531 15.597656 -2.140625 16.328125 -1.890625 C 17.066406 -1.648438 18.238281 -1.53125 19.84375 -1.53125 L 24.71875 -1.53125 C 26.9375 -1.53125 28.691406 -1.882812 29.984375 -2.59375 C 31.273438 -3.3125 32.253906 -4.460938 32.921875 -6.046875 C 33.597656 -7.628906 34.066406 -9.84375 34.328125 -12.6875 L 35.875 -12.6875 C 35.738281 -11.488281 35.671875 -9.882812 35.671875 -7.875 Z M 35.671875 -7.875 "/></g></g></g><g fill="#e3e6e3" fill-opacity="1"><g transform="translate(387.062747, 494.999995)"><g><path d="M 43.421875 -39.28125 C 41.859375 -39.1875 40.695312 -38.945312 39.9375 -38.5625 C 39.1875 -38.1875 38.675781 -37.566406 38.40625 -36.703125 C 38.132812 -35.835938 38 -34.554688 38 -32.859375 L 38 0.328125 L 36.46875 0.328125 L 9.75 -36.671875 L 9.75 -7.75 C 9.75 -6.007812 9.894531 -4.71875 10.1875 -3.875 C 10.476562 -3.03125 11.046875 -2.414062 11.890625 -2.03125 C 12.734375 -1.65625 14.046875 -1.421875 15.828125 -1.328125 L 15.828125 0 C 14.222656 -0.132812 11.953125 -0.203125 9.015625 -0.203125 C 6.347656 -0.203125 4.28125 -0.132812 2.8125 0 L 2.8125 -1.328125 C 4.363281 -1.421875 5.519531 -1.65625 6.28125 -2.03125 C 7.039062 -2.414062 7.550781 -3.039062 7.8125 -3.90625 C 8.082031 -4.769531 8.21875 -6.050781 8.21875 -7.75 L 8.21875 -33.53125 C 8.21875 -35.21875 8.082031 -36.441406 7.8125 -37.203125 C 7.550781 -37.960938 7.050781 -38.472656 6.3125 -38.734375 C 5.570312 -39.003906 4.40625 -39.1875 2.8125 -39.28125 L 2.8125 -40.609375 C 4.28125 -40.472656 6.347656 -40.40625 9.015625 -40.40625 C 11.421875 -40.40625 13.46875 -40.472656 15.15625 -40.609375 L 36.46875 -10.953125 L 36.46875 -32.859375 C 36.46875 -34.597656 36.320312 -35.890625 36.03125 -36.734375 C 35.75 -37.578125 35.179688 -38.1875 34.328125 -38.5625 C 33.484375 -38.945312 32.171875 -39.1875 30.390625 -39.28125 L 30.390625 -40.609375 C 31.992188 -40.472656 34.265625 -40.40625 37.203125 -40.40625 C 39.878906 -40.40625 41.953125 -40.472656 43.421875 -40.609375 Z M 43.421875 -39.28125 "/></g></g></g><g fill="#e3e6e3" fill-opacity="1"><g transform="translate(429.478096, 494.999995)"><g><path d="M 39.875 -40.609375 C 39.5625 -37.671875 39.40625 -35.046875 39.40625 -32.734375 C 39.40625 -30.410156 39.472656 -28.582031 39.609375 -27.25 L 38.078125 -27.25 C 37.804688 -30.363281 37.378906 -32.742188 36.796875 -34.390625 C 36.222656 -36.046875 35.289062 -37.238281 34 -37.96875 C 32.707031 -38.707031 30.859375 -39.078125 28.453125 -39.078125 L 24.1875 -39.078125 L 24.1875 -7.75 C 24.1875 -5.875 24.363281 -4.515625 24.71875 -3.671875 C 25.070312 -2.828125 25.691406 -2.25 26.578125 -1.9375 C 27.472656 -1.625 28.921875 -1.421875 30.921875 -1.328125 L 30.921875 0 C 28.609375 -0.132812 25.335938 -0.203125 21.109375 -0.203125 C 16.648438 -0.203125 13.351562 -0.132812 11.21875 0 L 11.21875 -1.328125 C 13.226562 -1.421875 14.675781 -1.625 15.5625 -1.9375 C 16.457031 -2.25 17.082031 -2.828125 17.4375 -3.671875 C 17.789062 -4.515625 17.96875 -5.875 17.96875 -7.75 L 17.96875 -39.078125 L 13.6875 -39.078125 C 11.289062 -39.078125 9.445312 -38.707031 8.15625 -37.96875 C 6.863281 -37.238281 5.925781 -36.046875 5.34375 -34.390625 C 4.757812 -32.742188 4.335938 -30.363281 4.078125 -27.25 L 2.53125 -27.25 C 2.664062 -28.675781 2.734375 -30.503906 2.734375 -32.734375 C 2.734375 -35.046875 2.578125 -37.671875 2.265625 -40.609375 C 5.960938 -40.472656 12.242188 -40.40625 21.109375 -40.40625 C 29.921875 -40.40625 36.175781 -40.472656 39.875 -40.609375 Z M 39.875 -40.609375 "/></g></g></g><g fill="#e3e6e3" fill-opacity="1"><g transform="translate(468.286428, 494.999995)"><g><path d="M 36.734375 -5.609375 C 37.941406 -2.847656 39.476562 -1.421875 41.34375 -1.328125 L 41.34375 0 C 39.5625 -0.132812 37.179688 -0.203125 34.203125 -0.203125 C 30.367188 -0.203125 27.519531 -0.132812 25.65625 0 L 25.65625 -1.328125 C 27.300781 -1.421875 28.507812 -1.644531 29.28125 -2 C 30.0625 -2.351562 30.453125 -2.957031 30.453125 -3.8125 C 30.453125 -4.519531 30.144531 -5.566406 29.53125 -6.953125 L 26.125 -14.5625 L 9.890625 -14.5625 L 7.609375 -9.546875 C 6.859375 -7.816406 6.484375 -6.394531 6.484375 -5.28125 C 6.484375 -4.125 6.894531 -3.222656 7.71875 -2.578125 C 8.539062 -1.929688 9.863281 -1.515625 11.6875 -1.328125 L 11.6875 0 C 10.351562 -0.132812 8.328125 -0.203125 5.609375 -0.203125 C 2.890625 -0.203125 0.953125 -0.132812 -0.203125 0 L -0.203125 -1.328125 C 1.003906 -1.640625 2.03125 -2.316406 2.875 -3.359375 C 3.71875 -4.410156 4.519531 -5.804688 5.28125 -7.546875 L 20.03125 -40.953125 L 21.109375 -40.953125 Z M 25.578125 -15.890625 L 18.03125 -32.859375 L 10.421875 -15.890625 Z M 25.578125 -15.890625 "/></g></g></g><g fill="#e3e6e3" fill-opacity="1"><g transform="translate(506.092808, 494.999995)"><g><path d="M 42.21875 -2.8125 C 41.375 -1.601562 40.40625 -0.675781 39.3125 -0.03125 C 38.21875 0.613281 36.914062 0.9375 35.40625 0.9375 C 31.664062 0.9375 29.367188 -0.753906 28.515625 -4.140625 L 26.453125 -12.484375 C 25.828125 -14.984375 24.898438 -16.65625 23.671875 -17.5 C 22.453125 -18.34375 20.640625 -18.765625 18.234375 -18.765625 L 14.421875 -18.765625 L 14.421875 -7.078125 C 14.421875 -5.390625 14.554688 -4.164062 14.828125 -3.40625 C 15.097656 -2.644531 15.597656 -2.128906 16.328125 -1.859375 C 17.066406 -1.597656 18.238281 -1.421875 19.84375 -1.328125 L 19.84375 0 C 17.789062 -0.132812 14.960938 -0.203125 11.359375 -0.203125 C 7.523438 -0.203125 4.675781 -0.132812 2.8125 0 L 2.8125 -1.328125 C 4.40625 -1.421875 5.570312 -1.597656 6.3125 -1.859375 C 7.050781 -2.128906 7.550781 -2.644531 7.8125 -3.40625 C 8.082031 -4.164062 8.21875 -5.390625 8.21875 -7.078125 L 8.21875 -33.53125 C 8.21875 -35.21875 8.082031 -36.441406 7.8125 -37.203125 C 7.550781 -37.960938 7.050781 -38.472656 6.3125 -38.734375 C 5.570312 -39.003906 4.40625 -39.1875 2.8125 -39.28125 L 2.8125 -40.609375 C 4.675781 -40.472656 7.390625 -40.40625 10.953125 -40.40625 L 17.765625 -40.484375 C 18.523438 -40.523438 19.394531 -40.546875 20.375 -40.546875 C 25.363281 -40.546875 29.179688 -39.609375 31.828125 -37.734375 C 34.472656 -35.867188 35.796875 -33.441406 35.796875 -30.453125 C 35.796875 -27.867188 34.757812 -25.507812 32.6875 -23.375 C 30.625 -21.238281 27.234375 -19.878906 22.515625 -19.296875 C 23.398438 -19.210938 24.15625 -19.125 24.78125 -19.03125 C 27.144531 -18.675781 29.015625 -17.960938 30.390625 -16.890625 C 31.773438 -15.828125 32.753906 -14.113281 33.328125 -11.75 L 34.796875 -5.671875 C 35.148438 -4.117188 35.539062 -3.019531 35.96875 -2.375 C 36.394531 -1.726562 36.941406 -1.40625 37.609375 -1.40625 C 38.722656 -1.40625 39.945312 -2.160156 41.28125 -3.671875 Z M 18.703125 -39.28125 C 17.503906 -39.28125 16.601562 -39.125 16 -38.8125 C 15.394531 -38.5 14.976562 -37.941406 14.75 -37.140625 C 14.53125 -36.335938 14.421875 -35.132812 14.421875 -33.53125 L 14.421875 -20.109375 L 18.90625 -20.109375 C 22.820312 -20.109375 25.503906 -20.941406 26.953125 -22.609375 C 28.398438 -24.273438 29.125 -26.644531 29.125 -29.71875 C 29.125 -32.925781 28.3125 -35.320312 26.6875 -36.90625 C 25.0625 -38.488281 22.398438 -39.28125 18.703125 -39.28125 Z M 18.703125 -39.28125 "/></g></g></g><g fill="#e3e6e3" fill-opacity="1"><g transform="translate(544.433557, 494.999995)"><g><path d="M 19.84375 -39.28125 C 18.238281 -39.1875 17.066406 -39.003906 16.328125 -38.734375 C 15.597656 -38.472656 15.097656 -37.960938 14.828125 -37.203125 C 14.554688 -36.441406 14.421875 -35.21875 14.421875 -33.53125 L 14.421875 -7.078125 C 14.421875 -5.390625 14.554688 -4.164062 14.828125 -3.40625 C 15.097656 -2.644531 15.597656 -2.128906 16.328125 -1.859375 C 17.066406 -1.597656 18.238281 -1.421875 19.84375 -1.328125 L 19.84375 0 C 17.789062 -0.132812 14.960938 -0.203125 11.359375 -0.203125 C 7.523438 -0.203125 4.675781 -0.132812 2.8125 0 L 2.8125 -1.328125 C 4.40625 -1.421875 5.570312 -1.597656 6.3125 -1.859375 C 7.050781 -2.128906 7.550781 -2.644531 7.8125 -3.40625 C 8.082031 -4.164062 8.21875 -5.390625 8.21875 -7.078125 L 8.21875 -33.53125 C 8.21875 -35.21875 8.082031 -36.441406 7.8125 -37.203125 C 7.550781 -37.960938 7.050781 -38.472656 6.3125 -38.734375 C 5.570312 -39.003906 4.40625 -39.1875 2.8125 -39.28125 L 2.8125 -40.609375 C 4.675781 -40.472656 7.523438 -40.40625 11.359375 -40.40625 C 14.921875 -40.40625 17.75 -40.472656 19.84375 -40.609375 Z M 19.84375 -39.28125 "/></g></g></g><g fill="#e3e6e3" fill-opacity="1"><g transform="translate(563.737199, 494.999995)"><g><path d="M 36.734375 -5.609375 C 37.941406 -2.847656 39.476562 -1.421875 41.34375 -1.328125 L 41.34375 0 C 39.5625 -0.132812 37.179688 -0.203125 34.203125 -0.203125 C 30.367188 -0.203125 27.519531 -0.132812 25.65625 0 L 25.65625 -1.328125 C 27.300781 -1.421875 28.507812 -1.644531 29.28125 -2 C 30.0625 -2.351562 30.453125 -2.957031 30.453125 -3.8125 C 30.453125 -4.519531 30.144531 -5.566406 29.53125 -6.953125 L 26.125 -14.5625 L 9.890625 -14.5625 L 7.609375 -9.546875 C 6.859375 -7.816406 6.484375 -6.394531 6.484375 -5.28125 C 6.484375 -4.125 6.894531 -3.222656 7.71875 -2.578125 C 8.539062 -1.929688 9.863281 -1.515625 11.6875 -1.328125 L 11.6875 0 C 10.351562 -0.132812 8.328125 -0.203125 5.609375 -0.203125 C 2.890625 -0.203125 0.953125 -0.132812 -0.203125 0 L -0.203125 -1.328125 C 1.003906 -1.640625 2.03125 -2.316406 2.875 -3.359375 C 3.71875 -4.410156 4.519531 -5.804688 5.28125 -7.546875 L 20.03125 -40.953125 L 21.109375 -40.953125 Z M 25.578125 -15.890625 L 18.03125 -32.859375 L 10.421875 -15.890625 Z M 25.578125 -15.890625 "/></g></g></g></svg>