<svg xmlns="http://www.w3.org/2000/svg" xmlns:xlink="http://www.w3.org/1999/xlink" width="1080" zoomAndPan="magnify" viewBox="0 0 810 809.999993" height="1080" preserveAspectRatio="xMidYMid meet" version="1.0"><defs><g/></defs><rect x="-81" width="972" fill="#ffffff" y="-80.999999" height="971.999992" fill-opacity="1"/><rect x="-81" width="972" fill="#51877a" y="-80.999999" height="971.999992" fill-opacity="1"/><g fill="#e3e6e3" fill-opacity="1"><g transform="translate(209.284359, 399.75)"><g><path d="M 45.421875 -3.4375 C 44.359375 -1.875 43.300781 -0.75 42.25 -0.0625 C 41.195312 0.625 39.796875 0.96875 38.046875 0.96875 C 36.171875 0.96875 34.625 0.414062 33.40625 -0.6875 C 32.1875 -1.789062 31.28125 -3.71875 30.6875 -6.46875 L 29.171875 -13.34375 C 28.617188 -15.726562 28.101562 -17.5625 27.625 -18.84375 C 27.144531 -20.132812 26.421875 -21.171875 25.453125 -21.953125 C 24.492188 -22.734375 23.144531 -23.125 21.40625 -23.125 L 14.859375 -23.125 L 14.859375 -7.296875 C 14.859375 -5.546875 14.992188 -4.28125 15.265625 -3.5 C 15.546875 -2.726562 16.0625 -2.203125 16.8125 -1.921875 C 17.570312 -1.648438 18.78125 -1.46875 20.4375 -1.375 L 20.4375 0 C 18.320312 -0.132812 15.410156 -0.203125 11.703125 -0.203125 C 7.753906 -0.203125 4.816406 -0.132812 2.890625 0 L 2.890625 -1.375 C 4.546875 -1.46875 5.75 -1.648438 6.5 -1.921875 C 7.257812 -2.203125 7.773438 -2.726562 8.046875 -3.5 C 8.328125 -4.28125 8.46875 -5.546875 8.46875 -7.296875 L 8.46875 -41.421875 C 8.46875 -43.171875 8.328125 -44.429688 8.046875 -45.203125 C 7.773438 -45.984375 7.257812 -46.507812 6.5 -46.78125 C 5.75 -47.0625 4.546875 -47.25 2.890625 -47.34375 L 2.890625 -48.71875 C 4.816406 -48.582031 7.613281 -48.515625 11.28125 -48.515625 L 18.71875 -48.578125 C 19.59375 -48.628906 20.578125 -48.65625 21.671875 -48.65625 C 26.992188 -48.65625 31.085938 -47.539062 33.953125 -45.3125 C 36.828125 -43.082031 38.265625 -40.203125 38.265625 -36.671875 C 38.265625 -34.890625 37.835938 -33.09375 36.984375 -31.28125 C 36.140625 -29.46875 34.71875 -27.835938 32.71875 -26.390625 C 30.726562 -24.941406 28.125 -23.96875 24.90625 -23.46875 L 25.734375 -23.328125 C 28.765625 -22.828125 30.96875 -21.910156 32.34375 -20.578125 C 33.71875 -19.242188 34.726562 -17.132812 35.375 -14.25 L 37.09375 -7.21875 C 37.550781 -5.113281 38.03125 -3.644531 38.53125 -2.8125 C 39.039062 -1.988281 39.726562 -1.578125 40.59375 -1.578125 C 41.375 -1.578125 42.03125 -1.785156 42.5625 -2.203125 C 43.09375 -2.617188 43.703125 -3.285156 44.390625 -4.203125 Z M 19.953125 -47.34375 C 18.535156 -47.34375 17.46875 -47.179688 16.75 -46.859375 C 16.039062 -46.535156 15.546875 -45.960938 15.265625 -45.140625 C 14.992188 -44.316406 14.859375 -43.078125 14.859375 -41.421875 L 14.859375 -24.5 L 19.46875 -24.5 C 24.007812 -24.5 27.128906 -25.503906 28.828125 -27.515625 C 30.523438 -29.535156 31.375 -32.335938 31.375 -35.921875 C 31.375 -39.679688 30.476562 -42.523438 28.6875 -44.453125 C 26.90625 -46.378906 23.992188 -47.34375 19.953125 -47.34375 Z M 19.953125 -47.34375 "/></g></g></g><g fill="#e3e6e3" fill-opacity="1"><g transform="translate(250.426802, 399.75)"><g><path d="M 36.75 -8.125 C 36.75 -5.738281 36.910156 -3.03125 37.234375 0 C 34.242188 -0.132812 29.21875 -0.203125 22.15625 -0.203125 C 13.664062 -0.203125 7.242188 -0.132812 2.890625 0 L 2.890625 -1.375 C 4.546875 -1.46875 5.75 -1.648438 6.5 -1.921875 C 7.257812 -2.203125 7.773438 -2.726562 8.046875 -3.5 C 8.328125 -4.28125 8.46875 -5.546875 8.46875 -7.296875 L 8.46875 -34.546875 C 8.46875 -36.285156 8.328125 -37.546875 8.046875 -38.328125 C 7.773438 -39.109375 7.257812 -39.632812 6.5 -39.90625 C 5.75 -40.1875 4.546875 -40.375 2.890625 -40.46875 L 2.890625 -41.84375 C 7.242188 -41.695312 13.664062 -41.625 22.15625 -41.625 C 28.582031 -41.625 33.144531 -41.695312 35.84375 -41.84375 C 35.53125 -39.082031 35.375 -36.601562 35.375 -34.40625 C 35.375 -32.613281 35.441406 -31.191406 35.578125 -30.140625 L 34 -30.140625 C 33.675781 -33.898438 32.882812 -36.523438 31.625 -38.015625 C 30.363281 -39.503906 28.304688 -40.25 25.453125 -40.25 L 20.4375 -40.25 C 18.78125 -40.25 17.570312 -40.125 16.8125 -39.875 C 16.0625 -39.625 15.546875 -39.109375 15.265625 -38.328125 C 14.992188 -37.546875 14.859375 -36.285156 14.859375 -34.546875 L 14.859375 -21.75 L 20.578125 -21.75 C 22.046875 -21.75 23.164062 -22.125 23.9375 -22.875 C 24.71875 -23.632812 25.242188 -24.460938 25.515625 -25.359375 C 25.796875 -26.253906 26.050781 -27.390625 26.28125 -28.765625 L 27.875 -28.765625 C 27.726562 -27.203125 27.65625 -25.503906 27.65625 -23.671875 L 27.65625 -21.0625 C 27.65625 -19.269531 27.796875 -16.695312 28.078125 -13.34375 L 26.5 -13.34375 C 26.21875 -15.550781 25.6875 -17.273438 24.90625 -18.515625 C 24.125 -19.753906 22.679688 -20.375 20.578125 -20.375 L 14.859375 -20.375 L 14.859375 -7.296875 C 14.859375 -5.546875 14.992188 -4.28125 15.265625 -3.5 C 15.546875 -2.726562 16.0625 -2.210938 16.8125 -1.953125 C 17.570312 -1.703125 18.78125 -1.578125 20.4375 -1.578125 L 25.453125 -1.578125 C 27.753906 -1.578125 29.566406 -1.941406 30.890625 -2.671875 C 32.222656 -3.410156 33.234375 -4.59375 33.921875 -6.21875 C 34.609375 -7.851562 35.09375 -10.140625 35.375 -13.078125 L 36.953125 -13.078125 C 36.816406 -11.835938 36.75 -10.1875 36.75 -8.125 Z M 36.75 -8.125 "/></g></g></g><g fill="#e3e6e3" fill-opacity="1"><g transform="translate(287.922804, 399.75)"><g><path d="M 24.21875 -42.796875 C 26.789062 -42.796875 28.867188 -42.425781 30.453125 -41.6875 C 32.035156 -40.957031 33.71875 -39.835938 35.5 -38.328125 C 36.101562 -37.867188 36.566406 -37.640625 36.890625 -37.640625 C 37.753906 -37.640625 38.328125 -39.039062 38.609375 -41.84375 L 40.1875 -41.84375 C 40 -39.226562 39.90625 -34.640625 39.90625 -28.078125 L 38.328125 -28.078125 C 37.960938 -29.816406 37.515625 -31.351562 36.984375 -32.6875 C 36.460938 -34.019531 35.765625 -35.191406 34.890625 -36.203125 C 33.367188 -37.941406 31.78125 -39.269531 30.125 -40.1875 C 28.476562 -41.101562 26.460938 -41.5625 24.078125 -41.5625 C 21.328125 -41.5625 18.941406 -40.722656 16.921875 -39.046875 C 14.910156 -37.378906 13.351562 -34.984375 12.25 -31.859375 C 11.144531 -28.742188 10.59375 -25.070312 10.59375 -20.84375 C 10.59375 -13.832031 11.875 -8.671875 14.4375 -5.359375 C 17.007812 -2.054688 20.84375 -0.40625 25.9375 -0.40625 C 27.914062 -0.40625 29.679688 -0.59375 31.234375 -0.96875 C 32.066406 -1.144531 32.628906 -1.441406 32.921875 -1.859375 C 33.222656 -2.273438 33.375 -2.847656 33.375 -3.578125 L 33.375 -9.5 C 33.375 -11.425781 33.1875 -12.820312 32.8125 -13.6875 C 32.445312 -14.5625 31.804688 -15.160156 30.890625 -15.484375 C 29.972656 -15.804688 28.484375 -16.015625 26.421875 -16.109375 L 26.421875 -17.484375 C 28.898438 -17.335938 32.132812 -17.265625 36.125 -17.265625 C 39.25 -17.265625 41.632812 -17.335938 43.28125 -17.484375 L 43.28125 -16.109375 C 42.226562 -16.015625 41.472656 -15.828125 41.015625 -15.546875 C 40.554688 -15.273438 40.234375 -14.75 40.046875 -13.96875 C 39.867188 -13.1875 39.78125 -11.925781 39.78125 -10.1875 L 39.78125 0 L 38.390625 0 C 38.304688 -1.101562 37.960938 -1.65625 37.359375 -1.65625 C 37.085938 -1.65625 36.582031 -1.492188 35.84375 -1.171875 C 35.113281 -0.847656 34.613281 -0.640625 34.34375 -0.546875 C 31.40625 0.460938 28.398438 0.96875 25.328125 0.96875 C 18.441406 0.96875 13.117188 -0.875 9.359375 -4.5625 C 5.597656 -8.257812 3.71875 -13.4375 3.71875 -20.09375 C 3.71875 -24.675781 4.585938 -28.675781 6.328125 -32.09375 C 8.078125 -35.519531 10.5 -38.160156 13.59375 -40.015625 C 16.6875 -41.867188 20.226562 -42.796875 24.21875 -42.796875 Z M 24.21875 -42.796875 "/></g></g></g><g fill="#e3e6e3" fill-opacity="1"><g transform="translate(329.959657, 399.75)"><g><path d="M 43.5625 -40.46875 C 41.957031 -40.375 40.765625 -40.128906 39.984375 -39.734375 C 39.203125 -39.347656 38.671875 -38.707031 38.390625 -37.8125 C 38.117188 -36.914062 37.984375 -35.597656 37.984375 -33.859375 L 37.984375 -18.640625 C 37.984375 -15.484375 37.765625 -12.789062 37.328125 -10.5625 C 36.890625 -8.332031 36.164062 -6.394531 35.15625 -4.75 C 34.0625 -3.007812 32.46875 -1.617188 30.375 -0.578125 C 28.289062 0.453125 25.921875 0.96875 23.265625 0.96875 C 18.535156 0.96875 14.910156 -0.0390625 12.390625 -2.0625 C 10.367188 -3.851562 9.015625 -5.894531 8.328125 -8.1875 C 7.640625 -10.476562 7.296875 -13.894531 7.296875 -18.4375 L 7.296875 -34.546875 C 7.296875 -36.285156 7.15625 -37.546875 6.875 -38.328125 C 6.601562 -39.109375 6.085938 -39.632812 5.328125 -39.90625 C 4.578125 -40.1875 3.375 -40.375 1.71875 -40.46875 L 1.71875 -41.84375 C 3.644531 -41.695312 6.582031 -41.625 10.53125 -41.625 C 14.195312 -41.625 17.109375 -41.695312 19.265625 -41.84375 L 19.265625 -40.46875 C 17.617188 -40.375 16.414062 -40.1875 15.65625 -39.90625 C 14.894531 -39.632812 14.375 -39.109375 14.09375 -38.328125 C 13.820312 -37.546875 13.6875 -36.285156 13.6875 -34.546875 L 13.6875 -17.265625 C 13.6875 -13.878906 13.914062 -11.070312 14.375 -8.84375 C 14.832031 -6.613281 15.804688 -4.820312 17.296875 -3.46875 C 18.796875 -2.113281 20.988281 -1.4375 23.875 -1.4375 C 28.46875 -1.4375 31.703125 -2.878906 33.578125 -5.765625 C 35.460938 -8.660156 36.40625 -12.703125 36.40625 -17.890625 L 36.40625 -33.859375 C 36.40625 -36.335938 35.957031 -38.035156 35.0625 -38.953125 C 34.164062 -39.867188 32.523438 -40.375 30.140625 -40.46875 L 30.140625 -41.84375 C 31.785156 -41.695312 34.125 -41.625 37.15625 -41.625 C 39.90625 -41.625 42.039062 -41.695312 43.5625 -41.84375 Z M 43.5625 -40.46875 "/></g></g></g><g fill="#e3e6e3" fill-opacity="1"><g transform="translate(371.790111, 399.75)"><g><path d="M 20.4375 -40.46875 C 18.78125 -40.375 17.570312 -40.1875 16.8125 -39.90625 C 16.0625 -39.632812 15.546875 -39.109375 15.265625 -38.328125 C 14.992188 -37.546875 14.859375 -36.285156 14.859375 -34.546875 L 14.859375 -7.296875 C 14.859375 -5.546875 14.992188 -4.28125 15.265625 -3.5 C 15.546875 -2.726562 16.0625 -2.210938 16.8125 -1.953125 C 17.570312 -1.703125 18.78125 -1.578125 20.4375 -1.578125 L 24.765625 -1.578125 C 27.929688 -1.578125 30.394531 -2.515625 32.15625 -4.390625 C 33.925781 -6.273438 35 -9.398438 35.375 -13.765625 L 36.953125 -13.765625 C 36.816406 -12.335938 36.75 -10.457031 36.75 -8.125 C 36.75 -5.738281 36.910156 -3.03125 37.234375 0 C 34.242188 -0.132812 29.21875 -0.203125 22.15625 -0.203125 C 13.664062 -0.203125 7.242188 -0.132812 2.890625 0 L 2.890625 -1.375 C 4.546875 -1.46875 5.75 -1.648438 6.5 -1.921875 C 7.257812 -2.203125 7.773438 -2.726562 8.046875 -3.5 C 8.328125 -4.28125 8.46875 -5.546875 8.46875 -7.296875 L 8.46875 -34.546875 C 8.46875 -36.285156 8.328125 -37.546875 8.046875 -38.328125 C 7.773438 -39.109375 7.257812 -39.632812 6.5 -39.90625 C 5.75 -40.1875 4.546875 -40.375 2.890625 -40.46875 L 2.890625 -41.84375 C 4.816406 -41.695312 7.753906 -41.625 11.703125 -41.625 C 15.367188 -41.625 18.28125 -41.695312 20.4375 -41.84375 Z M 20.4375 -40.46875 "/></g></g></g><g fill="#e3e6e3" fill-opacity="1"><g transform="translate(407.772485, 399.75)"><g><path d="M 37.84375 -5.78125 C 39.082031 -2.9375 40.664062 -1.46875 42.59375 -1.375 L 42.59375 0 C 40.757812 -0.132812 38.304688 -0.203125 35.234375 -0.203125 C 31.285156 -0.203125 28.347656 -0.132812 26.421875 0 L 26.421875 -1.375 C 28.117188 -1.46875 29.367188 -1.695312 30.171875 -2.0625 C 30.972656 -2.425781 31.375 -3.046875 31.375 -3.921875 C 31.375 -4.648438 31.054688 -5.726562 30.421875 -7.15625 L 26.90625 -15 L 10.1875 -15 L 7.84375 -9.84375 C 7.0625 -8.050781 6.671875 -6.582031 6.671875 -5.4375 C 6.671875 -4.238281 7.09375 -3.304688 7.9375 -2.640625 C 8.789062 -1.984375 10.160156 -1.5625 12.046875 -1.375 L 12.046875 0 C 10.671875 -0.132812 8.582031 -0.203125 5.78125 -0.203125 C 2.976562 -0.203125 0.984375 -0.132812 -0.203125 0 L -0.203125 -1.375 C 1.035156 -1.695312 2.085938 -2.394531 2.953125 -3.46875 C 3.828125 -4.550781 4.65625 -5.988281 5.4375 -7.78125 L 20.640625 -42.1875 L 21.75 -42.1875 Z M 26.359375 -16.375 L 18.578125 -33.859375 L 10.734375 -16.375 Z M 26.359375 -16.375 "/></g></g></g><g fill="#e3e6e3" fill-opacity="1"><g transform="translate(446.713295, 399.75)"><g><path d="M 24.21875 -42.796875 C 26.46875 -42.796875 28.367188 -42.414062 29.921875 -41.65625 C 31.484375 -40.90625 33.113281 -39.796875 34.8125 -38.328125 C 35.320312 -37.910156 35.757812 -37.703125 36.125 -37.703125 C 37.039062 -37.703125 37.640625 -39.082031 37.921875 -41.84375 L 39.5 -41.84375 C 39.3125 -39.082031 39.21875 -34.265625 39.21875 -27.390625 L 37.640625 -27.390625 C 37.179688 -29.773438 36.722656 -31.539062 36.265625 -32.6875 C 35.804688 -33.832031 35.117188 -35.003906 34.203125 -36.203125 C 32.910156 -37.890625 31.367188 -39.179688 29.578125 -40.078125 C 27.796875 -40.972656 25.921875 -41.421875 23.953125 -41.421875 C 21.242188 -41.421875 18.890625 -40.59375 16.890625 -38.9375 C 14.898438 -37.289062 13.351562 -34.90625 12.25 -31.78125 C 11.144531 -28.664062 10.59375 -25 10.59375 -20.78125 C 10.59375 -16.46875 11.203125 -12.785156 12.421875 -9.734375 C 13.640625 -6.679688 15.289062 -4.363281 17.375 -2.78125 C 19.457031 -1.195312 21.804688 -0.40625 24.421875 -0.40625 C 26.441406 -0.40625 28.378906 -0.851562 30.234375 -1.75 C 32.097656 -2.644531 33.671875 -3.941406 34.953125 -5.640625 C 35.828125 -6.835938 36.484375 -8.097656 36.921875 -9.421875 C 37.359375 -10.753906 37.757812 -12.660156 38.125 -15.140625 L 39.703125 -15.140625 C 39.703125 -7.929688 39.796875 -2.882812 39.984375 0 L 38.390625 0 C 38.253906 -1.425781 38.046875 -2.46875 37.765625 -3.125 C 37.492188 -3.789062 37.128906 -4.125 36.671875 -4.125 C 36.304688 -4.125 35.847656 -3.921875 35.296875 -3.515625 C 33.554688 -2.046875 31.859375 -0.929688 30.203125 -0.171875 C 28.554688 0.585938 26.539062 0.96875 24.15625 0.96875 C 20.070312 0.96875 16.492188 0.128906 13.421875 -1.546875 C 10.347656 -3.222656 7.960938 -5.675781 6.265625 -8.90625 C 4.566406 -12.144531 3.71875 -16.007812 3.71875 -20.5 C 3.71875 -24.90625 4.585938 -28.796875 6.328125 -32.171875 C 8.078125 -35.546875 10.507812 -38.160156 13.625 -40.015625 C 16.738281 -41.867188 20.269531 -42.796875 24.21875 -42.796875 Z M 24.21875 -42.796875 "/></g></g></g><g fill="#e3e6e3" fill-opacity="1"><g transform="translate(487.511732, 399.75)"><g><path d="M 20.4375 -40.46875 C 18.78125 -40.375 17.570312 -40.1875 16.8125 -39.90625 C 16.0625 -39.632812 15.546875 -39.109375 15.265625 -38.328125 C 14.992188 -37.546875 14.859375 -36.285156 14.859375 -34.546875 L 14.859375 -7.296875 C 14.859375 -5.546875 14.992188 -4.28125 15.265625 -3.5 C 15.546875 -2.726562 16.0625 -2.203125 16.8125 -1.921875 C 17.570312 -1.648438 18.78125 -1.46875 20.4375 -1.375 L 20.4375 0 C 18.320312 -0.132812 15.410156 -0.203125 11.703125 -0.203125 C 7.753906 -0.203125 4.816406 -0.132812 2.890625 0 L 2.890625 -1.375 C 4.546875 -1.46875 5.75 -1.648438 6.5 -1.921875 C 7.257812 -2.203125 7.773438 -2.726562 8.046875 -3.5 C 8.328125 -4.28125 8.46875 -5.546875 8.46875 -7.296875 L 8.46875 -34.546875 C 8.46875 -36.285156 8.328125 -37.546875 8.046875 -38.328125 C 7.773438 -39.109375 7.257812 -39.632812 6.5 -39.90625 C 5.75 -40.1875 4.546875 -40.375 2.890625 -40.46875 L 2.890625 -41.84375 C 4.816406 -41.695312 7.753906 -41.625 11.703125 -41.625 C 15.367188 -41.625 18.28125 -41.695312 20.4375 -41.84375 Z M 20.4375 -40.46875 "/></g></g></g><g fill="#e3e6e3" fill-opacity="1"><g transform="translate(507.394719, 399.75)"><g><path d="M 24.84375 -42.796875 C 29.0625 -42.796875 32.765625 -41.957031 35.953125 -40.28125 C 39.140625 -38.613281 41.601562 -36.160156 43.34375 -32.921875 C 45.09375 -29.691406 45.96875 -25.828125 45.96875 -21.328125 C 45.96875 -16.921875 45.0625 -13.03125 43.25 -9.65625 C 41.4375 -6.289062 38.921875 -3.675781 35.703125 -1.8125 C 32.492188 0.0390625 28.847656 0.96875 24.765625 0.96875 C 20.546875 0.96875 16.84375 0.128906 13.65625 -1.546875 C 10.46875 -3.222656 8 -5.675781 6.25 -8.90625 C 4.507812 -12.144531 3.640625 -16.007812 3.640625 -20.5 C 3.640625 -24.90625 4.546875 -28.796875 6.359375 -32.171875 C 8.171875 -35.546875 10.679688 -38.160156 13.890625 -40.015625 C 17.109375 -41.867188 20.757812 -42.796875 24.84375 -42.796875 Z M 24.5625 -41.5625 C 21.769531 -41.5625 19.304688 -40.675781 17.171875 -38.90625 C 15.035156 -37.144531 13.394531 -34.691406 12.25 -31.546875 C 11.101562 -28.410156 10.53125 -24.820312 10.53125 -20.78125 C 10.53125 -16.695312 11.171875 -13.09375 12.453125 -9.96875 C 13.734375 -6.851562 15.472656 -4.457031 17.671875 -2.78125 C 19.878906 -1.113281 22.335938 -0.28125 25.046875 -0.28125 C 27.847656 -0.28125 30.3125 -1.160156 32.4375 -2.921875 C 34.570312 -4.691406 36.210938 -7.144531 37.359375 -10.28125 C 38.503906 -13.425781 39.078125 -17.019531 39.078125 -21.0625 C 39.078125 -25.144531 38.4375 -28.742188 37.15625 -31.859375 C 35.875 -34.984375 34.128906 -37.378906 31.921875 -39.046875 C 29.722656 -40.722656 27.269531 -41.5625 24.5625 -41.5625 Z M 31.453125 -59.3125 C 32.191406 -59.769531 32.878906 -60 33.515625 -60 C 34.390625 -60 35.101562 -59.609375 35.65625 -58.828125 C 35.925781 -58.421875 36.0625 -57.988281 36.0625 -57.53125 C 36.0625 -56.519531 35.441406 -55.625 34.203125 -54.84375 C 33.242188 -54.25 31.59375 -53.515625 29.25 -52.640625 C 25.8125 -51.265625 22.851562 -49.957031 20.375 -48.71875 L 19.890625 -49.609375 C 21.773438 -51.035156 23.394531 -52.351562 24.75 -53.5625 C 26.101562 -54.78125 26.9375 -55.53125 27.25 -55.8125 C 28.945312 -57.414062 30.347656 -58.582031 31.453125 -59.3125 Z M 31.453125 -59.3125 "/></g></g></g><g fill="#e3e6e3" fill-opacity="1"><g transform="translate(553.559611, 399.75)"><g><path d="M 44.734375 -40.46875 C 43.117188 -40.375 41.921875 -40.128906 41.140625 -39.734375 C 40.367188 -39.347656 39.84375 -38.707031 39.5625 -37.8125 C 39.289062 -36.914062 39.15625 -35.597656 39.15625 -33.859375 L 39.15625 0.34375 L 37.578125 0.34375 L 10.046875 -37.78125 L 10.046875 -7.984375 C 10.046875 -6.191406 10.191406 -4.859375 10.484375 -3.984375 C 10.785156 -3.117188 11.375 -2.488281 12.25 -2.09375 C 13.125 -1.707031 14.476562 -1.46875 16.3125 -1.375 L 16.3125 0 C 14.65625 -0.132812 12.316406 -0.203125 9.296875 -0.203125 C 6.535156 -0.203125 4.398438 -0.132812 2.890625 0 L 2.890625 -1.375 C 4.492188 -1.46875 5.6875 -1.707031 6.46875 -2.09375 C 7.25 -2.488281 7.773438 -3.132812 8.046875 -4.03125 C 8.328125 -4.925781 8.46875 -6.242188 8.46875 -7.984375 L 8.46875 -34.546875 C 8.46875 -36.285156 8.328125 -37.546875 8.046875 -38.328125 C 7.773438 -39.109375 7.257812 -39.632812 6.5 -39.90625 C 5.75 -40.1875 4.546875 -40.375 2.890625 -40.46875 L 2.890625 -41.84375 C 4.398438 -41.695312 6.535156 -41.625 9.296875 -41.625 C 11.765625 -41.625 13.875 -41.695312 15.625 -41.84375 L 37.578125 -11.28125 L 37.578125 -33.859375 C 37.578125 -35.648438 37.425781 -36.976562 37.125 -37.84375 C 36.820312 -38.71875 36.234375 -39.347656 35.359375 -39.734375 C 34.492188 -40.128906 33.144531 -40.375 31.3125 -40.46875 L 31.3125 -41.84375 C 32.957031 -41.695312 35.296875 -41.625 38.328125 -41.625 C 41.078125 -41.625 43.210938 -41.695312 44.734375 -41.84375 Z M 44.734375 -40.46875 "/></g></g></g><g fill="#e3e6e3" fill-opacity="1"><g transform="translate(221.155452, 464.999997)"><g><path d="M 36.75 -8.125 C 36.75 -5.738281 36.910156 -3.03125 37.234375 0 C 34.242188 -0.132812 29.21875 -0.203125 22.15625 -0.203125 C 13.664062 -0.203125 7.242188 -0.132812 2.890625 0 L 2.890625 -1.375 C 4.546875 -1.46875 5.75 -1.648438 6.5 -1.921875 C 7.257812 -2.203125 7.773438 -2.726562 8.046875 -3.5 C 8.328125 -4.28125 8.46875 -5.546875 8.46875 -7.296875 L 8.46875 -34.546875 C 8.46875 -36.285156 8.328125 -37.546875 8.046875 -38.328125 C 7.773438 -39.109375 7.257812 -39.632812 6.5 -39.90625 C 5.75 -40.1875 4.546875 -40.375 2.890625 -40.46875 L 2.890625 -41.84375 C 7.242188 -41.695312 13.664062 -41.625 22.15625 -41.625 C 28.582031 -41.625 33.144531 -41.695312 35.84375 -41.84375 C 35.53125 -39.082031 35.375 -36.601562 35.375 -34.40625 C 35.375 -32.613281 35.441406 -31.191406 35.578125 -30.140625 L 34 -30.140625 C 33.675781 -33.898438 32.882812 -36.523438 31.625 -38.015625 C 30.363281 -39.503906 28.304688 -40.25 25.453125 -40.25 L 20.4375 -40.25 C 18.78125 -40.25 17.570312 -40.125 16.8125 -39.875 C 16.0625 -39.625 15.546875 -39.109375 15.265625 -38.328125 C 14.992188 -37.546875 14.859375 -36.285156 14.859375 -34.546875 L 14.859375 -21.75 L 20.578125 -21.75 C 22.046875 -21.75 23.164062 -22.125 23.9375 -22.875 C 24.71875 -23.632812 25.242188 -24.460938 25.515625 -25.359375 C 25.796875 -26.253906 26.050781 -27.390625 26.28125 -28.765625 L 27.875 -28.765625 C 27.726562 -27.203125 27.65625 -25.503906 27.65625 -23.671875 L 27.65625 -21.0625 C 27.65625 -19.269531 27.796875 -16.695312 28.078125 -13.34375 L 26.5 -13.34375 C 26.21875 -15.550781 25.6875 -17.273438 24.90625 -18.515625 C 24.125 -19.753906 22.679688 -20.375 20.578125 -20.375 L 14.859375 -20.375 L 14.859375 -7.296875 C 14.859375 -5.546875 14.992188 -4.28125 15.265625 -3.5 C 15.546875 -2.726562 16.0625 -2.210938 16.8125 -1.953125 C 17.570312 -1.703125 18.78125 -1.578125 20.4375 -1.578125 L 25.453125 -1.578125 C 27.753906 -1.578125 29.566406 -1.941406 30.890625 -2.671875 C 32.222656 -3.410156 33.234375 -4.59375 33.921875 -6.21875 C 34.609375 -7.851562 35.09375 -10.140625 35.375 -13.078125 L 36.953125 -13.078125 C 36.816406 -11.835938 36.75 -10.1875 36.75 -8.125 Z M 36.75 -8.125 "/></g></g></g><g fill="#e3e6e3" fill-opacity="1"><g transform="translate(258.651454, 464.999997)"><g><path d="M 55.671875 -40.46875 C 54.015625 -40.375 52.804688 -40.1875 52.046875 -39.90625 C 51.296875 -39.632812 50.78125 -39.109375 50.5 -38.328125 C 50.226562 -37.546875 50.09375 -36.285156 50.09375 -34.546875 L 50.09375 -7.296875 C 50.09375 -5.546875 50.226562 -4.28125 50.5 -3.5 C 50.78125 -2.726562 51.296875 -2.203125 52.046875 -1.921875 C 52.804688 -1.648438 54.015625 -1.46875 55.671875 -1.375 L 55.671875 0 C 53.554688 -0.132812 50.644531 -0.203125 46.9375 -0.203125 C 42.988281 -0.203125 40.050781 -0.132812 38.125 0 L 38.125 -1.375 C 39.769531 -1.46875 40.972656 -1.648438 41.734375 -1.921875 C 42.492188 -2.203125 43.007812 -2.726562 43.28125 -3.5 C 43.5625 -4.28125 43.703125 -5.546875 43.703125 -7.296875 L 43.703125 -37.5 L 27.109375 0.34375 L 26.015625 0.34375 L 10.046875 -37.4375 L 10.046875 -7.984375 C 10.046875 -6.191406 10.191406 -4.859375 10.484375 -3.984375 C 10.785156 -3.117188 11.375 -2.488281 12.25 -2.09375 C 13.125 -1.707031 14.476562 -1.46875 16.3125 -1.375 L 16.3125 0 C 14.65625 -0.132812 12.316406 -0.203125 9.296875 -0.203125 C 6.535156 -0.203125 4.398438 -0.132812 2.890625 0 L 2.890625 -1.375 C 4.492188 -1.46875 5.6875 -1.707031 6.46875 -2.09375 C 7.25 -2.488281 7.773438 -3.132812 8.046875 -4.03125 C 8.328125 -4.925781 8.46875 -6.242188 8.46875 -7.984375 L 8.46875 -34.546875 C 8.46875 -36.285156 8.328125 -37.546875 8.046875 -38.328125 C 7.773438 -39.109375 7.257812 -39.632812 6.5 -39.90625 C 5.75 -40.1875 4.546875 -40.375 2.890625 -40.46875 L 2.890625 -41.84375 C 4.398438 -41.695312 6.535156 -41.625 9.296875 -41.625 C 11.492188 -41.625 13.441406 -41.695312 15.140625 -41.84375 L 28.96875 -8.328125 L 43.703125 -41.625 L 46.9375 -41.625 C 50.644531 -41.625 53.554688 -41.695312 55.671875 -41.84375 Z M 55.671875 -40.46875 "/></g></g></g><g fill="#e3e6e3" fill-opacity="1"><g transform="translate(313.760452, 464.999997)"><g><path d="M 24.84375 -42.796875 C 29.0625 -42.796875 32.765625 -41.957031 35.953125 -40.28125 C 39.140625 -38.613281 41.601562 -36.160156 43.34375 -32.921875 C 45.09375 -29.691406 45.96875 -25.828125 45.96875 -21.328125 C 45.96875 -16.921875 45.0625 -13.03125 43.25 -9.65625 C 41.4375 -6.289062 38.921875 -3.675781 35.703125 -1.8125 C 32.492188 0.0390625 28.847656 0.96875 24.765625 0.96875 C 20.546875 0.96875 16.84375 0.128906 13.65625 -1.546875 C 10.46875 -3.222656 8 -5.675781 6.25 -8.90625 C 4.507812 -12.144531 3.640625 -16.007812 3.640625 -20.5 C 3.640625 -24.90625 4.546875 -28.796875 6.359375 -32.171875 C 8.171875 -35.546875 10.679688 -38.160156 13.890625 -40.015625 C 17.109375 -41.867188 20.757812 -42.796875 24.84375 -42.796875 Z M 24.5625 -41.5625 C 21.769531 -41.5625 19.304688 -40.675781 17.171875 -38.90625 C 15.035156 -37.144531 13.394531 -34.691406 12.25 -31.546875 C 11.101562 -28.410156 10.53125 -24.820312 10.53125 -20.78125 C 10.53125 -16.695312 11.171875 -13.09375 12.453125 -9.96875 C 13.734375 -6.851562 15.472656 -4.457031 17.671875 -2.78125 C 19.878906 -1.113281 22.335938 -0.28125 25.046875 -0.28125 C 27.847656 -0.28125 30.3125 -1.160156 32.4375 -2.921875 C 34.570312 -4.691406 36.210938 -7.144531 37.359375 -10.28125 C 38.503906 -13.425781 39.078125 -17.019531 39.078125 -21.0625 C 39.078125 -25.144531 38.4375 -28.742188 37.15625 -31.859375 C 35.875 -34.984375 34.128906 -37.378906 31.921875 -39.046875 C 29.722656 -40.722656 27.269531 -41.5625 24.5625 -41.5625 Z M 24.5625 -41.5625 "/></g></g></g><g fill="#e3e6e3" fill-opacity="1"><g transform="translate(359.925355, 464.999997)"><g><path d="M 24.21875 -42.796875 C 26.46875 -42.796875 28.367188 -42.414062 29.921875 -41.65625 C 31.484375 -40.90625 33.113281 -39.796875 34.8125 -38.328125 C 35.320312 -37.910156 35.757812 -37.703125 36.125 -37.703125 C 37.039062 -37.703125 37.640625 -39.082031 37.921875 -41.84375 L 39.5 -41.84375 C 39.3125 -39.082031 39.21875 -34.265625 39.21875 -27.390625 L 37.640625 -27.390625 C 37.179688 -29.773438 36.722656 -31.539062 36.265625 -32.6875 C 35.804688 -33.832031 35.117188 -35.003906 34.203125 -36.203125 C 32.910156 -37.890625 31.367188 -39.179688 29.578125 -40.078125 C 27.796875 -40.972656 25.921875 -41.421875 23.953125 -41.421875 C 21.242188 -41.421875 18.890625 -40.59375 16.890625 -38.9375 C 14.898438 -37.289062 13.351562 -34.90625 12.25 -31.78125 C 11.144531 -28.664062 10.59375 -25 10.59375 -20.78125 C 10.59375 -16.46875 11.203125 -12.785156 12.421875 -9.734375 C 13.640625 -6.679688 15.289062 -4.363281 17.375 -2.78125 C 19.457031 -1.195312 21.804688 -0.40625 24.421875 -0.40625 C 26.441406 -0.40625 28.378906 -0.851562 30.234375 -1.75 C 32.097656 -2.644531 33.671875 -3.941406 34.953125 -5.640625 C 35.828125 -6.835938 36.484375 -8.097656 36.921875 -9.421875 C 37.359375 -10.753906 37.757812 -12.660156 38.125 -15.140625 L 39.703125 -15.140625 C 39.703125 -7.929688 39.796875 -2.882812 39.984375 0 L 38.390625 0 C 38.253906 -1.425781 38.046875 -2.46875 37.765625 -3.125 C 37.492188 -3.789062 37.128906 -4.125 36.671875 -4.125 C 36.304688 -4.125 35.847656 -3.921875 35.296875 -3.515625 C 33.554688 -2.046875 31.859375 -0.929688 30.203125 -0.171875 C 28.554688 0.585938 26.539062 0.96875 24.15625 0.96875 C 20.070312 0.96875 16.492188 0.128906 13.421875 -1.546875 C 10.347656 -3.222656 7.960938 -5.675781 6.265625 -8.90625 C 4.566406 -12.144531 3.71875 -16.007812 3.71875 -20.5 C 3.71875 -24.90625 4.585938 -28.796875 6.328125 -32.171875 C 8.078125 -35.546875 10.507812 -38.160156 13.625 -40.015625 C 16.738281 -41.867188 20.269531 -42.796875 24.21875 -42.796875 Z M 24.21875 -42.796875 "/></g></g></g><g fill="#e3e6e3" fill-opacity="1"><g transform="translate(400.723803, 464.999997)"><g><path d="M 20.4375 -40.46875 C 18.78125 -40.375 17.570312 -40.1875 16.8125 -39.90625 C 16.0625 -39.632812 15.546875 -39.109375 15.265625 -38.328125 C 14.992188 -37.546875 14.859375 -36.285156 14.859375 -34.546875 L 14.859375 -7.296875 C 14.859375 -5.546875 14.992188 -4.28125 15.265625 -3.5 C 15.546875 -2.726562 16.0625 -2.203125 16.8125 -1.921875 C 17.570312 -1.648438 18.78125 -1.46875 20.4375 -1.375 L 20.4375 0 C 18.320312 -0.132812 15.410156 -0.203125 11.703125 -0.203125 C 7.753906 -0.203125 4.816406 -0.132812 2.890625 0 L 2.890625 -1.375 C 4.546875 -1.46875 5.75 -1.648438 6.5 -1.921875 C 7.257812 -2.203125 7.773438 -2.726562 8.046875 -3.5 C 8.328125 -4.28125 8.46875 -5.546875 8.46875 -7.296875 L 8.46875 -34.546875 C 8.46875 -36.285156 8.328125 -37.546875 8.046875 -38.328125 C 7.773438 -39.109375 7.257812 -39.632812 6.5 -39.90625 C 5.75 -40.1875 4.546875 -40.375 2.890625 -40.46875 L 2.890625 -41.84375 C 4.816406 -41.695312 7.753906 -41.625 11.703125 -41.625 C 15.367188 -41.625 18.28125 -41.695312 20.4375 -41.84375 Z M 20.4375 -40.46875 "/></g></g></g><g fill="#e3e6e3" fill-opacity="1"><g transform="translate(420.606802, 464.999997)"><g><path d="M 24.84375 -42.796875 C 29.0625 -42.796875 32.765625 -41.957031 35.953125 -40.28125 C 39.140625 -38.613281 41.601562 -36.160156 43.34375 -32.921875 C 45.09375 -29.691406 45.96875 -25.828125 45.96875 -21.328125 C 45.96875 -16.921875 45.0625 -13.03125 43.25 -9.65625 C 41.4375 -6.289062 38.921875 -3.675781 35.703125 -1.8125 C 32.492188 0.0390625 28.847656 0.96875 24.765625 0.96875 C 20.546875 0.96875 16.84375 0.128906 13.65625 -1.546875 C 10.46875 -3.222656 8 -5.675781 6.25 -8.90625 C 4.507812 -12.144531 3.640625 -16.007812 3.640625 -20.5 C 3.640625 -24.90625 4.546875 -28.796875 6.359375 -32.171875 C 8.171875 -35.546875 10.679688 -38.160156 13.890625 -40.015625 C 17.109375 -41.867188 20.757812 -42.796875 24.84375 -42.796875 Z M 24.5625 -41.5625 C 21.769531 -41.5625 19.304688 -40.675781 17.171875 -38.90625 C 15.035156 -37.144531 13.394531 -34.691406 12.25 -31.546875 C 11.101562 -28.410156 10.53125 -24.820312 10.53125 -20.78125 C 10.53125 -16.695312 11.171875 -13.09375 12.453125 -9.96875 C 13.734375 -6.851562 15.472656 -4.457031 17.671875 -2.78125 C 19.878906 -1.113281 22.335938 -0.28125 25.046875 -0.28125 C 27.847656 -0.28125 30.3125 -1.160156 32.4375 -2.921875 C 34.570312 -4.691406 36.210938 -7.144531 37.359375 -10.28125 C 38.503906 -13.425781 39.078125 -17.019531 39.078125 -21.0625 C 39.078125 -25.144531 38.4375 -28.742188 37.15625 -31.859375 C 35.875 -34.984375 34.128906 -37.378906 31.921875 -39.046875 C 29.722656 -40.722656 27.269531 -41.5625 24.5625 -41.5625 Z M 24.5625 -41.5625 "/></g></g></g><g fill="#e3e6e3" fill-opacity="1"><g transform="translate(466.771693, 464.999997)"><g><path d="M 44.734375 -40.46875 C 43.117188 -40.375 41.921875 -40.128906 41.140625 -39.734375 C 40.367188 -39.347656 39.84375 -38.707031 39.5625 -37.8125 C 39.289062 -36.914062 39.15625 -35.597656 39.15625 -33.859375 L 39.15625 0.34375 L 37.578125 0.34375 L 10.046875 -37.78125 L 10.046875 -7.984375 C 10.046875 -6.191406 10.191406 -4.859375 10.484375 -3.984375 C 10.785156 -3.117188 11.375 -2.488281 12.25 -2.09375 C 13.125 -1.707031 14.476562 -1.46875 16.3125 -1.375 L 16.3125 0 C 14.65625 -0.132812 12.316406 -0.203125 9.296875 -0.203125 C 6.535156 -0.203125 4.398438 -0.132812 2.890625 0 L 2.890625 -1.375 C 4.492188 -1.46875 5.6875 -1.707031 6.46875 -2.09375 C 7.25 -2.488281 7.773438 -3.132812 8.046875 -4.03125 C 8.328125 -4.925781 8.46875 -6.242188 8.46875 -7.984375 L 8.46875 -34.546875 C 8.46875 -36.285156 8.328125 -37.546875 8.046875 -38.328125 C 7.773438 -39.109375 7.257812 -39.632812 6.5 -39.90625 C 5.75 -40.1875 4.546875 -40.375 2.890625 -40.46875 L 2.890625 -41.84375 C 4.398438 -41.695312 6.535156 -41.625 9.296875 -41.625 C 11.765625 -41.625 13.875 -41.695312 15.625 -41.84375 L 37.578125 -11.28125 L 37.578125 -33.859375 C 37.578125 -35.648438 37.425781 -36.976562 37.125 -37.84375 C 36.820312 -38.71875 36.234375 -39.347656 35.359375 -39.734375 C 34.492188 -40.128906 33.144531 -40.375 31.3125 -40.46875 L 31.3125 -41.84375 C 32.957031 -41.695312 35.296875 -41.625 38.328125 -41.625 C 41.078125 -41.625 43.210938 -41.695312 44.734375 -41.84375 Z M 44.734375 -40.46875 "/></g></g></g><g fill="#e3e6e3" fill-opacity="1"><g transform="translate(510.459763, 464.999997)"><g><path d="M 37.84375 -5.78125 C 39.082031 -2.9375 40.664062 -1.46875 42.59375 -1.375 L 42.59375 0 C 40.757812 -0.132812 38.304688 -0.203125 35.234375 -0.203125 C 31.285156 -0.203125 28.347656 -0.132812 26.421875 0 L 26.421875 -1.375 C 28.117188 -1.46875 29.367188 -1.695312 30.171875 -2.0625 C 30.972656 -2.425781 31.375 -3.046875 31.375 -3.921875 C 31.375 -4.648438 31.054688 -5.726562 30.421875 -7.15625 L 26.90625 -15 L 10.1875 -15 L 7.84375 -9.84375 C 7.0625 -8.050781 6.671875 -6.582031 6.671875 -5.4375 C 6.671875 -4.238281 7.09375 -3.304688 7.9375 -2.640625 C 8.789062 -1.984375 10.160156 -1.5625 12.046875 -1.375 L 12.046875 0 C 10.671875 -0.132812 8.582031 -0.203125 5.78125 -0.203125 C 2.976562 -0.203125 0.984375 -0.132812 -0.203125 0 L -0.203125 -1.375 C 1.035156 -1.695312 2.085938 -2.394531 2.953125 -3.46875 C 3.828125 -4.550781 4.65625 -5.988281 5.4375 -7.78125 L 20.640625 -42.1875 L 21.75 -42.1875 Z M 26.359375 -16.375 L 18.578125 -33.859375 L 10.734375 -16.375 Z M 26.359375 -16.375 "/></g></g></g><g fill="#e3e6e3" fill-opacity="1"><g transform="translate(549.400573, 464.999997)"><g><path d="M 20.4375 -40.46875 C 18.78125 -40.375 17.570312 -40.1875 16.8125 -39.90625 C 16.0625 -39.632812 15.546875 -39.109375 15.265625 -38.328125 C 14.992188 -37.546875 14.859375 -36.285156 14.859375 -34.546875 L 14.859375 -7.296875 C 14.859375 -5.546875 14.992188 -4.28125 15.265625 -3.5 C 15.546875 -2.726562 16.0625 -2.210938 16.8125 -1.953125 C 17.570312 -1.703125 18.78125 -1.578125 20.4375 -1.578125 L 24.765625 -1.578125 C 27.929688 -1.578125 30.394531 -2.515625 32.15625 -4.390625 C 33.925781 -6.273438 35 -9.398438 35.375 -13.765625 L 36.953125 -13.765625 C 36.816406 -12.335938 36.75 -10.457031 36.75 -8.125 C 36.75 -5.738281 36.910156 -3.03125 37.234375 0 C 34.242188 -0.132812 29.21875 -0.203125 22.15625 -0.203125 C 13.664062 -0.203125 7.242188 -0.132812 2.890625 0 L 2.890625 -1.375 C 4.546875 -1.46875 5.75 -1.648438 6.5 -1.921875 C 7.257812 -2.203125 7.773438 -2.726562 8.046875 -3.5 C 8.328125 -4.28125 8.46875 -5.546875 8.46875 -7.296875 L 8.46875 -34.546875 C 8.46875 -36.285156 8.328125 -37.546875 8.046875 -38.328125 C 7.773438 -39.109375 7.257812 -39.632812 6.5 -39.90625 C 5.75 -40.1875 4.546875 -40.375 2.890625 -40.46875 L 2.890625 -41.84375 C 4.816406 -41.695312 7.753906 -41.625 11.703125 -41.625 C 15.367188 -41.625 18.28125 -41.695312 20.4375 -41.84375 Z M 20.4375 -40.46875 "/></g></g></g></svg>