<svg xmlns="http://www.w3.org/2000/svg" xmlns:xlink="http://www.w3.org/1999/xlink" width="1080" zoomAndPan="magnify" viewBox="0 0 810 809.999993" height="1080" preserveAspectRatio="xMidYMid meet" version="1.0"><defs><g/></defs><rect x="-81" width="972" fill="#ffffff" y="-80.999999" height="971.999992" fill-opacity="1"/><rect x="-81" width="972" fill="#51877a" y="-80.999999" height="971.999992" fill-opacity="1"/><g fill="#e3e6e3" fill-opacity="1"><g transform="translate(130.002764, 432.374998)"><g><path d="M 21.671875 -48.71875 C 29.796875 -48.71875 35.875 -46.6875 39.90625 -42.625 C 43.945312 -38.570312 45.96875 -32.664062 45.96875 -24.90625 C 45.96875 -19.90625 44.976562 -15.523438 43 -11.765625 C 41.03125 -8.003906 38.175781 -5.101562 34.4375 -3.0625 C 30.695312 -1.019531 26.238281 0 21.0625 0 L 17.0625 -0.0625 C 14.5 -0.15625 12.617188 -0.203125 11.421875 -0.203125 C 7.660156 -0.203125 4.816406 -0.132812 2.890625 0 L 2.890625 -1.375 C 4.546875 -1.46875 5.75 -1.648438 6.5 -1.921875 C 7.257812 -2.203125 7.773438 -2.726562 8.046875 -3.5 C 8.328125 -4.28125 8.46875 -5.546875 8.46875 -7.296875 L 8.46875 -41.421875 C 8.46875 -43.171875 8.328125 -44.429688 8.046875 -45.203125 C 7.773438 -45.984375 7.257812 -46.507812 6.5 -46.78125 C 5.75 -47.0625 4.546875 -47.25 2.890625 -47.34375 L 2.890625 -48.71875 C 4.492188 -48.582031 6.71875 -48.515625 9.5625 -48.515625 L 15.40625 -48.578125 C 18.53125 -48.671875 20.617188 -48.71875 21.671875 -48.71875 Z M 19.953125 -47.484375 C 18.535156 -47.484375 17.46875 -47.320312 16.75 -47 C 16.039062 -46.675781 15.546875 -46.101562 15.265625 -45.28125 C 14.992188 -44.457031 14.859375 -43.21875 14.859375 -41.5625 L 14.859375 -7.15625 C 14.859375 -5.5 14.992188 -4.257812 15.265625 -3.4375 C 15.546875 -2.613281 16.039062 -2.039062 16.75 -1.71875 C 17.46875 -1.394531 18.5625 -1.234375 20.03125 -1.234375 C 24.882812 -1.234375 28.710938 -2.113281 31.515625 -3.875 C 34.316406 -5.644531 36.273438 -8.226562 37.390625 -11.625 C 38.515625 -15.019531 39.078125 -19.359375 39.078125 -24.640625 C 39.078125 -29.910156 38.457031 -34.207031 37.21875 -37.53125 C 35.988281 -40.863281 33.984375 -43.351562 31.203125 -45 C 28.429688 -46.65625 24.679688 -47.484375 19.953125 -47.484375 Z M 19.953125 -47.484375 "/></g></g></g><g fill="#e3e6e3" fill-opacity="1"><g transform="translate(176.305268, 432.374998)"><g><path d="M 43.5625 -40.46875 C 41.957031 -40.375 40.765625 -40.128906 39.984375 -39.734375 C 39.203125 -39.347656 38.671875 -38.707031 38.390625 -37.8125 C 38.117188 -36.914062 37.984375 -35.597656 37.984375 -33.859375 L 37.984375 -18.640625 C 37.984375 -15.484375 37.765625 -12.789062 37.328125 -10.5625 C 36.890625 -8.332031 36.164062 -6.394531 35.15625 -4.75 C 34.0625 -3.007812 32.46875 -1.617188 30.375 -0.578125 C 28.289062 0.453125 25.921875 0.96875 23.265625 0.96875 C 18.535156 0.96875 14.910156 -0.0390625 12.390625 -2.0625 C 10.367188 -3.851562 9.015625 -5.894531 8.328125 -8.1875 C 7.640625 -10.476562 7.296875 -13.894531 7.296875 -18.4375 L 7.296875 -34.546875 C 7.296875 -36.285156 7.15625 -37.546875 6.875 -38.328125 C 6.601562 -39.109375 6.085938 -39.632812 5.328125 -39.90625 C 4.578125 -40.1875 3.375 -40.375 1.71875 -40.46875 L 1.71875 -41.84375 C 3.644531 -41.695312 6.582031 -41.625 10.53125 -41.625 C 14.195312 -41.625 17.109375 -41.695312 19.265625 -41.84375 L 19.265625 -40.46875 C 17.617188 -40.375 16.414062 -40.1875 15.65625 -39.90625 C 14.894531 -39.632812 14.375 -39.109375 14.09375 -38.328125 C 13.820312 -37.546875 13.6875 -36.285156 13.6875 -34.546875 L 13.6875 -17.265625 C 13.6875 -13.878906 13.914062 -11.070312 14.375 -8.84375 C 14.832031 -6.613281 15.804688 -4.820312 17.296875 -3.46875 C 18.796875 -2.113281 20.988281 -1.4375 23.875 -1.4375 C 28.46875 -1.4375 31.703125 -2.878906 33.578125 -5.765625 C 35.460938 -8.660156 36.40625 -12.703125 36.40625 -17.890625 L 36.40625 -33.859375 C 36.40625 -36.335938 35.957031 -38.035156 35.0625 -38.953125 C 34.164062 -39.867188 32.523438 -40.375 30.140625 -40.46875 L 30.140625 -41.84375 C 31.785156 -41.695312 34.125 -41.625 37.15625 -41.625 C 39.90625 -41.625 42.039062 -41.695312 43.5625 -41.84375 Z M 43.5625 -40.46875 "/></g></g></g><g fill="#e3e6e3" fill-opacity="1"><g transform="translate(218.135718, 432.374998)"><g><path d="M 36.75 -8.125 C 36.75 -5.738281 36.910156 -3.03125 37.234375 0 C 34.242188 -0.132812 29.21875 -0.203125 22.15625 -0.203125 C 13.664062 -0.203125 7.242188 -0.132812 2.890625 0 L 2.890625 -1.375 C 4.546875 -1.46875 5.75 -1.648438 6.5 -1.921875 C 7.257812 -2.203125 7.773438 -2.726562 8.046875 -3.5 C 8.328125 -4.28125 8.46875 -5.546875 8.46875 -7.296875 L 8.46875 -34.546875 C 8.46875 -36.285156 8.328125 -37.546875 8.046875 -38.328125 C 7.773438 -39.109375 7.257812 -39.632812 6.5 -39.90625 C 5.75 -40.1875 4.546875 -40.375 2.890625 -40.46875 L 2.890625 -41.84375 C 7.242188 -41.695312 13.664062 -41.625 22.15625 -41.625 C 28.582031 -41.625 33.144531 -41.695312 35.84375 -41.84375 C 35.53125 -39.082031 35.375 -36.601562 35.375 -34.40625 C 35.375 -32.613281 35.441406 -31.191406 35.578125 -30.140625 L 34 -30.140625 C 33.675781 -33.898438 32.882812 -36.523438 31.625 -38.015625 C 30.363281 -39.503906 28.304688 -40.25 25.453125 -40.25 L 20.4375 -40.25 C 18.78125 -40.25 17.570312 -40.125 16.8125 -39.875 C 16.0625 -39.625 15.546875 -39.109375 15.265625 -38.328125 C 14.992188 -37.546875 14.859375 -36.285156 14.859375 -34.546875 L 14.859375 -21.75 L 20.578125 -21.75 C 22.046875 -21.75 23.164062 -22.125 23.9375 -22.875 C 24.71875 -23.632812 25.242188 -24.460938 25.515625 -25.359375 C 25.796875 -26.253906 26.050781 -27.390625 26.28125 -28.765625 L 27.875 -28.765625 C 27.726562 -27.203125 27.65625 -25.503906 27.65625 -23.671875 L 27.65625 -21.0625 C 27.65625 -19.269531 27.796875 -16.695312 28.078125 -13.34375 L 26.5 -13.34375 C 26.21875 -15.550781 25.6875 -17.273438 24.90625 -18.515625 C 24.125 -19.753906 22.679688 -20.375 20.578125 -20.375 L 14.859375 -20.375 L 14.859375 -7.296875 C 14.859375 -5.546875 14.992188 -4.28125 15.265625 -3.5 C 15.546875 -2.726562 16.0625 -2.210938 16.8125 -1.953125 C 17.570312 -1.703125 18.78125 -1.578125 20.4375 -1.578125 L 25.453125 -1.578125 C 27.753906 -1.578125 29.566406 -1.941406 30.890625 -2.671875 C 32.222656 -3.410156 33.234375 -4.59375 33.921875 -6.21875 C 34.609375 -7.851562 35.09375 -10.140625 35.375 -13.078125 L 36.953125 -13.078125 C 36.816406 -11.835938 36.75 -10.1875 36.75 -8.125 Z M 36.75 -8.125 "/></g></g></g><g fill="#e3e6e3" fill-opacity="1"><g transform="translate(255.631717, 432.374998)"><g><path d="M 20.4375 -40.46875 C 18.78125 -40.375 17.570312 -40.1875 16.8125 -39.90625 C 16.0625 -39.632812 15.546875 -39.109375 15.265625 -38.328125 C 14.992188 -37.546875 14.859375 -36.285156 14.859375 -34.546875 L 14.859375 -7.296875 C 14.859375 -5.546875 14.992188 -4.28125 15.265625 -3.5 C 15.546875 -2.726562 16.0625 -2.210938 16.8125 -1.953125 C 17.570312 -1.703125 18.78125 -1.578125 20.4375 -1.578125 L 24.765625 -1.578125 C 27.929688 -1.578125 30.394531 -2.515625 32.15625 -4.390625 C 33.925781 -6.273438 35 -9.398438 35.375 -13.765625 L 36.953125 -13.765625 C 36.816406 -12.335938 36.75 -10.457031 36.75 -8.125 C 36.75 -5.738281 36.910156 -3.03125 37.234375 0 C 34.242188 -0.132812 29.21875 -0.203125 22.15625 -0.203125 C 13.664062 -0.203125 7.242188 -0.132812 2.890625 0 L 2.890625 -1.375 C 4.546875 -1.46875 5.75 -1.648438 6.5 -1.921875 C 7.257812 -2.203125 7.773438 -2.726562 8.046875 -3.5 C 8.328125 -4.28125 8.46875 -5.546875 8.46875 -7.296875 L 8.46875 -34.546875 C 8.46875 -36.285156 8.328125 -37.546875 8.046875 -38.328125 C 7.773438 -39.109375 7.257812 -39.632812 6.5 -39.90625 C 5.75 -40.1875 4.546875 -40.375 2.890625 -40.46875 L 2.890625 -41.84375 C 4.816406 -41.695312 7.753906 -41.625 11.703125 -41.625 C 15.367188 -41.625 18.28125 -41.695312 20.4375 -41.84375 Z M 20.4375 -40.46875 "/></g></g></g><g fill="#e3e6e3" fill-opacity="1"><g transform="translate(291.614103, 432.374998)"><g><path d="M 24.84375 -42.796875 C 29.0625 -42.796875 32.765625 -41.957031 35.953125 -40.28125 C 39.140625 -38.613281 41.601562 -36.160156 43.34375 -32.921875 C 45.09375 -29.691406 45.96875 -25.828125 45.96875 -21.328125 C 45.96875 -16.921875 45.0625 -13.03125 43.25 -9.65625 C 41.4375 -6.289062 38.921875 -3.675781 35.703125 -1.8125 C 32.492188 0.0390625 28.847656 0.96875 24.765625 0.96875 C 20.546875 0.96875 16.84375 0.128906 13.65625 -1.546875 C 10.46875 -3.222656 8 -5.675781 6.25 -8.90625 C 4.507812 -12.144531 3.640625 -16.007812 3.640625 -20.5 C 3.640625 -24.90625 4.546875 -28.796875 6.359375 -32.171875 C 8.171875 -35.546875 10.679688 -38.160156 13.890625 -40.015625 C 17.109375 -41.867188 20.757812 -42.796875 24.84375 -42.796875 Z M 24.5625 -41.5625 C 21.769531 -41.5625 19.304688 -40.675781 17.171875 -38.90625 C 15.035156 -37.144531 13.394531 -34.691406 12.25 -31.546875 C 11.101562 -28.410156 10.53125 -24.820312 10.53125 -20.78125 C 10.53125 -16.695312 11.171875 -13.09375 12.453125 -9.96875 C 13.734375 -6.851562 15.472656 -4.457031 17.671875 -2.78125 C 19.878906 -1.113281 22.335938 -0.28125 25.046875 -0.28125 C 27.847656 -0.28125 30.3125 -1.160156 32.4375 -2.921875 C 34.570312 -4.691406 36.210938 -7.144531 37.359375 -10.28125 C 38.503906 -13.425781 39.078125 -17.019531 39.078125 -21.0625 C 39.078125 -25.144531 38.4375 -28.742188 37.15625 -31.859375 C 35.875 -34.984375 34.128906 -37.378906 31.921875 -39.046875 C 29.722656 -40.722656 27.269531 -41.5625 24.5625 -41.5625 Z M 24.5625 -41.5625 "/></g></g></g><g fill="#e3e6e3" fill-opacity="1"><g transform="translate(337.779006, 432.374998)"><g/></g></g><g fill="#e3e6e3" fill-opacity="1"><g transform="translate(351.469939, 432.374998)"><g><path d="M 33.4375 -41.5625 C 36.050781 -41.5625 37.816406 -41.65625 38.734375 -41.84375 L 38.734375 -40.390625 C 37.960938 -40.210938 37.253906 -39.773438 36.609375 -39.078125 C 35.960938 -38.390625 35.207031 -37.269531 34.34375 -35.71875 L 23.53125 -16.375 L 23.53125 -7.296875 C 23.53125 -5.546875 23.664062 -4.28125 23.9375 -3.5 C 24.21875 -2.726562 24.734375 -2.203125 25.484375 -1.921875 C 26.242188 -1.648438 27.453125 -1.46875 29.109375 -1.375 L 29.109375 0 C 26.992188 -0.132812 24.082031 -0.203125 20.375 -0.203125 C 16.425781 -0.203125 13.488281 -0.132812 11.5625 0 L 11.5625 -1.375 C 13.207031 -1.46875 14.410156 -1.648438 15.171875 -1.921875 C 15.929688 -2.203125 16.445312 -2.726562 16.71875 -3.5 C 17 -4.28125 17.140625 -5.546875 17.140625 -7.296875 L 17.140625 -14.453125 L 3.859375 -36.546875 C 2.984375 -38.003906 2.257812 -38.972656 1.6875 -39.453125 C 1.113281 -39.941406 0.503906 -40.253906 -0.140625 -40.390625 L -0.140625 -41.84375 C 2.796875 -41.65625 4.816406 -41.5625 5.921875 -41.5625 C 9.085938 -41.5625 12.296875 -41.65625 15.546875 -41.84375 L 15.546875 -40.390625 C 13.992188 -40.390625 12.800781 -40.265625 11.96875 -40.015625 C 11.144531 -39.765625 10.734375 -39.203125 10.734375 -38.328125 C 10.734375 -37.546875 11.125 -36.46875 11.90625 -35.09375 L 22.296875 -17.75 L 30.828125 -32.75 C 31.835938 -34.582031 32.34375 -36.050781 32.34375 -37.15625 C 32.34375 -39.082031 30.757812 -40.160156 27.59375 -40.390625 L 27.59375 -41.84375 C 29.289062 -41.65625 31.238281 -41.5625 33.4375 -41.5625 Z M 33.4375 -41.5625 "/></g></g></g><g fill="#e3e6e3" fill-opacity="1"><g transform="translate(387.452312, 432.374998)"><g/></g></g><g fill="#e3e6e3" fill-opacity="1"><g transform="translate(401.143245, 432.374998)"><g><path d="M 25.53125 -49.6875 C 28.28125 -49.6875 30.617188 -49.296875 32.546875 -48.515625 C 34.472656 -47.734375 36.351562 -46.628906 38.1875 -45.203125 C 38.695312 -44.796875 39.132812 -44.59375 39.5 -44.59375 C 40.414062 -44.59375 41.007812 -45.96875 41.28125 -48.71875 L 42.875 -48.71875 C 42.6875 -45.738281 42.59375 -40.460938 42.59375 -32.890625 L 41.015625 -32.890625 C 40.503906 -35.867188 40.039062 -38.007812 39.625 -39.3125 C 39.21875 -40.625 38.535156 -41.878906 37.578125 -43.078125 C 36.191406 -44.867188 34.429688 -46.207031 32.296875 -47.09375 C 30.171875 -47.988281 27.867188 -48.4375 25.390625 -48.4375 C 22.410156 -48.4375 19.804688 -47.453125 17.578125 -45.484375 C 15.359375 -43.515625 13.628906 -40.703125 12.390625 -37.046875 C 11.148438 -33.398438 10.53125 -29.125 10.53125 -24.21875 C 10.53125 -19.21875 11.191406 -14.925781 12.515625 -11.34375 C 13.847656 -7.769531 15.695312 -5.050781 18.0625 -3.1875 C 20.425781 -1.332031 23.097656 -0.40625 26.078125 -0.40625 C 28.367188 -0.40625 30.59375 -0.84375 32.75 -1.71875 C 34.90625 -2.59375 36.601562 -3.898438 37.84375 -5.640625 C 38.757812 -6.921875 39.425781 -8.296875 39.84375 -9.765625 C 40.257812 -11.234375 40.648438 -13.484375 41.015625 -16.515625 L 42.59375 -16.515625 C 42.59375 -8.617188 42.6875 -3.113281 42.875 0 L 41.28125 0 C 41.144531 -1.46875 40.953125 -2.507812 40.703125 -3.125 C 40.453125 -3.75 40.097656 -4.0625 39.640625 -4.0625 C 39.265625 -4.0625 38.78125 -3.878906 38.1875 -3.515625 C 36.125 -2.046875 34.148438 -0.929688 32.265625 -0.171875 C 30.390625 0.585938 28.117188 0.96875 25.453125 0.96875 C 21.097656 0.96875 17.28125 -0.015625 14 -1.984375 C 10.71875 -3.960938 8.171875 -6.820312 6.359375 -10.5625 C 4.546875 -14.300781 3.640625 -18.765625 3.640625 -23.953125 C 3.640625 -28.992188 4.566406 -33.460938 6.421875 -37.359375 C 8.285156 -41.265625 10.878906 -44.296875 14.203125 -46.453125 C 17.535156 -48.609375 21.3125 -49.6875 25.53125 -49.6875 Z M 25.53125 -49.6875 "/></g></g></g><g fill="#e3e6e3" fill-opacity="1"><g transform="translate(445.037721, 432.374998)"><g><path d="M 37.84375 -5.78125 C 39.082031 -2.9375 40.664062 -1.46875 42.59375 -1.375 L 42.59375 0 C 40.757812 -0.132812 38.304688 -0.203125 35.234375 -0.203125 C 31.285156 -0.203125 28.347656 -0.132812 26.421875 0 L 26.421875 -1.375 C 28.117188 -1.46875 29.367188 -1.695312 30.171875 -2.0625 C 30.972656 -2.425781 31.375 -3.046875 31.375 -3.921875 C 31.375 -4.648438 31.054688 -5.726562 30.421875 -7.15625 L 26.90625 -15 L 10.1875 -15 L 7.84375 -9.84375 C 7.0625 -8.050781 6.671875 -6.582031 6.671875 -5.4375 C 6.671875 -4.238281 7.09375 -3.304688 7.9375 -2.640625 C 8.789062 -1.984375 10.160156 -1.5625 12.046875 -1.375 L 12.046875 0 C 10.671875 -0.132812 8.582031 -0.203125 5.78125 -0.203125 C 2.976562 -0.203125 0.984375 -0.132812 -0.203125 0 L -0.203125 -1.375 C 1.035156 -1.695312 2.085938 -2.394531 2.953125 -3.46875 C 3.828125 -4.550781 4.65625 -5.988281 5.4375 -7.78125 L 20.640625 -42.1875 L 21.75 -42.1875 Z M 26.359375 -16.375 L 18.578125 -33.859375 L 10.734375 -16.375 Z M 26.359375 -16.375 "/></g></g></g><g fill="#e3e6e3" fill-opacity="1"><g transform="translate(483.97853, 432.374998)"><g><path d="M 55.671875 -40.46875 C 54.015625 -40.375 52.804688 -40.1875 52.046875 -39.90625 C 51.296875 -39.632812 50.78125 -39.109375 50.5 -38.328125 C 50.226562 -37.546875 50.09375 -36.285156 50.09375 -34.546875 L 50.09375 -7.296875 C 50.09375 -5.546875 50.226562 -4.28125 50.5 -3.5 C 50.78125 -2.726562 51.296875 -2.203125 52.046875 -1.921875 C 52.804688 -1.648438 54.015625 -1.46875 55.671875 -1.375 L 55.671875 0 C 53.554688 -0.132812 50.644531 -0.203125 46.9375 -0.203125 C 42.988281 -0.203125 40.050781 -0.132812 38.125 0 L 38.125 -1.375 C 39.769531 -1.46875 40.972656 -1.648438 41.734375 -1.921875 C 42.492188 -2.203125 43.007812 -2.726562 43.28125 -3.5 C 43.5625 -4.28125 43.703125 -5.546875 43.703125 -7.296875 L 43.703125 -37.5 L 27.109375 0.34375 L 26.015625 0.34375 L 10.046875 -37.4375 L 10.046875 -7.984375 C 10.046875 -6.191406 10.191406 -4.859375 10.484375 -3.984375 C 10.785156 -3.117188 11.375 -2.488281 12.25 -2.09375 C 13.125 -1.707031 14.476562 -1.46875 16.3125 -1.375 L 16.3125 0 C 14.65625 -0.132812 12.316406 -0.203125 9.296875 -0.203125 C 6.535156 -0.203125 4.398438 -0.132812 2.890625 0 L 2.890625 -1.375 C 4.492188 -1.46875 5.6875 -1.707031 6.46875 -2.09375 C 7.25 -2.488281 7.773438 -3.132812 8.046875 -4.03125 C 8.328125 -4.925781 8.46875 -6.242188 8.46875 -7.984375 L 8.46875 -34.546875 C 8.46875 -36.285156 8.328125 -37.546875 8.046875 -38.328125 C 7.773438 -39.109375 7.257812 -39.632812 6.5 -39.90625 C 5.75 -40.1875 4.546875 -40.375 2.890625 -40.46875 L 2.890625 -41.84375 C 4.398438 -41.695312 6.535156 -41.625 9.296875 -41.625 C 11.492188 -41.625 13.441406 -41.695312 15.140625 -41.84375 L 28.96875 -8.328125 L 43.703125 -41.625 L 46.9375 -41.625 C 50.644531 -41.625 53.554688 -41.695312 55.671875 -41.84375 Z M 55.671875 -40.46875 "/></g></g></g><g fill="#e3e6e3" fill-opacity="1"><g transform="translate(539.087552, 432.374998)"><g><path d="M 25.046875 -22.296875 C 29.816406 -21.703125 33.234375 -20.40625 35.296875 -18.40625 C 37.359375 -16.40625 38.390625 -14.03125 38.390625 -11.28125 C 38.390625 -9.082031 37.757812 -7.132812 36.5 -5.4375 C 35.238281 -3.738281 33.414062 -2.40625 31.03125 -1.4375 C 28.644531 -0.476562 25.828125 0 22.578125 0 C 21.421875 0 20.429688 -0.0195312 19.609375 -0.0625 C 16.765625 -0.15625 14.035156 -0.203125 11.421875 -0.203125 C 7.660156 -0.203125 4.816406 -0.132812 2.890625 0 L 2.890625 -1.375 C 4.546875 -1.46875 5.75 -1.648438 6.5 -1.921875 C 7.257812 -2.203125 7.773438 -2.726562 8.046875 -3.5 C 8.328125 -4.28125 8.46875 -5.546875 8.46875 -7.296875 L 8.46875 -34.546875 C 8.46875 -36.285156 8.328125 -37.546875 8.046875 -38.328125 C 7.773438 -39.109375 7.257812 -39.632812 6.5 -39.90625 C 5.75 -40.1875 4.546875 -40.375 2.890625 -40.46875 L 2.890625 -41.84375 C 4.816406 -41.695312 7.613281 -41.625 11.28125 -41.625 L 18.296875 -41.703125 C 19.078125 -41.742188 19.972656 -41.765625 20.984375 -41.765625 C 25.429688 -41.765625 28.847656 -40.90625 31.234375 -39.1875 C 33.617188 -37.46875 34.8125 -35.1875 34.8125 -32.34375 C 34.8125 -30.132812 34.03125 -28.160156 32.46875 -26.421875 C 30.914062 -24.679688 28.441406 -23.351562 25.046875 -22.4375 Z M 19.265625 -40.46875 C 18.023438 -40.46875 17.09375 -40.304688 16.46875 -39.984375 C 15.851562 -39.660156 15.429688 -39.082031 15.203125 -38.25 C 14.972656 -37.425781 14.859375 -36.191406 14.859375 -34.546875 L 14.859375 -22.4375 L 18.78125 -22.4375 C 22.3125 -22.4375 24.765625 -23.238281 26.140625 -24.84375 C 27.523438 -26.445312 28.21875 -28.691406 28.21875 -31.578125 C 28.21875 -34.566406 27.503906 -36.796875 26.078125 -38.265625 C 24.660156 -39.734375 22.390625 -40.46875 19.265625 -40.46875 Z M 19.34375 -1.578125 C 23.507812 -1.578125 26.578125 -2.414062 28.546875 -4.09375 C 30.523438 -5.769531 31.515625 -8.257812 31.515625 -11.5625 C 31.515625 -14.769531 30.597656 -17.1875 28.765625 -18.8125 C 26.929688 -20.445312 23.992188 -21.265625 19.953125 -21.265625 L 14.859375 -21.265625 L 14.859375 -7.296875 C 14.859375 -5.640625 14.972656 -4.421875 15.203125 -3.640625 C 15.429688 -2.867188 15.851562 -2.332031 16.46875 -2.03125 C 17.09375 -1.726562 18.050781 -1.578125 19.34375 -1.578125 Z M 19.34375 -1.578125 "/></g></g></g><g fill="#e3e6e3" fill-opacity="1"><g transform="translate(577.133937, 432.374998)"><g><path d="M 20.4375 -40.46875 C 18.78125 -40.375 17.570312 -40.1875 16.8125 -39.90625 C 16.0625 -39.632812 15.546875 -39.109375 15.265625 -38.328125 C 14.992188 -37.546875 14.859375 -36.285156 14.859375 -34.546875 L 14.859375 -7.296875 C 14.859375 -5.546875 14.992188 -4.28125 15.265625 -3.5 C 15.546875 -2.726562 16.0625 -2.203125 16.8125 -1.921875 C 17.570312 -1.648438 18.78125 -1.46875 20.4375 -1.375 L 20.4375 0 C 18.320312 -0.132812 15.410156 -0.203125 11.703125 -0.203125 C 7.753906 -0.203125 4.816406 -0.132812 2.890625 0 L 2.890625 -1.375 C 4.546875 -1.46875 5.75 -1.648438 6.5 -1.921875 C 7.257812 -2.203125 7.773438 -2.726562 8.046875 -3.5 C 8.328125 -4.28125 8.46875 -5.546875 8.46875 -7.296875 L 8.46875 -34.546875 C 8.46875 -36.285156 8.328125 -37.546875 8.046875 -38.328125 C 7.773438 -39.109375 7.257812 -39.632812 6.5 -39.90625 C 5.75 -40.1875 4.546875 -40.375 2.890625 -40.46875 L 2.890625 -41.84375 C 4.816406 -41.695312 7.753906 -41.625 11.703125 -41.625 C 15.367188 -41.625 18.28125 -41.695312 20.4375 -41.84375 Z M 20.4375 -40.46875 "/></g></g></g><g fill="#e3e6e3" fill-opacity="1"><g transform="translate(597.016946, 432.374998)"><g><path d="M 24.84375 -42.796875 C 29.0625 -42.796875 32.765625 -41.957031 35.953125 -40.28125 C 39.140625 -38.613281 41.601562 -36.160156 43.34375 -32.921875 C 45.09375 -29.691406 45.96875 -25.828125 45.96875 -21.328125 C 45.96875 -16.921875 45.0625 -13.03125 43.25 -9.65625 C 41.4375 -6.289062 38.921875 -3.675781 35.703125 -1.8125 C 32.492188 0.0390625 28.847656 0.96875 24.765625 0.96875 C 20.546875 0.96875 16.84375 0.128906 13.65625 -1.546875 C 10.46875 -3.222656 8 -5.675781 6.25 -8.90625 C 4.507812 -12.144531 3.640625 -16.007812 3.640625 -20.5 C 3.640625 -24.90625 4.546875 -28.796875 6.359375 -32.171875 C 8.171875 -35.546875 10.679688 -38.160156 13.890625 -40.015625 C 17.109375 -41.867188 20.757812 -42.796875 24.84375 -42.796875 Z M 24.5625 -41.5625 C 21.769531 -41.5625 19.304688 -40.675781 17.171875 -38.90625 C 15.035156 -37.144531 13.394531 -34.691406 12.25 -31.546875 C 11.101562 -28.410156 10.53125 -24.820312 10.53125 -20.78125 C 10.53125 -16.695312 11.171875 -13.09375 12.453125 -9.96875 C 13.734375 -6.851562 15.472656 -4.457031 17.671875 -2.78125 C 19.878906 -1.113281 22.335938 -0.28125 25.046875 -0.28125 C 27.847656 -0.28125 30.3125 -1.160156 32.4375 -2.921875 C 34.570312 -4.691406 36.210938 -7.144531 37.359375 -10.28125 C 38.503906 -13.425781 39.078125 -17.019531 39.078125 -21.0625 C 39.078125 -25.144531 38.4375 -28.742188 37.15625 -31.859375 C 35.875 -34.984375 34.128906 -37.378906 31.921875 -39.046875 C 29.722656 -40.722656 27.269531 -41.5625 24.5625 -41.5625 Z M 24.5625 -41.5625 "/></g></g></g><g fill="#e3e6e3" fill-opacity="1"><g transform="translate(643.181861, 432.374998)"><g><path d="M 17.609375 -42.796875 C 19.628906 -42.796875 21.222656 -42.578125 22.390625 -42.140625 C 23.566406 -41.710938 24.773438 -41.082031 26.015625 -40.25 C 27.023438 -39.613281 27.800781 -39.296875 28.34375 -39.296875 C 28.757812 -39.296875 29.082031 -39.535156 29.3125 -40.015625 C 29.539062 -40.492188 29.722656 -41.257812 29.859375 -42.3125 L 31.453125 -42.3125 C 31.222656 -39.925781 31.109375 -35.707031 31.109375 -29.65625 L 29.515625 -29.65625 C 29.242188 -32.957031 28.175781 -35.753906 26.3125 -38.046875 C 24.457031 -40.347656 21.765625 -41.5 18.234375 -41.5 C 15.804688 -41.5 13.800781 -40.851562 12.21875 -39.5625 C 10.632812 -38.28125 9.84375 -36.65625 9.84375 -34.6875 C 9.84375 -33.257812 10.195312 -32.019531 10.90625 -30.96875 C 11.613281 -29.914062 12.53125 -29.007812 13.65625 -28.25 C 14.78125 -27.488281 16.375 -26.554688 18.4375 -25.453125 L 20.71875 -24.21875 C 23.5625 -22.707031 25.84375 -21.351562 27.5625 -20.15625 C 29.28125 -18.96875 30.664062 -17.601562 31.71875 -16.0625 C 32.78125 -14.53125 33.3125 -12.753906 33.3125 -10.734375 C 33.3125 -7.015625 31.96875 -4.132812 29.28125 -2.09375 C 26.59375 -0.0507812 23.234375 0.96875 19.203125 0.96875 C 16.992188 0.96875 15.191406 0.738281 13.796875 0.28125 C 12.398438 -0.175781 11.054688 -0.796875 9.765625 -1.578125 C 8.753906 -2.222656 7.976562 -2.546875 7.4375 -2.546875 C 7.019531 -2.546875 6.695312 -2.300781 6.46875 -1.8125 C 6.238281 -1.332031 6.054688 -0.566406 5.921875 0.484375 L 4.328125 0.484375 C 4.515625 -1.765625 4.609375 -6.8125 4.609375 -14.65625 L 6.1875 -14.65625 C 6.507812 -10.382812 7.65625 -6.941406 9.625 -4.328125 C 11.601562 -1.710938 14.632812 -0.40625 18.71875 -0.40625 C 21.007812 -0.40625 22.992188 -1.054688 24.671875 -2.359375 C 26.347656 -3.671875 27.1875 -5.613281 27.1875 -8.1875 C 27.1875 -9.695312 26.75 -11.035156 25.875 -12.203125 C 25 -13.378906 23.828125 -14.425781 22.359375 -15.34375 C 20.890625 -16.257812 18.847656 -17.40625 16.234375 -18.78125 C 12.472656 -20.707031 9.601562 -22.632812 7.625 -24.5625 C 5.65625 -26.488281 4.671875 -28.988281 4.671875 -32.0625 C 4.671875 -35.457031 5.921875 -38.09375 8.421875 -39.96875 C 10.929688 -41.851562 13.992188 -42.796875 17.609375 -42.796875 Z M 17.609375 -42.796875 "/></g></g></g></svg>