<svg xmlns="http://www.w3.org/2000/svg" xmlns:xlink="http://www.w3.org/1999/xlink" width="1080" zoomAndPan="magnify" viewBox="0 0 810 809.999993" height="1080" preserveAspectRatio="xMidYMid meet" version="1.0"><defs><g/></defs><rect x="-81" width="972" fill="#ffffff" y="-80.999999" height="971.999992" fill-opacity="1"/><rect x="-81" width="972" fill="#51877a" y="-80.999999" height="971.999992" fill-opacity="1"/><g fill="#e3e6e3" fill-opacity="1"><g transform="translate(204.135573, 399.75)"><g><path d="M 49.203125 -47.34375 C 47.546875 -47.25 46.335938 -47.0625 45.578125 -46.78125 C 44.828125 -46.507812 44.3125 -45.984375 44.03125 -45.203125 C 43.757812 -44.429688 43.625 -43.171875 43.625 -41.421875 L 43.625 -7.296875 C 43.625 -5.546875 43.757812 -4.28125 44.03125 -3.5 C 44.3125 -2.726562 44.828125 -2.203125 45.578125 -1.921875 C 46.335938 -1.648438 47.546875 -1.46875 49.203125 -1.375 L 49.203125 0 C 47.273438 -0.132812 44.335938 -0.203125 40.390625 -0.203125 C 36.671875 -0.203125 33.757812 -0.132812 31.65625 0 L 31.65625 -1.375 C 33.300781 -1.46875 34.503906 -1.648438 35.265625 -1.921875 C 36.023438 -2.203125 36.539062 -2.726562 36.8125 -3.5 C 37.09375 -4.28125 37.234375 -5.546875 37.234375 -7.296875 L 37.234375 -23.8125 L 14.859375 -23.8125 L 14.859375 -7.296875 C 14.859375 -5.546875 14.992188 -4.28125 15.265625 -3.5 C 15.546875 -2.726562 16.0625 -2.203125 16.8125 -1.921875 C 17.570312 -1.648438 18.78125 -1.46875 20.4375 -1.375 L 20.4375 0 C 18.320312 -0.132812 15.410156 -0.203125 11.703125 -0.203125 C 7.753906 -0.203125 4.816406 -0.132812 2.890625 0 L 2.890625 -1.375 C 4.546875 -1.46875 5.75 -1.648438 6.5 -1.921875 C 7.257812 -2.203125 7.773438 -2.726562 8.046875 -3.5 C 8.328125 -4.28125 8.46875 -5.546875 8.46875 -7.296875 L 8.46875 -41.421875 C 8.46875 -43.171875 8.328125 -44.429688 8.046875 -45.203125 C 7.773438 -45.984375 7.257812 -46.507812 6.5 -46.78125 C 5.75 -47.0625 4.546875 -47.25 2.890625 -47.34375 L 2.890625 -48.71875 C 4.816406 -48.582031 7.753906 -48.515625 11.703125 -48.515625 C 15.367188 -48.515625 18.28125 -48.582031 20.4375 -48.71875 L 20.4375 -47.34375 C 18.78125 -47.25 17.570312 -47.0625 16.8125 -46.78125 C 16.0625 -46.507812 15.546875 -45.984375 15.265625 -45.203125 C 14.992188 -44.429688 14.859375 -43.171875 14.859375 -41.421875 L 14.859375 -25.1875 L 37.234375 -25.1875 L 37.234375 -41.421875 C 37.234375 -43.171875 37.09375 -44.429688 36.8125 -45.203125 C 36.539062 -45.984375 36.023438 -46.507812 35.265625 -46.78125 C 34.503906 -47.0625 33.300781 -47.25 31.65625 -47.34375 L 31.65625 -48.71875 C 33.757812 -48.582031 36.671875 -48.515625 40.390625 -48.515625 C 44.335938 -48.515625 47.273438 -48.582031 49.203125 -48.71875 Z M 49.203125 -47.34375 "/></g></g></g><g fill="#e3e6e3" fill-opacity="1"><g transform="translate(252.777303, 399.75)"><g><path d="M 37.84375 -5.78125 C 39.082031 -2.9375 40.664062 -1.46875 42.59375 -1.375 L 42.59375 0 C 40.757812 -0.132812 38.304688 -0.203125 35.234375 -0.203125 C 31.285156 -0.203125 28.347656 -0.132812 26.421875 0 L 26.421875 -1.375 C 28.117188 -1.46875 29.367188 -1.695312 30.171875 -2.0625 C 30.972656 -2.425781 31.375 -3.046875 31.375 -3.921875 C 31.375 -4.648438 31.054688 -5.726562 30.421875 -7.15625 L 26.90625 -15 L 10.1875 -15 L 7.84375 -9.84375 C 7.0625 -8.050781 6.671875 -6.582031 6.671875 -5.4375 C 6.671875 -4.238281 7.09375 -3.304688 7.9375 -2.640625 C 8.789062 -1.984375 10.160156 -1.5625 12.046875 -1.375 L 12.046875 0 C 10.671875 -0.132812 8.582031 -0.203125 5.78125 -0.203125 C 2.976562 -0.203125 0.984375 -0.132812 -0.203125 0 L -0.203125 -1.375 C 1.035156 -1.695312 2.085938 -2.394531 2.953125 -3.46875 C 3.828125 -4.550781 4.65625 -5.988281 5.4375 -7.78125 L 20.640625 -42.1875 L 21.75 -42.1875 Z M 26.359375 -16.375 L 18.578125 -33.859375 L 10.734375 -16.375 Z M 26.359375 -16.375 "/></g></g></g><g fill="#e3e6e3" fill-opacity="1"><g transform="translate(291.718118, 399.75)"><g><path d="M 25.046875 -22.296875 C 29.816406 -21.703125 33.234375 -20.40625 35.296875 -18.40625 C 37.359375 -16.40625 38.390625 -14.03125 38.390625 -11.28125 C 38.390625 -9.082031 37.757812 -7.132812 36.5 -5.4375 C 35.238281 -3.738281 33.414062 -2.40625 31.03125 -1.4375 C 28.644531 -0.476562 25.828125 0 22.578125 0 C 21.421875 0 20.429688 -0.0195312 19.609375 -0.0625 C 16.765625 -0.15625 14.035156 -0.203125 11.421875 -0.203125 C 7.660156 -0.203125 4.816406 -0.132812 2.890625 0 L 2.890625 -1.375 C 4.546875 -1.46875 5.75 -1.648438 6.5 -1.921875 C 7.257812 -2.203125 7.773438 -2.726562 8.046875 -3.5 C 8.328125 -4.28125 8.46875 -5.546875 8.46875 -7.296875 L 8.46875 -34.546875 C 8.46875 -36.285156 8.328125 -37.546875 8.046875 -38.328125 C 7.773438 -39.109375 7.257812 -39.632812 6.5 -39.90625 C 5.75 -40.1875 4.546875 -40.375 2.890625 -40.46875 L 2.890625 -41.84375 C 4.816406 -41.695312 7.613281 -41.625 11.28125 -41.625 L 18.296875 -41.703125 C 19.078125 -41.742188 19.972656 -41.765625 20.984375 -41.765625 C 25.429688 -41.765625 28.847656 -40.90625 31.234375 -39.1875 C 33.617188 -37.46875 34.8125 -35.1875 34.8125 -32.34375 C 34.8125 -30.132812 34.03125 -28.160156 32.46875 -26.421875 C 30.914062 -24.679688 28.441406 -23.351562 25.046875 -22.4375 Z M 19.265625 -40.46875 C 18.023438 -40.46875 17.09375 -40.304688 16.46875 -39.984375 C 15.851562 -39.660156 15.429688 -39.082031 15.203125 -38.25 C 14.972656 -37.425781 14.859375 -36.191406 14.859375 -34.546875 L 14.859375 -22.4375 L 18.78125 -22.4375 C 22.3125 -22.4375 24.765625 -23.238281 26.140625 -24.84375 C 27.523438 -26.445312 28.21875 -28.691406 28.21875 -31.578125 C 28.21875 -34.566406 27.503906 -36.796875 26.078125 -38.265625 C 24.660156 -39.734375 22.390625 -40.46875 19.265625 -40.46875 Z M 19.34375 -1.578125 C 23.507812 -1.578125 26.578125 -2.414062 28.546875 -4.09375 C 30.523438 -5.769531 31.515625 -8.257812 31.515625 -11.5625 C 31.515625 -14.769531 30.597656 -17.1875 28.765625 -18.8125 C 26.929688 -20.445312 23.992188 -21.265625 19.953125 -21.265625 L 14.859375 -21.265625 L 14.859375 -7.296875 C 14.859375 -5.640625 14.972656 -4.421875 15.203125 -3.640625 C 15.429688 -2.867188 15.851562 -2.332031 16.46875 -2.03125 C 17.09375 -1.726562 18.050781 -1.578125 19.34375 -1.578125 Z M 19.34375 -1.578125 "/></g></g></g><g fill="#e3e6e3" fill-opacity="1"><g transform="translate(329.764526, 399.75)"><g><path d="M 20.4375 -40.46875 C 18.78125 -40.375 17.570312 -40.1875 16.8125 -39.90625 C 16.0625 -39.632812 15.546875 -39.109375 15.265625 -38.328125 C 14.992188 -37.546875 14.859375 -36.285156 14.859375 -34.546875 L 14.859375 -7.296875 C 14.859375 -5.546875 14.992188 -4.28125 15.265625 -3.5 C 15.546875 -2.726562 16.0625 -2.203125 16.8125 -1.921875 C 17.570312 -1.648438 18.78125 -1.46875 20.4375 -1.375 L 20.4375 0 C 18.320312 -0.132812 15.410156 -0.203125 11.703125 -0.203125 C 7.753906 -0.203125 4.816406 -0.132812 2.890625 0 L 2.890625 -1.375 C 4.546875 -1.46875 5.75 -1.648438 6.5 -1.921875 C 7.257812 -2.203125 7.773438 -2.726562 8.046875 -3.5 C 8.328125 -4.28125 8.46875 -5.546875 8.46875 -7.296875 L 8.46875 -34.546875 C 8.46875 -36.285156 8.328125 -37.546875 8.046875 -38.328125 C 7.773438 -39.109375 7.257812 -39.632812 6.5 -39.90625 C 5.75 -40.1875 4.546875 -40.375 2.890625 -40.46875 L 2.890625 -41.84375 C 4.816406 -41.695312 7.753906 -41.625 11.703125 -41.625 C 15.367188 -41.625 18.28125 -41.695312 20.4375 -41.84375 Z M 20.4375 -40.46875 "/></g></g></g><g fill="#e3e6e3" fill-opacity="1"><g transform="translate(349.647524, 399.75)"><g><path d="M 20.4375 -40.46875 C 18.78125 -40.375 17.570312 -40.1875 16.8125 -39.90625 C 16.0625 -39.632812 15.546875 -39.109375 15.265625 -38.328125 C 14.992188 -37.546875 14.859375 -36.285156 14.859375 -34.546875 L 14.859375 -7.296875 C 14.859375 -5.546875 14.992188 -4.28125 15.265625 -3.5 C 15.546875 -2.726562 16.0625 -2.210938 16.8125 -1.953125 C 17.570312 -1.703125 18.78125 -1.578125 20.4375 -1.578125 L 24.765625 -1.578125 C 27.929688 -1.578125 30.394531 -2.515625 32.15625 -4.390625 C 33.925781 -6.273438 35 -9.398438 35.375 -13.765625 L 36.953125 -13.765625 C 36.816406 -12.335938 36.75 -10.457031 36.75 -8.125 C 36.75 -5.738281 36.910156 -3.03125 37.234375 0 C 34.242188 -0.132812 29.21875 -0.203125 22.15625 -0.203125 C 13.664062 -0.203125 7.242188 -0.132812 2.890625 0 L 2.890625 -1.375 C 4.546875 -1.46875 5.75 -1.648438 6.5 -1.921875 C 7.257812 -2.203125 7.773438 -2.726562 8.046875 -3.5 C 8.328125 -4.28125 8.46875 -5.546875 8.46875 -7.296875 L 8.46875 -34.546875 C 8.46875 -36.285156 8.328125 -37.546875 8.046875 -38.328125 C 7.773438 -39.109375 7.257812 -39.632812 6.5 -39.90625 C 5.75 -40.1875 4.546875 -40.375 2.890625 -40.46875 L 2.890625 -41.84375 C 4.816406 -41.695312 7.753906 -41.625 11.703125 -41.625 C 15.367188 -41.625 18.28125 -41.695312 20.4375 -41.84375 Z M 20.4375 -40.46875 "/></g></g></g><g fill="#e3e6e3" fill-opacity="1"><g transform="translate(385.62991, 399.75)"><g><path d="M 20.4375 -40.46875 C 18.78125 -40.375 17.570312 -40.1875 16.8125 -39.90625 C 16.0625 -39.632812 15.546875 -39.109375 15.265625 -38.328125 C 14.992188 -37.546875 14.859375 -36.285156 14.859375 -34.546875 L 14.859375 -7.296875 C 14.859375 -5.546875 14.992188 -4.28125 15.265625 -3.5 C 15.546875 -2.726562 16.0625 -2.203125 16.8125 -1.921875 C 17.570312 -1.648438 18.78125 -1.46875 20.4375 -1.375 L 20.4375 0 C 18.320312 -0.132812 15.410156 -0.203125 11.703125 -0.203125 C 7.753906 -0.203125 4.816406 -0.132812 2.890625 0 L 2.890625 -1.375 C 4.546875 -1.46875 5.75 -1.648438 6.5 -1.921875 C 7.257812 -2.203125 7.773438 -2.726562 8.046875 -3.5 C 8.328125 -4.28125 8.46875 -5.546875 8.46875 -7.296875 L 8.46875 -34.546875 C 8.46875 -36.285156 8.328125 -37.546875 8.046875 -38.328125 C 7.773438 -39.109375 7.257812 -39.632812 6.5 -39.90625 C 5.75 -40.1875 4.546875 -40.375 2.890625 -40.46875 L 2.890625 -41.84375 C 4.816406 -41.695312 7.753906 -41.625 11.703125 -41.625 C 15.367188 -41.625 18.28125 -41.695312 20.4375 -41.84375 Z M 20.4375 -40.46875 "/></g></g></g><g fill="#e3e6e3" fill-opacity="1"><g transform="translate(405.512897, 399.75)"><g><path d="M 21.671875 -41.84375 C 28.828125 -41.84375 34.207031 -40.109375 37.8125 -36.640625 C 41.414062 -33.179688 43.21875 -28.125 43.21875 -21.46875 C 43.21875 -17.15625 42.34375 -13.378906 40.59375 -10.140625 C 38.851562 -6.910156 36.316406 -4.410156 32.984375 -2.640625 C 29.660156 -0.878906 25.6875 0 21.0625 0 L 17.0625 -0.0625 C 14.5 -0.15625 12.617188 -0.203125 11.421875 -0.203125 C 7.660156 -0.203125 4.816406 -0.132812 2.890625 0 L 2.890625 -1.375 C 4.546875 -1.46875 5.75 -1.648438 6.5 -1.921875 C 7.257812 -2.203125 7.773438 -2.726562 8.046875 -3.5 C 8.328125 -4.28125 8.46875 -5.546875 8.46875 -7.296875 L 8.46875 -34.546875 C 8.46875 -36.285156 8.328125 -37.546875 8.046875 -38.328125 C 7.773438 -39.109375 7.257812 -39.632812 6.5 -39.90625 C 5.75 -40.1875 4.546875 -40.375 2.890625 -40.46875 L 2.890625 -41.84375 C 4.492188 -41.695312 6.71875 -41.625 9.5625 -41.625 L 15.40625 -41.703125 C 18.53125 -41.796875 20.617188 -41.84375 21.671875 -41.84375 Z M 19.953125 -40.59375 C 18.535156 -40.59375 17.46875 -40.429688 16.75 -40.109375 C 16.039062 -39.796875 15.546875 -39.222656 15.265625 -38.390625 C 14.992188 -37.566406 14.859375 -36.332031 14.859375 -34.6875 L 14.859375 -7.15625 C 14.859375 -5.5 14.992188 -4.257812 15.265625 -3.4375 C 15.546875 -2.613281 16.039062 -2.039062 16.75 -1.71875 C 17.46875 -1.394531 18.5625 -1.234375 20.03125 -1.234375 C 24.195312 -1.234375 27.472656 -1.976562 29.859375 -3.46875 C 32.242188 -4.96875 33.914062 -7.160156 34.875 -10.046875 C 35.84375 -12.929688 36.328125 -16.644531 36.328125 -21.1875 C 36.328125 -27.882812 35.085938 -32.789062 32.609375 -35.90625 C 30.140625 -39.03125 25.921875 -40.59375 19.953125 -40.59375 Z M 19.953125 -40.59375 "/></g></g></g><g fill="#e3e6e3" fill-opacity="1"><g transform="translate(449.063363, 399.75)"><g><path d="M 37.84375 -5.78125 C 39.082031 -2.9375 40.664062 -1.46875 42.59375 -1.375 L 42.59375 0 C 40.757812 -0.132812 38.304688 -0.203125 35.234375 -0.203125 C 31.285156 -0.203125 28.347656 -0.132812 26.421875 0 L 26.421875 -1.375 C 28.117188 -1.46875 29.367188 -1.695312 30.171875 -2.0625 C 30.972656 -2.425781 31.375 -3.046875 31.375 -3.921875 C 31.375 -4.648438 31.054688 -5.726562 30.421875 -7.15625 L 26.90625 -15 L 10.1875 -15 L 7.84375 -9.84375 C 7.0625 -8.050781 6.671875 -6.582031 6.671875 -5.4375 C 6.671875 -4.238281 7.09375 -3.304688 7.9375 -2.640625 C 8.789062 -1.984375 10.160156 -1.5625 12.046875 -1.375 L 12.046875 0 C 10.671875 -0.132812 8.582031 -0.203125 5.78125 -0.203125 C 2.976562 -0.203125 0.984375 -0.132812 -0.203125 0 L -0.203125 -1.375 C 1.035156 -1.695312 2.085938 -2.394531 2.953125 -3.46875 C 3.828125 -4.550781 4.65625 -5.988281 5.4375 -7.78125 L 20.640625 -42.1875 L 21.75 -42.1875 Z M 26.359375 -16.375 L 18.578125 -33.859375 L 10.734375 -16.375 Z M 26.359375 -16.375 "/></g></g></g><g fill="#e3e6e3" fill-opacity="1"><g transform="translate(488.004173, 399.75)"><g><path d="M 21.671875 -41.84375 C 28.828125 -41.84375 34.207031 -40.109375 37.8125 -36.640625 C 41.414062 -33.179688 43.21875 -28.125 43.21875 -21.46875 C 43.21875 -17.15625 42.34375 -13.378906 40.59375 -10.140625 C 38.851562 -6.910156 36.316406 -4.410156 32.984375 -2.640625 C 29.660156 -0.878906 25.6875 0 21.0625 0 L 17.0625 -0.0625 C 14.5 -0.15625 12.617188 -0.203125 11.421875 -0.203125 C 7.660156 -0.203125 4.816406 -0.132812 2.890625 0 L 2.890625 -1.375 C 4.546875 -1.46875 5.75 -1.648438 6.5 -1.921875 C 7.257812 -2.203125 7.773438 -2.726562 8.046875 -3.5 C 8.328125 -4.28125 8.46875 -5.546875 8.46875 -7.296875 L 8.46875 -34.546875 C 8.46875 -36.285156 8.328125 -37.546875 8.046875 -38.328125 C 7.773438 -39.109375 7.257812 -39.632812 6.5 -39.90625 C 5.75 -40.1875 4.546875 -40.375 2.890625 -40.46875 L 2.890625 -41.84375 C 4.492188 -41.695312 6.71875 -41.625 9.5625 -41.625 L 15.40625 -41.703125 C 18.53125 -41.796875 20.617188 -41.84375 21.671875 -41.84375 Z M 19.953125 -40.59375 C 18.535156 -40.59375 17.46875 -40.429688 16.75 -40.109375 C 16.039062 -39.796875 15.546875 -39.222656 15.265625 -38.390625 C 14.992188 -37.566406 14.859375 -36.332031 14.859375 -34.6875 L 14.859375 -7.15625 C 14.859375 -5.5 14.992188 -4.257812 15.265625 -3.4375 C 15.546875 -2.613281 16.039062 -2.039062 16.75 -1.71875 C 17.46875 -1.394531 18.5625 -1.234375 20.03125 -1.234375 C 24.195312 -1.234375 27.472656 -1.976562 29.859375 -3.46875 C 32.242188 -4.96875 33.914062 -7.160156 34.875 -10.046875 C 35.84375 -12.929688 36.328125 -16.644531 36.328125 -21.1875 C 36.328125 -27.882812 35.085938 -32.789062 32.609375 -35.90625 C 30.140625 -39.03125 25.921875 -40.59375 19.953125 -40.59375 Z M 19.953125 -40.59375 "/></g></g></g><g fill="#e3e6e3" fill-opacity="1"><g transform="translate(531.554639, 399.75)"><g><path d="M 36.75 -8.125 C 36.75 -5.738281 36.910156 -3.03125 37.234375 0 C 34.242188 -0.132812 29.21875 -0.203125 22.15625 -0.203125 C 13.664062 -0.203125 7.242188 -0.132812 2.890625 0 L 2.890625 -1.375 C 4.546875 -1.46875 5.75 -1.648438 6.5 -1.921875 C 7.257812 -2.203125 7.773438 -2.726562 8.046875 -3.5 C 8.328125 -4.28125 8.46875 -5.546875 8.46875 -7.296875 L 8.46875 -34.546875 C 8.46875 -36.285156 8.328125 -37.546875 8.046875 -38.328125 C 7.773438 -39.109375 7.257812 -39.632812 6.5 -39.90625 C 5.75 -40.1875 4.546875 -40.375 2.890625 -40.46875 L 2.890625 -41.84375 C 7.242188 -41.695312 13.664062 -41.625 22.15625 -41.625 C 28.582031 -41.625 33.144531 -41.695312 35.84375 -41.84375 C 35.53125 -39.082031 35.375 -36.601562 35.375 -34.40625 C 35.375 -32.613281 35.441406 -31.191406 35.578125 -30.140625 L 34 -30.140625 C 33.675781 -33.898438 32.882812 -36.523438 31.625 -38.015625 C 30.363281 -39.503906 28.304688 -40.25 25.453125 -40.25 L 20.4375 -40.25 C 18.78125 -40.25 17.570312 -40.125 16.8125 -39.875 C 16.0625 -39.625 15.546875 -39.109375 15.265625 -38.328125 C 14.992188 -37.546875 14.859375 -36.285156 14.859375 -34.546875 L 14.859375 -21.75 L 20.578125 -21.75 C 22.046875 -21.75 23.164062 -22.125 23.9375 -22.875 C 24.71875 -23.632812 25.242188 -24.460938 25.515625 -25.359375 C 25.796875 -26.253906 26.050781 -27.390625 26.28125 -28.765625 L 27.875 -28.765625 C 27.726562 -27.203125 27.65625 -25.503906 27.65625 -23.671875 L 27.65625 -21.0625 C 27.65625 -19.269531 27.796875 -16.695312 28.078125 -13.34375 L 26.5 -13.34375 C 26.21875 -15.550781 25.6875 -17.273438 24.90625 -18.515625 C 24.125 -19.753906 22.679688 -20.375 20.578125 -20.375 L 14.859375 -20.375 L 14.859375 -7.296875 C 14.859375 -5.546875 14.992188 -4.28125 15.265625 -3.5 C 15.546875 -2.726562 16.0625 -2.210938 16.8125 -1.953125 C 17.570312 -1.703125 18.78125 -1.578125 20.4375 -1.578125 L 25.453125 -1.578125 C 27.753906 -1.578125 29.566406 -1.941406 30.890625 -2.671875 C 32.222656 -3.410156 33.234375 -4.59375 33.921875 -6.21875 C 34.609375 -7.851562 35.09375 -10.140625 35.375 -13.078125 L 36.953125 -13.078125 C 36.816406 -11.835938 36.75 -10.1875 36.75 -8.125 Z M 36.75 -8.125 "/></g></g></g><g fill="#e3e6e3" fill-opacity="1"><g transform="translate(569.050631, 399.75)"><g><path d="M 17.609375 -42.796875 C 19.628906 -42.796875 21.222656 -42.578125 22.390625 -42.140625 C 23.566406 -41.710938 24.773438 -41.082031 26.015625 -40.25 C 27.023438 -39.613281 27.800781 -39.296875 28.34375 -39.296875 C 28.757812 -39.296875 29.082031 -39.535156 29.3125 -40.015625 C 29.539062 -40.492188 29.722656 -41.257812 29.859375 -42.3125 L 31.453125 -42.3125 C 31.222656 -39.925781 31.109375 -35.707031 31.109375 -29.65625 L 29.515625 -29.65625 C 29.242188 -32.957031 28.175781 -35.753906 26.3125 -38.046875 C 24.457031 -40.347656 21.765625 -41.5 18.234375 -41.5 C 15.804688 -41.5 13.800781 -40.851562 12.21875 -39.5625 C 10.632812 -38.28125 9.84375 -36.65625 9.84375 -34.6875 C 9.84375 -33.257812 10.195312 -32.019531 10.90625 -30.96875 C 11.613281 -29.914062 12.53125 -29.007812 13.65625 -28.25 C 14.78125 -27.488281 16.375 -26.554688 18.4375 -25.453125 L 20.71875 -24.21875 C 23.5625 -22.707031 25.84375 -21.351562 27.5625 -20.15625 C 29.28125 -18.96875 30.664062 -17.601562 31.71875 -16.0625 C 32.78125 -14.53125 33.3125 -12.753906 33.3125 -10.734375 C 33.3125 -7.015625 31.96875 -4.132812 29.28125 -2.09375 C 26.59375 -0.0507812 23.234375 0.96875 19.203125 0.96875 C 16.992188 0.96875 15.191406 0.738281 13.796875 0.28125 C 12.398438 -0.175781 11.054688 -0.796875 9.765625 -1.578125 C 8.753906 -2.222656 7.976562 -2.546875 7.4375 -2.546875 C 7.019531 -2.546875 6.695312 -2.300781 6.46875 -1.8125 C 6.238281 -1.332031 6.054688 -0.566406 5.921875 0.484375 L 4.328125 0.484375 C 4.515625 -1.765625 4.609375 -6.8125 4.609375 -14.65625 L 6.1875 -14.65625 C 6.507812 -10.382812 7.65625 -6.941406 9.625 -4.328125 C 11.601562 -1.710938 14.632812 -0.40625 18.71875 -0.40625 C 21.007812 -0.40625 22.992188 -1.054688 24.671875 -2.359375 C 26.347656 -3.671875 27.1875 -5.613281 27.1875 -8.1875 C 27.1875 -9.695312 26.75 -11.035156 25.875 -12.203125 C 25 -13.378906 23.828125 -14.425781 22.359375 -15.34375 C 20.890625 -16.257812 18.847656 -17.40625 16.234375 -18.78125 C 12.472656 -20.707031 9.601562 -22.632812 7.625 -24.5625 C 5.65625 -26.488281 4.671875 -28.988281 4.671875 -32.0625 C 4.671875 -35.457031 5.921875 -38.09375 8.421875 -39.96875 C 10.929688 -41.851562 13.992188 -42.796875 17.609375 -42.796875 Z M 17.609375 -42.796875 "/></g></g></g><g fill="#e3e6e3" fill-opacity="1"><g transform="translate(260.268386, 464.999997)"><g><path d="M 17.609375 -42.796875 C 19.628906 -42.796875 21.222656 -42.578125 22.390625 -42.140625 C 23.566406 -41.710938 24.773438 -41.082031 26.015625 -40.25 C 27.023438 -39.613281 27.800781 -39.296875 28.34375 -39.296875 C 28.757812 -39.296875 29.082031 -39.535156 29.3125 -40.015625 C 29.539062 -40.492188 29.722656 -41.257812 29.859375 -42.3125 L 31.453125 -42.3125 C 31.222656 -39.925781 31.109375 -35.707031 31.109375 -29.65625 L 29.515625 -29.65625 C 29.242188 -32.957031 28.175781 -35.753906 26.3125 -38.046875 C 24.457031 -40.347656 21.765625 -41.5 18.234375 -41.5 C 15.804688 -41.5 13.800781 -40.851562 12.21875 -39.5625 C 10.632812 -38.28125 9.84375 -36.65625 9.84375 -34.6875 C 9.84375 -33.257812 10.195312 -32.019531 10.90625 -30.96875 C 11.613281 -29.914062 12.53125 -29.007812 13.65625 -28.25 C 14.78125 -27.488281 16.375 -26.554688 18.4375 -25.453125 L 20.71875 -24.21875 C 23.5625 -22.707031 25.84375 -21.351562 27.5625 -20.15625 C 29.28125 -18.96875 30.664062 -17.601562 31.71875 -16.0625 C 32.78125 -14.53125 33.3125 -12.753906 33.3125 -10.734375 C 33.3125 -7.015625 31.96875 -4.132812 29.28125 -2.09375 C 26.59375 -0.0507812 23.234375 0.96875 19.203125 0.96875 C 16.992188 0.96875 15.191406 0.738281 13.796875 0.28125 C 12.398438 -0.175781 11.054688 -0.796875 9.765625 -1.578125 C 8.753906 -2.222656 7.976562 -2.546875 7.4375 -2.546875 C 7.019531 -2.546875 6.695312 -2.300781 6.46875 -1.8125 C 6.238281 -1.332031 6.054688 -0.566406 5.921875 0.484375 L 4.328125 0.484375 C 4.515625 -1.765625 4.609375 -6.8125 4.609375 -14.65625 L 6.1875 -14.65625 C 6.507812 -10.382812 7.65625 -6.941406 9.625 -4.328125 C 11.601562 -1.710938 14.632812 -0.40625 18.71875 -0.40625 C 21.007812 -0.40625 22.992188 -1.054688 24.671875 -2.359375 C 26.347656 -3.671875 27.1875 -5.613281 27.1875 -8.1875 C 27.1875 -9.695312 26.75 -11.035156 25.875 -12.203125 C 25 -13.378906 23.828125 -14.425781 22.359375 -15.34375 C 20.890625 -16.257812 18.847656 -17.40625 16.234375 -18.78125 C 12.472656 -20.707031 9.601562 -22.632812 7.625 -24.5625 C 5.65625 -26.488281 4.671875 -28.988281 4.671875 -32.0625 C 4.671875 -35.457031 5.921875 -38.09375 8.421875 -39.96875 C 10.929688 -41.851562 13.992188 -42.796875 17.609375 -42.796875 Z M 17.609375 -42.796875 "/></g></g></g><g fill="#e3e6e3" fill-opacity="1"><g transform="translate(293.636343, 464.999997)"><g><path d="M 24.84375 -42.796875 C 29.0625 -42.796875 32.765625 -41.957031 35.953125 -40.28125 C 39.140625 -38.613281 41.601562 -36.160156 43.34375 -32.921875 C 45.09375 -29.691406 45.96875 -25.828125 45.96875 -21.328125 C 45.96875 -16.921875 45.0625 -13.03125 43.25 -9.65625 C 41.4375 -6.289062 38.921875 -3.675781 35.703125 -1.8125 C 32.492188 0.0390625 28.847656 0.96875 24.765625 0.96875 C 20.546875 0.96875 16.84375 0.128906 13.65625 -1.546875 C 10.46875 -3.222656 8 -5.675781 6.25 -8.90625 C 4.507812 -12.144531 3.640625 -16.007812 3.640625 -20.5 C 3.640625 -24.90625 4.546875 -28.796875 6.359375 -32.171875 C 8.171875 -35.546875 10.679688 -38.160156 13.890625 -40.015625 C 17.109375 -41.867188 20.757812 -42.796875 24.84375 -42.796875 Z M 24.5625 -41.5625 C 21.769531 -41.5625 19.304688 -40.675781 17.171875 -38.90625 C 15.035156 -37.144531 13.394531 -34.691406 12.25 -31.546875 C 11.101562 -28.410156 10.53125 -24.820312 10.53125 -20.78125 C 10.53125 -16.695312 11.171875 -13.09375 12.453125 -9.96875 C 13.734375 -6.851562 15.472656 -4.457031 17.671875 -2.78125 C 19.878906 -1.113281 22.335938 -0.28125 25.046875 -0.28125 C 27.847656 -0.28125 30.3125 -1.160156 32.4375 -2.921875 C 34.570312 -4.691406 36.210938 -7.144531 37.359375 -10.28125 C 38.503906 -13.425781 39.078125 -17.019531 39.078125 -21.0625 C 39.078125 -25.144531 38.4375 -28.742188 37.15625 -31.859375 C 35.875 -34.984375 34.128906 -37.378906 31.921875 -39.046875 C 29.722656 -40.722656 27.269531 -41.5625 24.5625 -41.5625 Z M 24.5625 -41.5625 "/></g></g></g><g fill="#e3e6e3" fill-opacity="1"><g transform="translate(339.801244, 464.999997)"><g><path d="M 24.21875 -42.796875 C 26.46875 -42.796875 28.367188 -42.414062 29.921875 -41.65625 C 31.484375 -40.90625 33.113281 -39.796875 34.8125 -38.328125 C 35.320312 -37.910156 35.757812 -37.703125 36.125 -37.703125 C 37.039062 -37.703125 37.640625 -39.082031 37.921875 -41.84375 L 39.5 -41.84375 C 39.3125 -39.082031 39.21875 -34.265625 39.21875 -27.390625 L 37.640625 -27.390625 C 37.179688 -29.773438 36.722656 -31.539062 36.265625 -32.6875 C 35.804688 -33.832031 35.117188 -35.003906 34.203125 -36.203125 C 32.910156 -37.890625 31.367188 -39.179688 29.578125 -40.078125 C 27.796875 -40.972656 25.921875 -41.421875 23.953125 -41.421875 C 21.242188 -41.421875 18.890625 -40.59375 16.890625 -38.9375 C 14.898438 -37.289062 13.351562 -34.90625 12.25 -31.78125 C 11.144531 -28.664062 10.59375 -25 10.59375 -20.78125 C 10.59375 -16.46875 11.203125 -12.785156 12.421875 -9.734375 C 13.640625 -6.679688 15.289062 -4.363281 17.375 -2.78125 C 19.457031 -1.195312 21.804688 -0.40625 24.421875 -0.40625 C 26.441406 -0.40625 28.378906 -0.851562 30.234375 -1.75 C 32.097656 -2.644531 33.671875 -3.941406 34.953125 -5.640625 C 35.828125 -6.835938 36.484375 -8.097656 36.921875 -9.421875 C 37.359375 -10.753906 37.757812 -12.660156 38.125 -15.140625 L 39.703125 -15.140625 C 39.703125 -7.929688 39.796875 -2.882812 39.984375 0 L 38.390625 0 C 38.253906 -1.425781 38.046875 -2.46875 37.765625 -3.125 C 37.492188 -3.789062 37.128906 -4.125 36.671875 -4.125 C 36.304688 -4.125 35.847656 -3.921875 35.296875 -3.515625 C 33.554688 -2.046875 31.859375 -0.929688 30.203125 -0.171875 C 28.554688 0.585938 26.539062 0.96875 24.15625 0.96875 C 20.070312 0.96875 16.492188 0.128906 13.421875 -1.546875 C 10.347656 -3.222656 7.960938 -5.675781 6.265625 -8.90625 C 4.566406 -12.144531 3.71875 -16.007812 3.71875 -20.5 C 3.71875 -24.90625 4.585938 -28.796875 6.328125 -32.171875 C 8.078125 -35.546875 10.507812 -38.160156 13.625 -40.015625 C 16.738281 -41.867188 20.269531 -42.796875 24.21875 -42.796875 Z M 24.21875 -42.796875 "/></g></g></g><g fill="#e3e6e3" fill-opacity="1"><g transform="translate(380.599687, 464.999997)"><g><path d="M 20.4375 -40.46875 C 18.78125 -40.375 17.570312 -40.1875 16.8125 -39.90625 C 16.0625 -39.632812 15.546875 -39.109375 15.265625 -38.328125 C 14.992188 -37.546875 14.859375 -36.285156 14.859375 -34.546875 L 14.859375 -7.296875 C 14.859375 -5.546875 14.992188 -4.28125 15.265625 -3.5 C 15.546875 -2.726562 16.0625 -2.203125 16.8125 -1.921875 C 17.570312 -1.648438 18.78125 -1.46875 20.4375 -1.375 L 20.4375 0 C 18.320312 -0.132812 15.410156 -0.203125 11.703125 -0.203125 C 7.753906 -0.203125 4.816406 -0.132812 2.890625 0 L 2.890625 -1.375 C 4.546875 -1.46875 5.75 -1.648438 6.5 -1.921875 C 7.257812 -2.203125 7.773438 -2.726562 8.046875 -3.5 C 8.328125 -4.28125 8.46875 -5.546875 8.46875 -7.296875 L 8.46875 -34.546875 C 8.46875 -36.285156 8.328125 -37.546875 8.046875 -38.328125 C 7.773438 -39.109375 7.257812 -39.632812 6.5 -39.90625 C 5.75 -40.1875 4.546875 -40.375 2.890625 -40.46875 L 2.890625 -41.84375 C 4.816406 -41.695312 7.753906 -41.625 11.703125 -41.625 C 15.367188 -41.625 18.28125 -41.695312 20.4375 -41.84375 Z M 20.4375 -40.46875 "/></g></g></g><g fill="#e3e6e3" fill-opacity="1"><g transform="translate(400.482685, 464.999997)"><g><path d="M 37.84375 -5.78125 C 39.082031 -2.9375 40.664062 -1.46875 42.59375 -1.375 L 42.59375 0 C 40.757812 -0.132812 38.304688 -0.203125 35.234375 -0.203125 C 31.285156 -0.203125 28.347656 -0.132812 26.421875 0 L 26.421875 -1.375 C 28.117188 -1.46875 29.367188 -1.695312 30.171875 -2.0625 C 30.972656 -2.425781 31.375 -3.046875 31.375 -3.921875 C 31.375 -4.648438 31.054688 -5.726562 30.421875 -7.15625 L 26.90625 -15 L 10.1875 -15 L 7.84375 -9.84375 C 7.0625 -8.050781 6.671875 -6.582031 6.671875 -5.4375 C 6.671875 -4.238281 7.09375 -3.304688 7.9375 -2.640625 C 8.789062 -1.984375 10.160156 -1.5625 12.046875 -1.375 L 12.046875 0 C 10.671875 -0.132812 8.582031 -0.203125 5.78125 -0.203125 C 2.976562 -0.203125 0.984375 -0.132812 -0.203125 0 L -0.203125 -1.375 C 1.035156 -1.695312 2.085938 -2.394531 2.953125 -3.46875 C 3.828125 -4.550781 4.65625 -5.988281 5.4375 -7.78125 L 20.640625 -42.1875 L 21.75 -42.1875 Z M 26.359375 -16.375 L 18.578125 -33.859375 L 10.734375 -16.375 Z M 26.359375 -16.375 "/></g></g></g><g fill="#e3e6e3" fill-opacity="1"><g transform="translate(439.423506, 464.999997)"><g><path d="M 20.4375 -40.46875 C 18.78125 -40.375 17.570312 -40.1875 16.8125 -39.90625 C 16.0625 -39.632812 15.546875 -39.109375 15.265625 -38.328125 C 14.992188 -37.546875 14.859375 -36.285156 14.859375 -34.546875 L 14.859375 -7.296875 C 14.859375 -5.546875 14.992188 -4.28125 15.265625 -3.5 C 15.546875 -2.726562 16.0625 -2.210938 16.8125 -1.953125 C 17.570312 -1.703125 18.78125 -1.578125 20.4375 -1.578125 L 24.765625 -1.578125 C 27.929688 -1.578125 30.394531 -2.515625 32.15625 -4.390625 C 33.925781 -6.273438 35 -9.398438 35.375 -13.765625 L 36.953125 -13.765625 C 36.816406 -12.335938 36.75 -10.457031 36.75 -8.125 C 36.75 -5.738281 36.910156 -3.03125 37.234375 0 C 34.242188 -0.132812 29.21875 -0.203125 22.15625 -0.203125 C 13.664062 -0.203125 7.242188 -0.132812 2.890625 0 L 2.890625 -1.375 C 4.546875 -1.46875 5.75 -1.648438 6.5 -1.921875 C 7.257812 -2.203125 7.773438 -2.726562 8.046875 -3.5 C 8.328125 -4.28125 8.46875 -5.546875 8.46875 -7.296875 L 8.46875 -34.546875 C 8.46875 -36.285156 8.328125 -37.546875 8.046875 -38.328125 C 7.773438 -39.109375 7.257812 -39.632812 6.5 -39.90625 C 5.75 -40.1875 4.546875 -40.375 2.890625 -40.46875 L 2.890625 -41.84375 C 4.816406 -41.695312 7.753906 -41.625 11.703125 -41.625 C 15.367188 -41.625 18.28125 -41.695312 20.4375 -41.84375 Z M 20.4375 -40.46875 "/></g></g></g><g fill="#e3e6e3" fill-opacity="1"><g transform="translate(475.40588, 464.999997)"><g><path d="M 36.75 -8.125 C 36.75 -5.738281 36.910156 -3.03125 37.234375 0 C 34.242188 -0.132812 29.21875 -0.203125 22.15625 -0.203125 C 13.664062 -0.203125 7.242188 -0.132812 2.890625 0 L 2.890625 -1.375 C 4.546875 -1.46875 5.75 -1.648438 6.5 -1.921875 C 7.257812 -2.203125 7.773438 -2.726562 8.046875 -3.5 C 8.328125 -4.28125 8.46875 -5.546875 8.46875 -7.296875 L 8.46875 -34.546875 C 8.46875 -36.285156 8.328125 -37.546875 8.046875 -38.328125 C 7.773438 -39.109375 7.257812 -39.632812 6.5 -39.90625 C 5.75 -40.1875 4.546875 -40.375 2.890625 -40.46875 L 2.890625 -41.84375 C 7.242188 -41.695312 13.664062 -41.625 22.15625 -41.625 C 28.582031 -41.625 33.144531 -41.695312 35.84375 -41.84375 C 35.53125 -39.082031 35.375 -36.601562 35.375 -34.40625 C 35.375 -32.613281 35.441406 -31.191406 35.578125 -30.140625 L 34 -30.140625 C 33.675781 -33.898438 32.882812 -36.523438 31.625 -38.015625 C 30.363281 -39.503906 28.304688 -40.25 25.453125 -40.25 L 20.4375 -40.25 C 18.78125 -40.25 17.570312 -40.125 16.8125 -39.875 C 16.0625 -39.625 15.546875 -39.109375 15.265625 -38.328125 C 14.992188 -37.546875 14.859375 -36.285156 14.859375 -34.546875 L 14.859375 -21.75 L 20.578125 -21.75 C 22.046875 -21.75 23.164062 -22.125 23.9375 -22.875 C 24.71875 -23.632812 25.242188 -24.460938 25.515625 -25.359375 C 25.796875 -26.253906 26.050781 -27.390625 26.28125 -28.765625 L 27.875 -28.765625 C 27.726562 -27.203125 27.65625 -25.503906 27.65625 -23.671875 L 27.65625 -21.0625 C 27.65625 -19.269531 27.796875 -16.695312 28.078125 -13.34375 L 26.5 -13.34375 C 26.21875 -15.550781 25.6875 -17.273438 24.90625 -18.515625 C 24.125 -19.753906 22.679688 -20.375 20.578125 -20.375 L 14.859375 -20.375 L 14.859375 -7.296875 C 14.859375 -5.546875 14.992188 -4.28125 15.265625 -3.5 C 15.546875 -2.726562 16.0625 -2.210938 16.8125 -1.953125 C 17.570312 -1.703125 18.78125 -1.578125 20.4375 -1.578125 L 25.453125 -1.578125 C 27.753906 -1.578125 29.566406 -1.941406 30.890625 -2.671875 C 32.222656 -3.410156 33.234375 -4.59375 33.921875 -6.21875 C 34.609375 -7.851562 35.09375 -10.140625 35.375 -13.078125 L 36.953125 -13.078125 C 36.816406 -11.835938 36.75 -10.1875 36.75 -8.125 Z M 36.75 -8.125 "/></g></g></g><g fill="#e3e6e3" fill-opacity="1"><g transform="translate(512.901872, 464.999997)"><g><path d="M 17.609375 -42.796875 C 19.628906 -42.796875 21.222656 -42.578125 22.390625 -42.140625 C 23.566406 -41.710938 24.773438 -41.082031 26.015625 -40.25 C 27.023438 -39.613281 27.800781 -39.296875 28.34375 -39.296875 C 28.757812 -39.296875 29.082031 -39.535156 29.3125 -40.015625 C 29.539062 -40.492188 29.722656 -41.257812 29.859375 -42.3125 L 31.453125 -42.3125 C 31.222656 -39.925781 31.109375 -35.707031 31.109375 -29.65625 L 29.515625 -29.65625 C 29.242188 -32.957031 28.175781 -35.753906 26.3125 -38.046875 C 24.457031 -40.347656 21.765625 -41.5 18.234375 -41.5 C 15.804688 -41.5 13.800781 -40.851562 12.21875 -39.5625 C 10.632812 -38.28125 9.84375 -36.65625 9.84375 -34.6875 C 9.84375 -33.257812 10.195312 -32.019531 10.90625 -30.96875 C 11.613281 -29.914062 12.53125 -29.007812 13.65625 -28.25 C 14.78125 -27.488281 16.375 -26.554688 18.4375 -25.453125 L 20.71875 -24.21875 C 23.5625 -22.707031 25.84375 -21.351562 27.5625 -20.15625 C 29.28125 -18.96875 30.664062 -17.601562 31.71875 -16.0625 C 32.78125 -14.53125 33.3125 -12.753906 33.3125 -10.734375 C 33.3125 -7.015625 31.96875 -4.132812 29.28125 -2.09375 C 26.59375 -0.0507812 23.234375 0.96875 19.203125 0.96875 C 16.992188 0.96875 15.191406 0.738281 13.796875 0.28125 C 12.398438 -0.175781 11.054688 -0.796875 9.765625 -1.578125 C 8.753906 -2.222656 7.976562 -2.546875 7.4375 -2.546875 C 7.019531 -2.546875 6.695312 -2.300781 6.46875 -1.8125 C 6.238281 -1.332031 6.054688 -0.566406 5.921875 0.484375 L 4.328125 0.484375 C 4.515625 -1.765625 4.609375 -6.8125 4.609375 -14.65625 L 6.1875 -14.65625 C 6.507812 -10.382812 7.65625 -6.941406 9.625 -4.328125 C 11.601562 -1.710938 14.632812 -0.40625 18.71875 -0.40625 C 21.007812 -0.40625 22.992188 -1.054688 24.671875 -2.359375 C 26.347656 -3.671875 27.1875 -5.613281 27.1875 -8.1875 C 27.1875 -9.695312 26.75 -11.035156 25.875 -12.203125 C 25 -13.378906 23.828125 -14.425781 22.359375 -15.34375 C 20.890625 -16.257812 18.847656 -17.40625 16.234375 -18.78125 C 12.472656 -20.707031 9.601562 -22.632812 7.625 -24.5625 C 5.65625 -26.488281 4.671875 -28.988281 4.671875 -32.0625 C 4.671875 -35.457031 5.921875 -38.09375 8.421875 -39.96875 C 10.929688 -41.851562 13.992188 -42.796875 17.609375 -42.796875 Z M 17.609375 -42.796875 "/></g></g></g></svg>