<svg xmlns="http://www.w3.org/2000/svg" xmlns:xlink="http://www.w3.org/1999/xlink" width="1080" zoomAndPan="magnify" viewBox="0 0 810 809.999993" height="1080" preserveAspectRatio="xMidYMid meet" version="1.0"><defs><g/></defs><rect x="-81" width="972" fill="#ffffff" y="-80.999999" height="971.999992" fill-opacity="1"/><rect x="-81" width="972" fill="#51877a" y="-80.999999" height="971.999992" fill-opacity="1"/><g fill="#e3e6e3" fill-opacity="1"><g transform="translate(273.57229, 431.999998)"><g><path d="M 24.78125 -48.234375 C 27.457031 -48.234375 29.726562 -47.851562 31.59375 -47.09375 C 33.46875 -46.332031 35.296875 -45.265625 37.078125 -43.890625 C 37.566406 -43.484375 37.988281 -43.28125 38.34375 -43.28125 C 39.226562 -43.28125 39.804688 -44.617188 40.078125 -47.296875 L 41.609375 -47.296875 C 41.429688 -44.398438 41.34375 -39.273438 41.34375 -31.921875 L 39.8125 -31.921875 C 39.320312 -34.816406 38.875 -36.898438 38.46875 -38.171875 C 38.070312 -39.441406 37.40625 -40.65625 36.46875 -41.8125 C 35.132812 -43.550781 33.429688 -44.851562 31.359375 -45.71875 C 29.285156 -46.59375 27.046875 -47.03125 24.640625 -47.03125 C 21.753906 -47.03125 19.226562 -46.070312 17.0625 -44.15625 C 14.90625 -42.238281 13.222656 -39.507812 12.015625 -35.96875 C 10.816406 -32.425781 10.21875 -28.273438 10.21875 -23.515625 C 10.21875 -18.660156 10.863281 -14.492188 12.15625 -11.015625 C 13.445312 -7.546875 15.238281 -4.910156 17.53125 -3.109375 C 19.820312 -1.304688 22.414062 -0.40625 25.3125 -0.40625 C 27.539062 -0.40625 29.703125 -0.828125 31.796875 -1.671875 C 33.890625 -2.515625 35.535156 -3.785156 36.734375 -5.484375 C 37.628906 -6.722656 38.273438 -8.054688 38.671875 -9.484375 C 39.078125 -10.910156 39.457031 -13.09375 39.8125 -16.03125 L 41.34375 -16.03125 C 41.34375 -8.375 41.429688 -3.03125 41.609375 0 L 40.078125 0 C 39.941406 -1.425781 39.75 -2.4375 39.5 -3.03125 C 39.257812 -3.632812 38.914062 -3.9375 38.46875 -3.9375 C 38.113281 -3.9375 37.648438 -3.757812 37.078125 -3.40625 C 35.066406 -1.976562 33.148438 -0.894531 31.328125 -0.15625 C 29.503906 0.570312 27.300781 0.9375 24.71875 0.9375 C 20.488281 0.9375 16.78125 -0.0195312 13.59375 -1.9375 C 10.40625 -3.851562 7.929688 -6.625 6.171875 -10.25 C 4.421875 -13.882812 3.546875 -18.21875 3.546875 -23.25 C 3.546875 -28.144531 4.445312 -32.484375 6.25 -36.265625 C 8.050781 -40.054688 10.566406 -43 13.796875 -45.09375 C 17.023438 -47.1875 20.6875 -48.234375 24.78125 -48.234375 Z M 24.78125 -48.234375 "/></g></g></g><g fill="#e3e6e3" fill-opacity="1"><g transform="translate(316.188031, 431.999998)"><g><path d="M 44.078125 -3.34375 C 43.054688 -1.820312 42.035156 -0.726562 41.015625 -0.0625 C 39.992188 0.601562 38.632812 0.9375 36.9375 0.9375 C 35.113281 0.9375 33.609375 0.40625 32.421875 -0.65625 C 31.242188 -1.726562 30.367188 -3.601562 29.796875 -6.28125 L 28.328125 -12.953125 C 27.785156 -15.273438 27.28125 -17.054688 26.8125 -18.296875 C 26.351562 -19.546875 25.65625 -20.546875 24.71875 -21.296875 C 23.78125 -22.054688 22.46875 -22.4375 20.78125 -22.4375 L 14.421875 -22.4375 L 14.421875 -7.078125 C 14.421875 -5.390625 14.554688 -4.164062 14.828125 -3.40625 C 15.097656 -2.644531 15.597656 -2.128906 16.328125 -1.859375 C 17.066406 -1.597656 18.238281 -1.421875 19.84375 -1.328125 L 19.84375 0 C 17.789062 -0.132812 14.960938 -0.203125 11.359375 -0.203125 C 7.523438 -0.203125 4.675781 -0.132812 2.8125 0 L 2.8125 -1.328125 C 4.40625 -1.421875 5.570312 -1.597656 6.3125 -1.859375 C 7.050781 -2.128906 7.550781 -2.644531 7.8125 -3.40625 C 8.082031 -4.164062 8.21875 -5.390625 8.21875 -7.078125 L 8.21875 -40.21875 C 8.21875 -41.90625 8.082031 -43.125 7.8125 -43.875 C 7.550781 -44.632812 7.050781 -45.148438 6.3125 -45.421875 C 5.570312 -45.691406 4.40625 -45.867188 2.8125 -45.953125 L 2.8125 -47.296875 C 4.675781 -47.160156 7.390625 -47.09375 10.953125 -47.09375 L 18.171875 -47.15625 C 19.015625 -47.195312 19.972656 -47.21875 21.046875 -47.21875 C 26.210938 -47.21875 30.1875 -46.140625 32.96875 -43.984375 C 35.75 -41.828125 37.140625 -39.035156 37.140625 -35.609375 C 37.140625 -33.867188 36.726562 -32.117188 35.90625 -30.359375 C 35.082031 -28.597656 33.703125 -27.015625 31.765625 -25.609375 C 29.828125 -24.210938 27.300781 -23.269531 24.1875 -22.78125 L 24.984375 -22.640625 C 27.921875 -22.148438 30.054688 -21.257812 31.390625 -19.96875 C 32.722656 -18.675781 33.703125 -16.628906 34.328125 -13.828125 L 36 -7.015625 C 36.445312 -4.960938 36.914062 -3.535156 37.40625 -2.734375 C 37.894531 -1.929688 38.5625 -1.53125 39.40625 -1.53125 C 40.164062 -1.53125 40.800781 -1.726562 41.3125 -2.125 C 41.820312 -2.53125 42.410156 -3.179688 43.078125 -4.078125 Z M 19.375 -45.953125 C 17.988281 -45.953125 16.953125 -45.796875 16.265625 -45.484375 C 15.578125 -45.171875 15.097656 -44.613281 14.828125 -43.8125 C 14.554688 -43.007812 14.421875 -41.8125 14.421875 -40.21875 L 14.421875 -23.78125 L 18.90625 -23.78125 C 23.3125 -23.78125 26.335938 -24.757812 27.984375 -26.71875 C 29.628906 -28.675781 30.453125 -31.394531 30.453125 -34.875 C 30.453125 -38.519531 29.582031 -41.273438 27.84375 -43.140625 C 26.113281 -45.015625 23.289062 -45.953125 19.375 -45.953125 Z M 19.375 -45.953125 "/></g></g></g><g fill="#e3e6e3" fill-opacity="1"><g transform="translate(356.131898, 431.999998)"><g><path d="M 19.84375 -45.953125 C 18.238281 -45.867188 17.066406 -45.691406 16.328125 -45.421875 C 15.597656 -45.148438 15.097656 -44.632812 14.828125 -43.875 C 14.554688 -43.125 14.421875 -41.90625 14.421875 -40.21875 L 14.421875 -7.078125 C 14.421875 -5.390625 14.554688 -4.164062 14.828125 -3.40625 C 15.097656 -2.644531 15.597656 -2.128906 16.328125 -1.859375 C 17.066406 -1.597656 18.238281 -1.421875 19.84375 -1.328125 L 19.84375 0 C 17.789062 -0.132812 14.960938 -0.203125 11.359375 -0.203125 C 7.523438 -0.203125 4.675781 -0.132812 2.8125 0 L 2.8125 -1.328125 C 4.40625 -1.421875 5.570312 -1.597656 6.3125 -1.859375 C 7.050781 -2.128906 7.550781 -2.644531 7.8125 -3.40625 C 8.082031 -4.164062 8.21875 -5.390625 8.21875 -7.078125 L 8.21875 -40.21875 C 8.21875 -41.90625 8.082031 -43.125 7.8125 -43.875 C 7.550781 -44.632812 7.050781 -45.148438 6.3125 -45.421875 C 5.570312 -45.691406 4.40625 -45.867188 2.8125 -45.953125 L 2.8125 -47.296875 C 4.675781 -47.160156 7.523438 -47.09375 11.359375 -47.09375 C 14.921875 -47.09375 17.75 -47.160156 19.84375 -47.296875 Z M 19.84375 -45.953125 "/></g></g></g><g fill="#e3e6e3" fill-opacity="1"><g transform="translate(375.435551, 431.999998)"><g><path d="M 37.875 -5.609375 C 38.945312 -2.847656 40.484375 -1.421875 42.484375 -1.328125 L 42.484375 0 C 40.703125 -0.132812 38.316406 -0.203125 35.328125 -0.203125 C 31.503906 -0.203125 28.65625 -0.132812 26.78125 0 L 26.78125 -1.328125 C 28.476562 -1.421875 29.691406 -1.632812 30.421875 -1.96875 C 31.160156 -2.300781 31.53125 -2.914062 31.53125 -3.8125 C 31.53125 -4.5625 31.257812 -5.609375 30.71875 -6.953125 L 26.65625 -17.90625 L 10.484375 -17.90625 L 7.75 -10.828125 C 6.851562 -8.421875 6.40625 -6.59375 6.40625 -5.34375 C 6.40625 -3.957031 6.882812 -2.953125 7.84375 -2.328125 C 8.800781 -1.710938 10.257812 -1.378906 12.21875 -1.328125 L 12.21875 0 C 9.6875 -0.132812 7.128906 -0.203125 4.546875 -0.203125 C 2.535156 -0.203125 0.863281 -0.132812 -0.46875 0 L -0.46875 -1.328125 C 1.757812 -1.867188 3.519531 -3.804688 4.8125 -7.140625 L 20.5 -47.625 L 21.578125 -47.625 Z M 26.125 -19.234375 L 18.640625 -39.203125 L 11.015625 -19.234375 Z M 26.125 -19.234375 "/></g></g></g><g fill="#e3e6e3" fill-opacity="1"><g transform="translate(414.177073, 431.999998)"><g><path d="M 44.75 -45.953125 C 43.195312 -45.867188 42.039062 -45.632812 41.28125 -45.25 C 40.519531 -44.875 40.003906 -44.25 39.734375 -43.375 C 39.472656 -42.507812 39.34375 -41.234375 39.34375 -39.546875 L 39.34375 0.328125 L 37.8125 0.328125 L 9.75 -43.015625 L 9.75 -7.75 C 9.75 -6.007812 9.894531 -4.71875 10.1875 -3.875 C 10.476562 -3.03125 11.046875 -2.414062 11.890625 -2.03125 C 12.734375 -1.65625 14.046875 -1.421875 15.828125 -1.328125 L 15.828125 0 C 14.222656 -0.132812 11.953125 -0.203125 9.015625 -0.203125 C 6.347656 -0.203125 4.28125 -0.132812 2.8125 0 L 2.8125 -1.328125 C 4.363281 -1.421875 5.519531 -1.65625 6.28125 -2.03125 C 7.039062 -2.414062 7.550781 -3.039062 7.8125 -3.90625 C 8.082031 -4.769531 8.21875 -6.050781 8.21875 -7.75 L 8.21875 -40.21875 C 8.21875 -41.90625 8.082031 -43.125 7.8125 -43.875 C 7.550781 -44.632812 7.050781 -45.148438 6.3125 -45.421875 C 5.570312 -45.691406 4.40625 -45.867188 2.8125 -45.953125 L 2.8125 -47.296875 C 4.28125 -47.160156 6.347656 -47.09375 9.015625 -47.09375 C 11.015625 -47.09375 12.753906 -47.160156 14.234375 -47.296875 L 37.8125 -10.953125 L 37.8125 -39.546875 C 37.8125 -41.285156 37.664062 -42.578125 37.375 -43.421875 C 37.082031 -44.265625 36.515625 -44.875 35.671875 -45.25 C 34.828125 -45.632812 33.515625 -45.867188 31.734375 -45.953125 L 31.734375 -47.296875 C 33.335938 -47.160156 35.609375 -47.09375 38.546875 -47.09375 C 41.210938 -47.09375 43.28125 -47.160156 44.75 -47.296875 Z M 44.75 -45.953125 "/></g></g></g><g fill="#e3e6e3" fill-opacity="1"><g transform="translate(457.995171, 431.999998)"><g><path d="M 36.734375 -45.953125 L 10.09375 -1.53125 L 23.171875 -1.53125 C 25.929688 -1.53125 28.035156 -1.921875 29.484375 -2.703125 C 30.929688 -3.484375 31.988281 -4.738281 32.65625 -6.46875 C 33.332031 -8.207031 33.828125 -10.726562 34.140625 -14.03125 L 35.671875 -14.03125 C 35.535156 -12.644531 35.46875 -10.816406 35.46875 -8.546875 C 35.46875 -6.015625 35.625 -3.164062 35.9375 0 C 32.644531 -0.132812 27.097656 -0.203125 19.296875 -0.203125 C 11.679688 -0.203125 6.1875 -0.132812 2.8125 0 L 2.8125 -1.328125 L 29.65625 -45.75 L 16.625 -45.75 C 13.863281 -45.75 11.757812 -45.359375 10.3125 -44.578125 C 8.875 -43.804688 7.816406 -42.550781 7.140625 -40.8125 C 6.472656 -39.070312 5.984375 -36.554688 5.671875 -33.265625 L 4.140625 -33.265625 C 4.273438 -34.691406 4.34375 -36.515625 4.34375 -38.734375 C 4.34375 -41.273438 4.1875 -44.128906 3.875 -47.296875 C 7.164062 -47.160156 12.707031 -47.09375 20.5 -47.09375 C 28.070312 -47.09375 33.484375 -47.160156 36.734375 -47.296875 Z M 36.734375 -45.953125 "/></g></g></g><g fill="#e3e6e3" fill-opacity="1"><g transform="translate(494.332014, 431.999998)"><g><path d="M 37.875 -5.609375 C 38.945312 -2.847656 40.484375 -1.421875 42.484375 -1.328125 L 42.484375 0 C 40.703125 -0.132812 38.316406 -0.203125 35.328125 -0.203125 C 31.503906 -0.203125 28.65625 -0.132812 26.78125 0 L 26.78125 -1.328125 C 28.476562 -1.421875 29.691406 -1.632812 30.421875 -1.96875 C 31.160156 -2.300781 31.53125 -2.914062 31.53125 -3.8125 C 31.53125 -4.5625 31.257812 -5.609375 30.71875 -6.953125 L 26.65625 -17.90625 L 10.484375 -17.90625 L 7.75 -10.828125 C 6.851562 -8.421875 6.40625 -6.59375 6.40625 -5.34375 C 6.40625 -3.957031 6.882812 -2.953125 7.84375 -2.328125 C 8.800781 -1.710938 10.257812 -1.378906 12.21875 -1.328125 L 12.21875 0 C 9.6875 -0.132812 7.128906 -0.203125 4.546875 -0.203125 C 2.535156 -0.203125 0.863281 -0.132812 -0.46875 0 L -0.46875 -1.328125 C 1.757812 -1.867188 3.519531 -3.804688 4.8125 -7.140625 L 20.5 -47.625 L 21.578125 -47.625 Z M 26.125 -19.234375 L 18.640625 -39.203125 L 11.015625 -19.234375 Z M 26.125 -19.234375 "/></g></g></g></svg>