<svg xmlns="http://www.w3.org/2000/svg" xmlns:xlink="http://www.w3.org/1999/xlink" width="1080" zoomAndPan="magnify" viewBox="0 0 810 809.999993" height="1080" preserveAspectRatio="xMidYMid meet" version="1.0"><defs><g/></defs><rect x="-81" width="972" fill="#ffffff" y="-80.999999" height="971.999992" fill-opacity="1"/><rect x="-81" width="972" fill="#51877a" y="-80.999999" height="971.999992" fill-opacity="1"/><g fill="#e3e6e3" fill-opacity="1"><g transform="translate(131.748858, 367.125002)"><g><path d="M 14.859375 -19.6875 L 14.859375 -7.296875 C 14.859375 -5.546875 15.039062 -4.28125 15.40625 -3.5 C 15.78125 -2.726562 16.425781 -2.203125 17.34375 -1.921875 C 18.257812 -1.648438 19.75 -1.46875 21.8125 -1.375 L 21.8125 0 C 19.425781 -0.132812 16.054688 -0.203125 11.703125 -0.203125 C 7.753906 -0.203125 4.816406 -0.132812 2.890625 0 L 2.890625 -1.375 C 4.546875 -1.46875 5.75 -1.648438 6.5 -1.921875 C 7.257812 -2.203125 7.773438 -2.726562 8.046875 -3.5 C 8.328125 -4.28125 8.46875 -5.546875 8.46875 -7.296875 L 8.46875 -41.421875 C 8.46875 -43.171875 8.328125 -44.429688 8.046875 -45.203125 C 7.773438 -45.984375 7.257812 -46.507812 6.5 -46.78125 C 5.75 -47.0625 4.546875 -47.25 2.890625 -47.34375 L 2.890625 -48.71875 C 4.816406 -48.582031 7.613281 -48.515625 11.28125 -48.515625 L 18.71875 -48.578125 C 19.59375 -48.628906 20.578125 -48.65625 21.671875 -48.65625 C 27.046875 -48.65625 31.15625 -47.425781 34 -44.96875 C 36.84375 -42.507812 38.265625 -39.21875 38.265625 -35.09375 C 38.265625 -32.570312 37.703125 -30.148438 36.578125 -27.828125 C 35.453125 -25.515625 33.546875 -23.578125 30.859375 -22.015625 C 28.179688 -20.460938 24.613281 -19.6875 20.15625 -19.6875 Z M 19.953125 -47.34375 C 18.535156 -47.34375 17.46875 -47.179688 16.75 -46.859375 C 16.039062 -46.535156 15.546875 -45.960938 15.265625 -45.140625 C 14.992188 -44.316406 14.859375 -43.078125 14.859375 -41.421875 L 14.859375 -21.0625 L 19.46875 -21.0625 C 23.96875 -21.0625 27.078125 -22.265625 28.796875 -24.671875 C 30.515625 -27.078125 31.375 -30.300781 31.375 -34.34375 C 31.375 -38.789062 30.488281 -42.066406 28.71875 -44.171875 C 26.957031 -46.285156 24.035156 -47.34375 19.953125 -47.34375 Z M 19.953125 -47.34375 "/></g></g></g><g fill="#e3e6e3" fill-opacity="1"><g transform="translate(168.556852, 367.125002)"><g><path d="M 43.484375 -2.890625 C 42.617188 -1.648438 41.625 -0.695312 40.5 -0.03125 C 39.375 0.632812 38.03125 0.96875 36.46875 0.96875 C 32.613281 0.96875 30.253906 -0.773438 29.390625 -4.265625 L 27.25 -12.875 C 26.601562 -15.4375 25.648438 -17.15625 24.390625 -18.03125 C 23.128906 -18.90625 21.257812 -19.34375 18.78125 -19.34375 L 14.859375 -19.34375 L 14.859375 -7.296875 C 14.859375 -5.546875 14.992188 -4.28125 15.265625 -3.5 C 15.546875 -2.726562 16.0625 -2.203125 16.8125 -1.921875 C 17.570312 -1.648438 18.78125 -1.46875 20.4375 -1.375 L 20.4375 0 C 18.320312 -0.132812 15.410156 -0.203125 11.703125 -0.203125 C 7.753906 -0.203125 4.816406 -0.132812 2.890625 0 L 2.890625 -1.375 C 4.546875 -1.46875 5.75 -1.648438 6.5 -1.921875 C 7.257812 -2.203125 7.773438 -2.726562 8.046875 -3.5 C 8.328125 -4.28125 8.46875 -5.546875 8.46875 -7.296875 L 8.46875 -34.546875 C 8.46875 -36.285156 8.328125 -37.546875 8.046875 -38.328125 C 7.773438 -39.109375 7.257812 -39.632812 6.5 -39.90625 C 5.75 -40.1875 4.546875 -40.375 2.890625 -40.46875 L 2.890625 -41.84375 C 4.816406 -41.695312 7.613281 -41.625 11.28125 -41.625 L 18.296875 -41.703125 C 19.078125 -41.742188 19.972656 -41.765625 20.984375 -41.765625 C 26.117188 -41.765625 30.050781 -40.800781 32.78125 -38.875 C 35.519531 -36.945312 36.890625 -34.445312 36.890625 -31.375 C 36.890625 -28.71875 35.820312 -26.285156 33.6875 -24.078125 C 31.550781 -21.878906 28.050781 -20.484375 23.1875 -19.890625 C 24.101562 -19.796875 24.882812 -19.703125 25.53125 -19.609375 C 27.957031 -19.242188 29.878906 -18.507812 31.296875 -17.40625 C 32.722656 -16.3125 33.738281 -14.546875 34.34375 -12.109375 L 35.84375 -5.84375 C 36.21875 -4.238281 36.617188 -3.101562 37.046875 -2.4375 C 37.484375 -1.769531 38.046875 -1.4375 38.734375 -1.4375 C 39.890625 -1.4375 41.15625 -2.21875 42.53125 -3.78125 Z M 19.265625 -40.46875 C 18.023438 -40.46875 17.09375 -40.304688 16.46875 -39.984375 C 15.851562 -39.660156 15.429688 -39.082031 15.203125 -38.25 C 14.972656 -37.425781 14.859375 -36.191406 14.859375 -34.546875 L 14.859375 -20.71875 L 19.46875 -20.71875 C 23.507812 -20.71875 26.273438 -21.578125 27.765625 -23.296875 C 29.253906 -25.015625 30 -27.457031 30 -30.625 C 30 -33.925781 29.160156 -36.390625 27.484375 -38.015625 C 25.816406 -39.648438 23.078125 -40.46875 19.265625 -40.46875 Z M 19.265625 -40.46875 "/></g></g></g><g fill="#e3e6e3" fill-opacity="1"><g transform="translate(208.048085, 367.125002)"><g><path d="M 24.84375 -42.796875 C 29.0625 -42.796875 32.765625 -41.957031 35.953125 -40.28125 C 39.140625 -38.613281 41.601562 -36.160156 43.34375 -32.921875 C 45.09375 -29.691406 45.96875 -25.828125 45.96875 -21.328125 C 45.96875 -16.921875 45.0625 -13.03125 43.25 -9.65625 C 41.4375 -6.289062 38.921875 -3.675781 35.703125 -1.8125 C 32.492188 0.0390625 28.847656 0.96875 24.765625 0.96875 C 20.546875 0.96875 16.84375 0.128906 13.65625 -1.546875 C 10.46875 -3.222656 8 -5.675781 6.25 -8.90625 C 4.507812 -12.144531 3.640625 -16.007812 3.640625 -20.5 C 3.640625 -24.90625 4.546875 -28.796875 6.359375 -32.171875 C 8.171875 -35.546875 10.679688 -38.160156 13.890625 -40.015625 C 17.109375 -41.867188 20.757812 -42.796875 24.84375 -42.796875 Z M 24.5625 -41.5625 C 21.769531 -41.5625 19.304688 -40.675781 17.171875 -38.90625 C 15.035156 -37.144531 13.394531 -34.691406 12.25 -31.546875 C 11.101562 -28.410156 10.53125 -24.820312 10.53125 -20.78125 C 10.53125 -16.695312 11.171875 -13.09375 12.453125 -9.96875 C 13.734375 -6.851562 15.472656 -4.457031 17.671875 -2.78125 C 19.878906 -1.113281 22.335938 -0.28125 25.046875 -0.28125 C 27.847656 -0.28125 30.3125 -1.160156 32.4375 -2.921875 C 34.570312 -4.691406 36.210938 -7.144531 37.359375 -10.28125 C 38.503906 -13.425781 39.078125 -17.019531 39.078125 -21.0625 C 39.078125 -25.144531 38.4375 -28.742188 37.15625 -31.859375 C 35.875 -34.984375 34.128906 -37.378906 31.921875 -39.046875 C 29.722656 -40.722656 27.269531 -41.5625 24.5625 -41.5625 Z M 24.5625 -41.5625 "/></g></g></g><g fill="#e3e6e3" fill-opacity="1"><g transform="translate(254.212982, 367.125002)"><g><path d="M 21.671875 -41.84375 C 28.828125 -41.84375 34.207031 -40.109375 37.8125 -36.640625 C 41.414062 -33.179688 43.21875 -28.125 43.21875 -21.46875 C 43.21875 -17.15625 42.34375 -13.378906 40.59375 -10.140625 C 38.851562 -6.910156 36.316406 -4.410156 32.984375 -2.640625 C 29.660156 -0.878906 25.6875 0 21.0625 0 L 17.0625 -0.0625 C 14.5 -0.15625 12.617188 -0.203125 11.421875 -0.203125 C 7.660156 -0.203125 4.816406 -0.132812 2.890625 0 L 2.890625 -1.375 C 4.546875 -1.46875 5.75 -1.648438 6.5 -1.921875 C 7.257812 -2.203125 7.773438 -2.726562 8.046875 -3.5 C 8.328125 -4.28125 8.46875 -5.546875 8.46875 -7.296875 L 8.46875 -34.546875 C 8.46875 -36.285156 8.328125 -37.546875 8.046875 -38.328125 C 7.773438 -39.109375 7.257812 -39.632812 6.5 -39.90625 C 5.75 -40.1875 4.546875 -40.375 2.890625 -40.46875 L 2.890625 -41.84375 C 4.492188 -41.695312 6.71875 -41.625 9.5625 -41.625 L 15.40625 -41.703125 C 18.53125 -41.796875 20.617188 -41.84375 21.671875 -41.84375 Z M 19.953125 -40.59375 C 18.535156 -40.59375 17.46875 -40.429688 16.75 -40.109375 C 16.039062 -39.796875 15.546875 -39.222656 15.265625 -38.390625 C 14.992188 -37.566406 14.859375 -36.332031 14.859375 -34.6875 L 14.859375 -7.15625 C 14.859375 -5.5 14.992188 -4.257812 15.265625 -3.4375 C 15.546875 -2.613281 16.039062 -2.039062 16.75 -1.71875 C 17.46875 -1.394531 18.5625 -1.234375 20.03125 -1.234375 C 24.195312 -1.234375 27.472656 -1.976562 29.859375 -3.46875 C 32.242188 -4.96875 33.914062 -7.160156 34.875 -10.046875 C 35.84375 -12.929688 36.328125 -16.644531 36.328125 -21.1875 C 36.328125 -27.882812 35.085938 -32.789062 32.609375 -35.90625 C 30.140625 -39.03125 25.921875 -40.59375 19.953125 -40.59375 Z M 19.953125 -40.59375 "/></g></g></g><g fill="#e3e6e3" fill-opacity="1"><g transform="translate(297.76346, 367.125002)"><g><path d="M 43.5625 -40.46875 C 41.957031 -40.375 40.765625 -40.128906 39.984375 -39.734375 C 39.203125 -39.347656 38.671875 -38.707031 38.390625 -37.8125 C 38.117188 -36.914062 37.984375 -35.597656 37.984375 -33.859375 L 37.984375 -18.640625 C 37.984375 -15.484375 37.765625 -12.789062 37.328125 -10.5625 C 36.890625 -8.332031 36.164062 -6.394531 35.15625 -4.75 C 34.0625 -3.007812 32.46875 -1.617188 30.375 -0.578125 C 28.289062 0.453125 25.921875 0.96875 23.265625 0.96875 C 18.535156 0.96875 14.910156 -0.0390625 12.390625 -2.0625 C 10.367188 -3.851562 9.015625 -5.894531 8.328125 -8.1875 C 7.640625 -10.476562 7.296875 -13.894531 7.296875 -18.4375 L 7.296875 -34.546875 C 7.296875 -36.285156 7.15625 -37.546875 6.875 -38.328125 C 6.601562 -39.109375 6.085938 -39.632812 5.328125 -39.90625 C 4.578125 -40.1875 3.375 -40.375 1.71875 -40.46875 L 1.71875 -41.84375 C 3.644531 -41.695312 6.582031 -41.625 10.53125 -41.625 C 14.195312 -41.625 17.109375 -41.695312 19.265625 -41.84375 L 19.265625 -40.46875 C 17.617188 -40.375 16.414062 -40.1875 15.65625 -39.90625 C 14.894531 -39.632812 14.375 -39.109375 14.09375 -38.328125 C 13.820312 -37.546875 13.6875 -36.285156 13.6875 -34.546875 L 13.6875 -17.265625 C 13.6875 -13.878906 13.914062 -11.070312 14.375 -8.84375 C 14.832031 -6.613281 15.804688 -4.820312 17.296875 -3.46875 C 18.796875 -2.113281 20.988281 -1.4375 23.875 -1.4375 C 28.46875 -1.4375 31.703125 -2.878906 33.578125 -5.765625 C 35.460938 -8.660156 36.40625 -12.703125 36.40625 -17.890625 L 36.40625 -33.859375 C 36.40625 -36.335938 35.957031 -38.035156 35.0625 -38.953125 C 34.164062 -39.867188 32.523438 -40.375 30.140625 -40.46875 L 30.140625 -41.84375 C 31.785156 -41.695312 34.125 -41.625 37.15625 -41.625 C 39.90625 -41.625 42.039062 -41.695312 43.5625 -41.84375 Z M 43.5625 -40.46875 "/></g></g></g><g fill="#e3e6e3" fill-opacity="1"><g transform="translate(339.593903, 367.125002)"><g><path d="M 24.21875 -42.796875 C 26.46875 -42.796875 28.367188 -42.414062 29.921875 -41.65625 C 31.484375 -40.90625 33.113281 -39.796875 34.8125 -38.328125 C 35.320312 -37.910156 35.757812 -37.703125 36.125 -37.703125 C 37.039062 -37.703125 37.640625 -39.082031 37.921875 -41.84375 L 39.5 -41.84375 C 39.3125 -39.082031 39.21875 -34.265625 39.21875 -27.390625 L 37.640625 -27.390625 C 37.179688 -29.773438 36.722656 -31.539062 36.265625 -32.6875 C 35.804688 -33.832031 35.117188 -35.003906 34.203125 -36.203125 C 32.910156 -37.890625 31.367188 -39.179688 29.578125 -40.078125 C 27.796875 -40.972656 25.921875 -41.421875 23.953125 -41.421875 C 21.242188 -41.421875 18.890625 -40.59375 16.890625 -38.9375 C 14.898438 -37.289062 13.351562 -34.90625 12.25 -31.78125 C 11.144531 -28.664062 10.59375 -25 10.59375 -20.78125 C 10.59375 -16.46875 11.203125 -12.785156 12.421875 -9.734375 C 13.640625 -6.679688 15.289062 -4.363281 17.375 -2.78125 C 19.457031 -1.195312 21.804688 -0.40625 24.421875 -0.40625 C 26.441406 -0.40625 28.378906 -0.851562 30.234375 -1.75 C 32.097656 -2.644531 33.671875 -3.941406 34.953125 -5.640625 C 35.828125 -6.835938 36.484375 -8.097656 36.921875 -9.421875 C 37.359375 -10.753906 37.757812 -12.660156 38.125 -15.140625 L 39.703125 -15.140625 C 39.703125 -7.929688 39.796875 -2.882812 39.984375 0 L 38.390625 0 C 38.253906 -1.425781 38.046875 -2.46875 37.765625 -3.125 C 37.492188 -3.789062 37.128906 -4.125 36.671875 -4.125 C 36.304688 -4.125 35.847656 -3.921875 35.296875 -3.515625 C 33.554688 -2.046875 31.859375 -0.929688 30.203125 -0.171875 C 28.554688 0.585938 26.539062 0.96875 24.15625 0.96875 C 20.070312 0.96875 16.492188 0.128906 13.421875 -1.546875 C 10.347656 -3.222656 7.960938 -5.675781 6.265625 -8.90625 C 4.566406 -12.144531 3.71875 -16.007812 3.71875 -20.5 C 3.71875 -24.90625 4.585938 -28.796875 6.328125 -32.171875 C 8.078125 -35.546875 10.507812 -38.160156 13.625 -40.015625 C 16.738281 -41.867188 20.269531 -42.796875 24.21875 -42.796875 Z M 24.21875 -42.796875 "/></g></g></g><g fill="#e3e6e3" fill-opacity="1"><g transform="translate(380.39234, 367.125002)"><g><path d="M 41.078125 -41.84375 C 40.753906 -38.8125 40.59375 -36.101562 40.59375 -33.71875 C 40.59375 -31.332031 40.664062 -29.453125 40.8125 -28.078125 L 39.21875 -28.078125 C 38.945312 -31.285156 38.507812 -33.738281 37.90625 -35.4375 C 37.3125 -37.132812 36.347656 -38.359375 35.015625 -39.109375 C 33.691406 -39.867188 31.789062 -40.25 29.3125 -40.25 L 24.90625 -40.25 L 24.90625 -7.984375 C 24.90625 -6.054688 25.085938 -4.65625 25.453125 -3.78125 C 25.828125 -2.914062 26.472656 -2.320312 27.390625 -2 C 28.304688 -1.675781 29.796875 -1.46875 31.859375 -1.375 L 31.859375 0 C 29.472656 -0.132812 26.101562 -0.203125 21.75 -0.203125 C 17.15625 -0.203125 13.757812 -0.132812 11.5625 0 L 11.5625 -1.375 C 13.625 -1.46875 15.113281 -1.675781 16.03125 -2 C 16.945312 -2.320312 17.585938 -2.914062 17.953125 -3.78125 C 18.328125 -4.65625 18.515625 -6.054688 18.515625 -7.984375 L 18.515625 -40.25 L 14.109375 -40.25 C 11.628906 -40.25 9.722656 -39.867188 8.390625 -39.109375 C 7.066406 -38.359375 6.101562 -37.132812 5.5 -35.4375 C 4.90625 -33.738281 4.472656 -31.285156 4.203125 -28.078125 L 2.609375 -28.078125 C 2.753906 -29.546875 2.828125 -31.425781 2.828125 -33.71875 C 2.828125 -36.101562 2.664062 -38.8125 2.34375 -41.84375 C 6.144531 -41.695312 12.613281 -41.625 21.75 -41.625 C 30.832031 -41.625 37.273438 -41.695312 41.078125 -41.84375 Z M 41.078125 -41.84375 "/></g></g></g><g fill="#e3e6e3" fill-opacity="1"><g transform="translate(420.365177, 367.125002)"><g><path d="M 20.4375 -40.46875 C 18.78125 -40.375 17.570312 -40.1875 16.8125 -39.90625 C 16.0625 -39.632812 15.546875 -39.109375 15.265625 -38.328125 C 14.992188 -37.546875 14.859375 -36.285156 14.859375 -34.546875 L 14.859375 -7.296875 C 14.859375 -5.546875 14.992188 -4.28125 15.265625 -3.5 C 15.546875 -2.726562 16.0625 -2.203125 16.8125 -1.921875 C 17.570312 -1.648438 18.78125 -1.46875 20.4375 -1.375 L 20.4375 0 C 18.320312 -0.132812 15.410156 -0.203125 11.703125 -0.203125 C 7.753906 -0.203125 4.816406 -0.132812 2.890625 0 L 2.890625 -1.375 C 4.546875 -1.46875 5.75 -1.648438 6.5 -1.921875 C 7.257812 -2.203125 7.773438 -2.726562 8.046875 -3.5 C 8.328125 -4.28125 8.46875 -5.546875 8.46875 -7.296875 L 8.46875 -34.546875 C 8.46875 -36.285156 8.328125 -37.546875 8.046875 -38.328125 C 7.773438 -39.109375 7.257812 -39.632812 6.5 -39.90625 C 5.75 -40.1875 4.546875 -40.375 2.890625 -40.46875 L 2.890625 -41.84375 C 4.816406 -41.695312 7.753906 -41.625 11.703125 -41.625 C 15.367188 -41.625 18.28125 -41.695312 20.4375 -41.84375 Z M 20.4375 -40.46875 "/></g></g></g><g fill="#e3e6e3" fill-opacity="1"><g transform="translate(440.248165, 367.125002)"><g><path d="M 37.984375 -41.625 C 39.910156 -41.625 41.445312 -41.695312 42.59375 -41.84375 L 42.59375 -40.46875 C 41.3125 -40.144531 40.28125 -39.507812 39.5 -38.5625 C 38.71875 -37.625 37.820312 -36.007812 36.8125 -33.71875 L 21.75 0.34375 L 20.640625 0.34375 L 4.546875 -36.0625 C 3.304688 -38.90625 1.722656 -40.375 -0.203125 -40.46875 L -0.203125 -41.84375 C 1.671875 -41.695312 4.125 -41.625 7.15625 -41.625 C 11.101562 -41.625 14.039062 -41.695312 15.96875 -41.84375 L 15.96875 -40.46875 C 14.269531 -40.375 13.019531 -40.140625 12.21875 -39.765625 C 11.414062 -39.398438 11.015625 -38.785156 11.015625 -37.921875 C 11.015625 -37.179688 11.332031 -36.101562 11.96875 -34.6875 L 23.8125 -7.984375 L 34.0625 -30.828125 C 35.207031 -33.304688 35.78125 -35.253906 35.78125 -36.671875 C 35.78125 -37.960938 35.332031 -38.894531 34.4375 -39.46875 C 33.539062 -40.039062 32.175781 -40.375 30.34375 -40.46875 L 30.34375 -41.84375 C 31.71875 -41.695312 34.265625 -41.625 37.984375 -41.625 Z M 37.984375 -41.625 "/></g></g></g><g fill="#e3e6e3" fill-opacity="1"><g transform="translate(479.188974, 367.125002)"><g><path d="M 20.4375 -40.46875 C 18.78125 -40.375 17.570312 -40.1875 16.8125 -39.90625 C 16.0625 -39.632812 15.546875 -39.109375 15.265625 -38.328125 C 14.992188 -37.546875 14.859375 -36.285156 14.859375 -34.546875 L 14.859375 -7.296875 C 14.859375 -5.546875 14.992188 -4.28125 15.265625 -3.5 C 15.546875 -2.726562 16.0625 -2.203125 16.8125 -1.921875 C 17.570312 -1.648438 18.78125 -1.46875 20.4375 -1.375 L 20.4375 0 C 18.320312 -0.132812 15.410156 -0.203125 11.703125 -0.203125 C 7.753906 -0.203125 4.816406 -0.132812 2.890625 0 L 2.890625 -1.375 C 4.546875 -1.46875 5.75 -1.648438 6.5 -1.921875 C 7.257812 -2.203125 7.773438 -2.726562 8.046875 -3.5 C 8.328125 -4.28125 8.46875 -5.546875 8.46875 -7.296875 L 8.46875 -34.546875 C 8.46875 -36.285156 8.328125 -37.546875 8.046875 -38.328125 C 7.773438 -39.109375 7.257812 -39.632812 6.5 -39.90625 C 5.75 -40.1875 4.546875 -40.375 2.890625 -40.46875 L 2.890625 -41.84375 C 4.816406 -41.695312 7.753906 -41.625 11.703125 -41.625 C 15.367188 -41.625 18.28125 -41.695312 20.4375 -41.84375 Z M 20.4375 -40.46875 "/></g></g></g><g fill="#e3e6e3" fill-opacity="1"><g transform="translate(499.071961, 367.125002)"><g><path d="M 21.671875 -41.84375 C 28.828125 -41.84375 34.207031 -40.109375 37.8125 -36.640625 C 41.414062 -33.179688 43.21875 -28.125 43.21875 -21.46875 C 43.21875 -17.15625 42.34375 -13.378906 40.59375 -10.140625 C 38.851562 -6.910156 36.316406 -4.410156 32.984375 -2.640625 C 29.660156 -0.878906 25.6875 0 21.0625 0 L 17.0625 -0.0625 C 14.5 -0.15625 12.617188 -0.203125 11.421875 -0.203125 C 7.660156 -0.203125 4.816406 -0.132812 2.890625 0 L 2.890625 -1.375 C 4.546875 -1.46875 5.75 -1.648438 6.5 -1.921875 C 7.257812 -2.203125 7.773438 -2.726562 8.046875 -3.5 C 8.328125 -4.28125 8.46875 -5.546875 8.46875 -7.296875 L 8.46875 -34.546875 C 8.46875 -36.285156 8.328125 -37.546875 8.046875 -38.328125 C 7.773438 -39.109375 7.257812 -39.632812 6.5 -39.90625 C 5.75 -40.1875 4.546875 -40.375 2.890625 -40.46875 L 2.890625 -41.84375 C 4.492188 -41.695312 6.71875 -41.625 9.5625 -41.625 L 15.40625 -41.703125 C 18.53125 -41.796875 20.617188 -41.84375 21.671875 -41.84375 Z M 19.953125 -40.59375 C 18.535156 -40.59375 17.46875 -40.429688 16.75 -40.109375 C 16.039062 -39.796875 15.546875 -39.222656 15.265625 -38.390625 C 14.992188 -37.566406 14.859375 -36.332031 14.859375 -34.6875 L 14.859375 -7.15625 C 14.859375 -5.5 14.992188 -4.257812 15.265625 -3.4375 C 15.546875 -2.613281 16.039062 -2.039062 16.75 -1.71875 C 17.46875 -1.394531 18.5625 -1.234375 20.03125 -1.234375 C 24.195312 -1.234375 27.472656 -1.976562 29.859375 -3.46875 C 32.242188 -4.96875 33.914062 -7.160156 34.875 -10.046875 C 35.84375 -12.929688 36.328125 -16.644531 36.328125 -21.1875 C 36.328125 -27.882812 35.085938 -32.789062 32.609375 -35.90625 C 30.140625 -39.03125 25.921875 -40.59375 19.953125 -40.59375 Z M 19.953125 -40.59375 "/></g></g></g><g fill="#e3e6e3" fill-opacity="1"><g transform="translate(542.622451, 367.125002)"><g><path d="M 37.84375 -5.78125 C 39.082031 -2.9375 40.664062 -1.46875 42.59375 -1.375 L 42.59375 0 C 40.757812 -0.132812 38.304688 -0.203125 35.234375 -0.203125 C 31.285156 -0.203125 28.347656 -0.132812 26.421875 0 L 26.421875 -1.375 C 28.117188 -1.46875 29.367188 -1.695312 30.171875 -2.0625 C 30.972656 -2.425781 31.375 -3.046875 31.375 -3.921875 C 31.375 -4.648438 31.054688 -5.726562 30.421875 -7.15625 L 26.90625 -15 L 10.1875 -15 L 7.84375 -9.84375 C 7.0625 -8.050781 6.671875 -6.582031 6.671875 -5.4375 C 6.671875 -4.238281 7.09375 -3.304688 7.9375 -2.640625 C 8.789062 -1.984375 10.160156 -1.5625 12.046875 -1.375 L 12.046875 0 C 10.671875 -0.132812 8.582031 -0.203125 5.78125 -0.203125 C 2.976562 -0.203125 0.984375 -0.132812 -0.203125 0 L -0.203125 -1.375 C 1.035156 -1.695312 2.085938 -2.394531 2.953125 -3.46875 C 3.828125 -4.550781 4.65625 -5.988281 5.4375 -7.78125 L 20.640625 -42.1875 L 21.75 -42.1875 Z M 26.359375 -16.375 L 18.578125 -33.859375 L 10.734375 -16.375 Z M 26.359375 -16.375 "/></g></g></g><g fill="#e3e6e3" fill-opacity="1"><g transform="translate(581.56326, 367.125002)"><g><path d="M 21.671875 -41.84375 C 28.828125 -41.84375 34.207031 -40.109375 37.8125 -36.640625 C 41.414062 -33.179688 43.21875 -28.125 43.21875 -21.46875 C 43.21875 -17.15625 42.34375 -13.378906 40.59375 -10.140625 C 38.851562 -6.910156 36.316406 -4.410156 32.984375 -2.640625 C 29.660156 -0.878906 25.6875 0 21.0625 0 L 17.0625 -0.0625 C 14.5 -0.15625 12.617188 -0.203125 11.421875 -0.203125 C 7.660156 -0.203125 4.816406 -0.132812 2.890625 0 L 2.890625 -1.375 C 4.546875 -1.46875 5.75 -1.648438 6.5 -1.921875 C 7.257812 -2.203125 7.773438 -2.726562 8.046875 -3.5 C 8.328125 -4.28125 8.46875 -5.546875 8.46875 -7.296875 L 8.46875 -34.546875 C 8.46875 -36.285156 8.328125 -37.546875 8.046875 -38.328125 C 7.773438 -39.109375 7.257812 -39.632812 6.5 -39.90625 C 5.75 -40.1875 4.546875 -40.375 2.890625 -40.46875 L 2.890625 -41.84375 C 4.492188 -41.695312 6.71875 -41.625 9.5625 -41.625 L 15.40625 -41.703125 C 18.53125 -41.796875 20.617188 -41.84375 21.671875 -41.84375 Z M 19.953125 -40.59375 C 18.535156 -40.59375 17.46875 -40.429688 16.75 -40.109375 C 16.039062 -39.796875 15.546875 -39.222656 15.265625 -38.390625 C 14.992188 -37.566406 14.859375 -36.332031 14.859375 -34.6875 L 14.859375 -7.15625 C 14.859375 -5.5 14.992188 -4.257812 15.265625 -3.4375 C 15.546875 -2.613281 16.039062 -2.039062 16.75 -1.71875 C 17.46875 -1.394531 18.5625 -1.234375 20.03125 -1.234375 C 24.195312 -1.234375 27.472656 -1.976562 29.859375 -3.46875 C 32.242188 -4.96875 33.914062 -7.160156 34.875 -10.046875 C 35.84375 -12.929688 36.328125 -16.644531 36.328125 -21.1875 C 36.328125 -27.882812 35.085938 -32.789062 32.609375 -35.90625 C 30.140625 -39.03125 25.921875 -40.59375 19.953125 -40.59375 Z M 19.953125 -40.59375 "/></g></g></g><g fill="#e3e6e3" fill-opacity="1"><g transform="translate(625.11375, 367.125002)"><g/></g></g><g fill="#e3e6e3" fill-opacity="1"><g transform="translate(638.804682, 367.125002)"><g><path d="M 33.4375 -41.5625 C 36.050781 -41.5625 37.816406 -41.65625 38.734375 -41.84375 L 38.734375 -40.390625 C 37.960938 -40.210938 37.253906 -39.773438 36.609375 -39.078125 C 35.960938 -38.390625 35.207031 -37.269531 34.34375 -35.71875 L 23.53125 -16.375 L 23.53125 -7.296875 C 23.53125 -5.546875 23.664062 -4.28125 23.9375 -3.5 C 24.21875 -2.726562 24.734375 -2.203125 25.484375 -1.921875 C 26.242188 -1.648438 27.453125 -1.46875 29.109375 -1.375 L 29.109375 0 C 26.992188 -0.132812 24.082031 -0.203125 20.375 -0.203125 C 16.425781 -0.203125 13.488281 -0.132812 11.5625 0 L 11.5625 -1.375 C 13.207031 -1.46875 14.410156 -1.648438 15.171875 -1.921875 C 15.929688 -2.203125 16.445312 -2.726562 16.71875 -3.5 C 17 -4.28125 17.140625 -5.546875 17.140625 -7.296875 L 17.140625 -14.453125 L 3.859375 -36.546875 C 2.984375 -38.003906 2.257812 -38.972656 1.6875 -39.453125 C 1.113281 -39.941406 0.503906 -40.253906 -0.140625 -40.390625 L -0.140625 -41.84375 C 2.796875 -41.65625 4.816406 -41.5625 5.921875 -41.5625 C 9.085938 -41.5625 12.296875 -41.65625 15.546875 -41.84375 L 15.546875 -40.390625 C 13.992188 -40.390625 12.800781 -40.265625 11.96875 -40.015625 C 11.144531 -39.765625 10.734375 -39.203125 10.734375 -38.328125 C 10.734375 -37.546875 11.125 -36.46875 11.90625 -35.09375 L 22.296875 -17.75 L 30.828125 -32.75 C 31.835938 -34.582031 32.34375 -36.050781 32.34375 -37.15625 C 32.34375 -39.082031 30.757812 -40.160156 27.59375 -40.390625 L 27.59375 -41.84375 C 29.289062 -41.65625 31.238281 -41.5625 33.4375 -41.5625 Z M 33.4375 -41.5625 "/></g></g></g><g fill="#e3e6e3" fill-opacity="1"><g transform="translate(206.608229, 432.374998)"><g><path d="M 24.21875 -42.796875 C 26.789062 -42.796875 28.867188 -42.425781 30.453125 -41.6875 C 32.035156 -40.957031 33.71875 -39.835938 35.5 -38.328125 C 36.101562 -37.867188 36.566406 -37.640625 36.890625 -37.640625 C 37.753906 -37.640625 38.328125 -39.039062 38.609375 -41.84375 L 40.1875 -41.84375 C 40 -39.226562 39.90625 -34.640625 39.90625 -28.078125 L 38.328125 -28.078125 C 37.960938 -29.816406 37.515625 -31.351562 36.984375 -32.6875 C 36.460938 -34.019531 35.765625 -35.191406 34.890625 -36.203125 C 33.367188 -37.941406 31.78125 -39.269531 30.125 -40.1875 C 28.476562 -41.101562 26.460938 -41.5625 24.078125 -41.5625 C 21.328125 -41.5625 18.941406 -40.722656 16.921875 -39.046875 C 14.910156 -37.378906 13.351562 -34.984375 12.25 -31.859375 C 11.144531 -28.742188 10.59375 -25.070312 10.59375 -20.84375 C 10.59375 -13.832031 11.875 -8.671875 14.4375 -5.359375 C 17.007812 -2.054688 20.84375 -0.40625 25.9375 -0.40625 C 27.914062 -0.40625 29.679688 -0.59375 31.234375 -0.96875 C 32.066406 -1.144531 32.628906 -1.441406 32.921875 -1.859375 C 33.222656 -2.273438 33.375 -2.847656 33.375 -3.578125 L 33.375 -9.5 C 33.375 -11.425781 33.1875 -12.820312 32.8125 -13.6875 C 32.445312 -14.5625 31.804688 -15.160156 30.890625 -15.484375 C 29.972656 -15.804688 28.484375 -16.015625 26.421875 -16.109375 L 26.421875 -17.484375 C 28.898438 -17.335938 32.132812 -17.265625 36.125 -17.265625 C 39.25 -17.265625 41.632812 -17.335938 43.28125 -17.484375 L 43.28125 -16.109375 C 42.226562 -16.015625 41.472656 -15.828125 41.015625 -15.546875 C 40.554688 -15.273438 40.234375 -14.75 40.046875 -13.96875 C 39.867188 -13.1875 39.78125 -11.925781 39.78125 -10.1875 L 39.78125 0 L 38.390625 0 C 38.304688 -1.101562 37.960938 -1.65625 37.359375 -1.65625 C 37.085938 -1.65625 36.582031 -1.492188 35.84375 -1.171875 C 35.113281 -0.847656 34.613281 -0.640625 34.34375 -0.546875 C 31.40625 0.460938 28.398438 0.96875 25.328125 0.96875 C 18.441406 0.96875 13.117188 -0.875 9.359375 -4.5625 C 5.597656 -8.257812 3.71875 -13.4375 3.71875 -20.09375 C 3.71875 -24.675781 4.585938 -28.675781 6.328125 -32.09375 C 8.078125 -35.519531 10.5 -38.160156 13.59375 -40.015625 C 16.6875 -41.867188 20.226562 -42.796875 24.21875 -42.796875 Z M 24.21875 -42.796875 "/></g></g></g><g fill="#e3e6e3" fill-opacity="1"><g transform="translate(248.645085, 432.374998)"><g><path d="M 36.75 -8.125 C 36.75 -5.738281 36.910156 -3.03125 37.234375 0 C 34.242188 -0.132812 29.21875 -0.203125 22.15625 -0.203125 C 13.664062 -0.203125 7.242188 -0.132812 2.890625 0 L 2.890625 -1.375 C 4.546875 -1.46875 5.75 -1.648438 6.5 -1.921875 C 7.257812 -2.203125 7.773438 -2.726562 8.046875 -3.5 C 8.328125 -4.28125 8.46875 -5.546875 8.46875 -7.296875 L 8.46875 -34.546875 C 8.46875 -36.285156 8.328125 -37.546875 8.046875 -38.328125 C 7.773438 -39.109375 7.257812 -39.632812 6.5 -39.90625 C 5.75 -40.1875 4.546875 -40.375 2.890625 -40.46875 L 2.890625 -41.84375 C 7.242188 -41.695312 13.664062 -41.625 22.15625 -41.625 C 28.582031 -41.625 33.144531 -41.695312 35.84375 -41.84375 C 35.53125 -39.082031 35.375 -36.601562 35.375 -34.40625 C 35.375 -32.613281 35.441406 -31.191406 35.578125 -30.140625 L 34 -30.140625 C 33.675781 -33.898438 32.882812 -36.523438 31.625 -38.015625 C 30.363281 -39.503906 28.304688 -40.25 25.453125 -40.25 L 20.4375 -40.25 C 18.78125 -40.25 17.570312 -40.125 16.8125 -39.875 C 16.0625 -39.625 15.546875 -39.109375 15.265625 -38.328125 C 14.992188 -37.546875 14.859375 -36.285156 14.859375 -34.546875 L 14.859375 -21.75 L 20.578125 -21.75 C 22.046875 -21.75 23.164062 -22.125 23.9375 -22.875 C 24.71875 -23.632812 25.242188 -24.460938 25.515625 -25.359375 C 25.796875 -26.253906 26.050781 -27.390625 26.28125 -28.765625 L 27.875 -28.765625 C 27.726562 -27.203125 27.65625 -25.503906 27.65625 -23.671875 L 27.65625 -21.0625 C 27.65625 -19.269531 27.796875 -16.695312 28.078125 -13.34375 L 26.5 -13.34375 C 26.21875 -15.550781 25.6875 -17.273438 24.90625 -18.515625 C 24.125 -19.753906 22.679688 -20.375 20.578125 -20.375 L 14.859375 -20.375 L 14.859375 -7.296875 C 14.859375 -5.546875 14.992188 -4.28125 15.265625 -3.5 C 15.546875 -2.726562 16.0625 -2.210938 16.8125 -1.953125 C 17.570312 -1.703125 18.78125 -1.578125 20.4375 -1.578125 L 25.453125 -1.578125 C 27.753906 -1.578125 29.566406 -1.941406 30.890625 -2.671875 C 32.222656 -3.410156 33.234375 -4.59375 33.921875 -6.21875 C 34.609375 -7.851562 35.09375 -10.140625 35.375 -13.078125 L 36.953125 -13.078125 C 36.816406 -11.835938 36.75 -10.1875 36.75 -8.125 Z M 36.75 -8.125 "/></g></g></g><g fill="#e3e6e3" fill-opacity="1"><g transform="translate(286.141087, 432.374998)"><g><path d="M 17.609375 -42.796875 C 19.628906 -42.796875 21.222656 -42.578125 22.390625 -42.140625 C 23.566406 -41.710938 24.773438 -41.082031 26.015625 -40.25 C 27.023438 -39.613281 27.800781 -39.296875 28.34375 -39.296875 C 28.757812 -39.296875 29.082031 -39.535156 29.3125 -40.015625 C 29.539062 -40.492188 29.722656 -41.257812 29.859375 -42.3125 L 31.453125 -42.3125 C 31.222656 -39.925781 31.109375 -35.707031 31.109375 -29.65625 L 29.515625 -29.65625 C 29.242188 -32.957031 28.175781 -35.753906 26.3125 -38.046875 C 24.457031 -40.347656 21.765625 -41.5 18.234375 -41.5 C 15.804688 -41.5 13.800781 -40.851562 12.21875 -39.5625 C 10.632812 -38.28125 9.84375 -36.65625 9.84375 -34.6875 C 9.84375 -33.257812 10.195312 -32.019531 10.90625 -30.96875 C 11.613281 -29.914062 12.53125 -29.007812 13.65625 -28.25 C 14.78125 -27.488281 16.375 -26.554688 18.4375 -25.453125 L 20.71875 -24.21875 C 23.5625 -22.707031 25.84375 -21.351562 27.5625 -20.15625 C 29.28125 -18.96875 30.664062 -17.601562 31.71875 -16.0625 C 32.78125 -14.53125 33.3125 -12.753906 33.3125 -10.734375 C 33.3125 -7.015625 31.96875 -4.132812 29.28125 -2.09375 C 26.59375 -0.0507812 23.234375 0.96875 19.203125 0.96875 C 16.992188 0.96875 15.191406 0.738281 13.796875 0.28125 C 12.398438 -0.175781 11.054688 -0.796875 9.765625 -1.578125 C 8.753906 -2.222656 7.976562 -2.546875 7.4375 -2.546875 C 7.019531 -2.546875 6.695312 -2.300781 6.46875 -1.8125 C 6.238281 -1.332031 6.054688 -0.566406 5.921875 0.484375 L 4.328125 0.484375 C 4.515625 -1.765625 4.609375 -6.8125 4.609375 -14.65625 L 6.1875 -14.65625 C 6.507812 -10.382812 7.65625 -6.941406 9.625 -4.328125 C 11.601562 -1.710938 14.632812 -0.40625 18.71875 -0.40625 C 21.007812 -0.40625 22.992188 -1.054688 24.671875 -2.359375 C 26.347656 -3.671875 27.1875 -5.613281 27.1875 -8.1875 C 27.1875 -9.695312 26.75 -11.035156 25.875 -12.203125 C 25 -13.378906 23.828125 -14.425781 22.359375 -15.34375 C 20.890625 -16.257812 18.847656 -17.40625 16.234375 -18.78125 C 12.472656 -20.707031 9.601562 -22.632812 7.625 -24.5625 C 5.65625 -26.488281 4.671875 -28.988281 4.671875 -32.0625 C 4.671875 -35.457031 5.921875 -38.09375 8.421875 -39.96875 C 10.929688 -41.851562 13.992188 -42.796875 17.609375 -42.796875 Z M 17.609375 -42.796875 "/></g></g></g><g fill="#e3e6e3" fill-opacity="1"><g transform="translate(319.509041, 432.374998)"><g><path d="M 41.078125 -41.84375 C 40.753906 -38.8125 40.59375 -36.101562 40.59375 -33.71875 C 40.59375 -31.332031 40.664062 -29.453125 40.8125 -28.078125 L 39.21875 -28.078125 C 38.945312 -31.285156 38.507812 -33.738281 37.90625 -35.4375 C 37.3125 -37.132812 36.347656 -38.359375 35.015625 -39.109375 C 33.691406 -39.867188 31.789062 -40.25 29.3125 -40.25 L 24.90625 -40.25 L 24.90625 -7.984375 C 24.90625 -6.054688 25.085938 -4.65625 25.453125 -3.78125 C 25.828125 -2.914062 26.472656 -2.320312 27.390625 -2 C 28.304688 -1.675781 29.796875 -1.46875 31.859375 -1.375 L 31.859375 0 C 29.472656 -0.132812 26.101562 -0.203125 21.75 -0.203125 C 17.15625 -0.203125 13.757812 -0.132812 11.5625 0 L 11.5625 -1.375 C 13.625 -1.46875 15.113281 -1.675781 16.03125 -2 C 16.945312 -2.320312 17.585938 -2.914062 17.953125 -3.78125 C 18.328125 -4.65625 18.515625 -6.054688 18.515625 -7.984375 L 18.515625 -40.25 L 14.109375 -40.25 C 11.628906 -40.25 9.722656 -39.867188 8.390625 -39.109375 C 7.066406 -38.359375 6.101562 -37.132812 5.5 -35.4375 C 4.90625 -33.738281 4.472656 -31.285156 4.203125 -28.078125 L 2.609375 -28.078125 C 2.753906 -29.546875 2.828125 -31.425781 2.828125 -33.71875 C 2.828125 -36.101562 2.664062 -38.8125 2.34375 -41.84375 C 6.144531 -41.695312 12.613281 -41.625 21.75 -41.625 C 30.832031 -41.625 37.273438 -41.695312 41.078125 -41.84375 Z M 41.078125 -41.84375 "/></g></g></g><g fill="#e3e6e3" fill-opacity="1"><g transform="translate(359.481878, 432.374998)"><g><path d="M 20.4375 -40.46875 C 18.78125 -40.375 17.570312 -40.1875 16.8125 -39.90625 C 16.0625 -39.632812 15.546875 -39.109375 15.265625 -38.328125 C 14.992188 -37.546875 14.859375 -36.285156 14.859375 -34.546875 L 14.859375 -7.296875 C 14.859375 -5.546875 14.992188 -4.28125 15.265625 -3.5 C 15.546875 -2.726562 16.0625 -2.203125 16.8125 -1.921875 C 17.570312 -1.648438 18.78125 -1.46875 20.4375 -1.375 L 20.4375 0 C 18.320312 -0.132812 15.410156 -0.203125 11.703125 -0.203125 C 7.753906 -0.203125 4.816406 -0.132812 2.890625 0 L 2.890625 -1.375 C 4.546875 -1.46875 5.75 -1.648438 6.5 -1.921875 C 7.257812 -2.203125 7.773438 -2.726562 8.046875 -3.5 C 8.328125 -4.28125 8.46875 -5.546875 8.46875 -7.296875 L 8.46875 -34.546875 C 8.46875 -36.285156 8.328125 -37.546875 8.046875 -38.328125 C 7.773438 -39.109375 7.257812 -39.632812 6.5 -39.90625 C 5.75 -40.1875 4.546875 -40.375 2.890625 -40.46875 L 2.890625 -41.84375 C 4.816406 -41.695312 7.753906 -41.625 11.703125 -41.625 C 15.367188 -41.625 18.28125 -41.695312 20.4375 -41.84375 Z M 20.4375 -40.46875 "/></g></g></g><g fill="#e3e6e3" fill-opacity="1"><g transform="translate(379.364877, 432.374998)"><g><path d="M 24.84375 -42.796875 C 29.0625 -42.796875 32.765625 -41.957031 35.953125 -40.28125 C 39.140625 -38.613281 41.601562 -36.160156 43.34375 -32.921875 C 45.09375 -29.691406 45.96875 -25.828125 45.96875 -21.328125 C 45.96875 -16.921875 45.0625 -13.03125 43.25 -9.65625 C 41.4375 -6.289062 38.921875 -3.675781 35.703125 -1.8125 C 32.492188 0.0390625 28.847656 0.96875 24.765625 0.96875 C 20.546875 0.96875 16.84375 0.128906 13.65625 -1.546875 C 10.46875 -3.222656 8 -5.675781 6.25 -8.90625 C 4.507812 -12.144531 3.640625 -16.007812 3.640625 -20.5 C 3.640625 -24.90625 4.546875 -28.796875 6.359375 -32.171875 C 8.171875 -35.546875 10.679688 -38.160156 13.890625 -40.015625 C 17.109375 -41.867188 20.757812 -42.796875 24.84375 -42.796875 Z M 24.5625 -41.5625 C 21.769531 -41.5625 19.304688 -40.675781 17.171875 -38.90625 C 15.035156 -37.144531 13.394531 -34.691406 12.25 -31.546875 C 11.101562 -28.410156 10.53125 -24.820312 10.53125 -20.78125 C 10.53125 -16.695312 11.171875 -13.09375 12.453125 -9.96875 C 13.734375 -6.851562 15.472656 -4.457031 17.671875 -2.78125 C 19.878906 -1.113281 22.335938 -0.28125 25.046875 -0.28125 C 27.847656 -0.28125 30.3125 -1.160156 32.4375 -2.921875 C 34.570312 -4.691406 36.210938 -7.144531 37.359375 -10.28125 C 38.503906 -13.425781 39.078125 -17.019531 39.078125 -21.0625 C 39.078125 -25.144531 38.4375 -28.742188 37.15625 -31.859375 C 35.875 -34.984375 34.128906 -37.378906 31.921875 -39.046875 C 29.722656 -40.722656 27.269531 -41.5625 24.5625 -41.5625 Z M 31.453125 -59.3125 C 32.191406 -59.769531 32.878906 -60 33.515625 -60 C 34.390625 -60 35.101562 -59.609375 35.65625 -58.828125 C 35.925781 -58.421875 36.0625 -57.988281 36.0625 -57.53125 C 36.0625 -56.519531 35.441406 -55.625 34.203125 -54.84375 C 33.242188 -54.25 31.59375 -53.515625 29.25 -52.640625 C 25.8125 -51.265625 22.851562 -49.957031 20.375 -48.71875 L 19.890625 -49.609375 C 21.773438 -51.035156 23.394531 -52.351562 24.75 -53.5625 C 26.101562 -54.78125 26.9375 -55.53125 27.25 -55.8125 C 28.945312 -57.414062 30.347656 -58.582031 31.453125 -59.3125 Z M 31.453125 -59.3125 "/></g></g></g><g fill="#e3e6e3" fill-opacity="1"><g transform="translate(425.52978, 432.374998)"><g><path d="M 44.734375 -40.46875 C 43.117188 -40.375 41.921875 -40.128906 41.140625 -39.734375 C 40.367188 -39.347656 39.84375 -38.707031 39.5625 -37.8125 C 39.289062 -36.914062 39.15625 -35.597656 39.15625 -33.859375 L 39.15625 0.34375 L 37.578125 0.34375 L 10.046875 -37.78125 L 10.046875 -7.984375 C 10.046875 -6.191406 10.191406 -4.859375 10.484375 -3.984375 C 10.785156 -3.117188 11.375 -2.488281 12.25 -2.09375 C 13.125 -1.707031 14.476562 -1.46875 16.3125 -1.375 L 16.3125 0 C 14.65625 -0.132812 12.316406 -0.203125 9.296875 -0.203125 C 6.535156 -0.203125 4.398438 -0.132812 2.890625 0 L 2.890625 -1.375 C 4.492188 -1.46875 5.6875 -1.707031 6.46875 -2.09375 C 7.25 -2.488281 7.773438 -3.132812 8.046875 -4.03125 C 8.328125 -4.925781 8.46875 -6.242188 8.46875 -7.984375 L 8.46875 -34.546875 C 8.46875 -36.285156 8.328125 -37.546875 8.046875 -38.328125 C 7.773438 -39.109375 7.257812 -39.632812 6.5 -39.90625 C 5.75 -40.1875 4.546875 -40.375 2.890625 -40.46875 L 2.890625 -41.84375 C 4.398438 -41.695312 6.535156 -41.625 9.296875 -41.625 C 11.765625 -41.625 13.875 -41.695312 15.625 -41.84375 L 37.578125 -11.28125 L 37.578125 -33.859375 C 37.578125 -35.648438 37.425781 -36.976562 37.125 -37.84375 C 36.820312 -38.71875 36.234375 -39.347656 35.359375 -39.734375 C 34.492188 -40.128906 33.144531 -40.375 31.3125 -40.46875 L 31.3125 -41.84375 C 32.957031 -41.695312 35.296875 -41.625 38.328125 -41.625 C 41.078125 -41.625 43.210938 -41.695312 44.734375 -41.84375 Z M 44.734375 -40.46875 "/></g></g></g><g fill="#e3e6e3" fill-opacity="1"><g transform="translate(469.21785, 432.374998)"><g/></g></g><g fill="#e3e6e3" fill-opacity="1"><g transform="translate(482.908783, 432.374998)"><g><path d="M 21.671875 -41.84375 C 28.828125 -41.84375 34.207031 -40.109375 37.8125 -36.640625 C 41.414062 -33.179688 43.21875 -28.125 43.21875 -21.46875 C 43.21875 -17.15625 42.34375 -13.378906 40.59375 -10.140625 C 38.851562 -6.910156 36.316406 -4.410156 32.984375 -2.640625 C 29.660156 -0.878906 25.6875 0 21.0625 0 L 17.0625 -0.0625 C 14.5 -0.15625 12.617188 -0.203125 11.421875 -0.203125 C 7.660156 -0.203125 4.816406 -0.132812 2.890625 0 L 2.890625 -1.375 C 4.546875 -1.46875 5.75 -1.648438 6.5 -1.921875 C 7.257812 -2.203125 7.773438 -2.726562 8.046875 -3.5 C 8.328125 -4.28125 8.46875 -5.546875 8.46875 -7.296875 L 8.46875 -34.546875 C 8.46875 -36.285156 8.328125 -37.546875 8.046875 -38.328125 C 7.773438 -39.109375 7.257812 -39.632812 6.5 -39.90625 C 5.75 -40.1875 4.546875 -40.375 2.890625 -40.46875 L 2.890625 -41.84375 C 4.492188 -41.695312 6.71875 -41.625 9.5625 -41.625 L 15.40625 -41.703125 C 18.53125 -41.796875 20.617188 -41.84375 21.671875 -41.84375 Z M 19.953125 -40.59375 C 18.535156 -40.59375 17.46875 -40.429688 16.75 -40.109375 C 16.039062 -39.796875 15.546875 -39.222656 15.265625 -38.390625 C 14.992188 -37.566406 14.859375 -36.332031 14.859375 -34.6875 L 14.859375 -7.15625 C 14.859375 -5.5 14.992188 -4.257812 15.265625 -3.4375 C 15.546875 -2.613281 16.039062 -2.039062 16.75 -1.71875 C 17.46875 -1.394531 18.5625 -1.234375 20.03125 -1.234375 C 24.195312 -1.234375 27.472656 -1.976562 29.859375 -3.46875 C 32.242188 -4.96875 33.914062 -7.160156 34.875 -10.046875 C 35.84375 -12.929688 36.328125 -16.644531 36.328125 -21.1875 C 36.328125 -27.882812 35.085938 -32.789062 32.609375 -35.90625 C 30.140625 -39.03125 25.921875 -40.59375 19.953125 -40.59375 Z M 19.953125 -40.59375 "/></g></g></g><g fill="#e3e6e3" fill-opacity="1"><g transform="translate(526.459249, 432.374998)"><g><path d="M 36.75 -8.125 C 36.75 -5.738281 36.910156 -3.03125 37.234375 0 C 34.242188 -0.132812 29.21875 -0.203125 22.15625 -0.203125 C 13.664062 -0.203125 7.242188 -0.132812 2.890625 0 L 2.890625 -1.375 C 4.546875 -1.46875 5.75 -1.648438 6.5 -1.921875 C 7.257812 -2.203125 7.773438 -2.726562 8.046875 -3.5 C 8.328125 -4.28125 8.46875 -5.546875 8.46875 -7.296875 L 8.46875 -34.546875 C 8.46875 -36.285156 8.328125 -37.546875 8.046875 -38.328125 C 7.773438 -39.109375 7.257812 -39.632812 6.5 -39.90625 C 5.75 -40.1875 4.546875 -40.375 2.890625 -40.46875 L 2.890625 -41.84375 C 7.242188 -41.695312 13.664062 -41.625 22.15625 -41.625 C 28.582031 -41.625 33.144531 -41.695312 35.84375 -41.84375 C 35.53125 -39.082031 35.375 -36.601562 35.375 -34.40625 C 35.375 -32.613281 35.441406 -31.191406 35.578125 -30.140625 L 34 -30.140625 C 33.675781 -33.898438 32.882812 -36.523438 31.625 -38.015625 C 30.363281 -39.503906 28.304688 -40.25 25.453125 -40.25 L 20.4375 -40.25 C 18.78125 -40.25 17.570312 -40.125 16.8125 -39.875 C 16.0625 -39.625 15.546875 -39.109375 15.265625 -38.328125 C 14.992188 -37.546875 14.859375 -36.285156 14.859375 -34.546875 L 14.859375 -21.75 L 20.578125 -21.75 C 22.046875 -21.75 23.164062 -22.125 23.9375 -22.875 C 24.71875 -23.632812 25.242188 -24.460938 25.515625 -25.359375 C 25.796875 -26.253906 26.050781 -27.390625 26.28125 -28.765625 L 27.875 -28.765625 C 27.726562 -27.203125 27.65625 -25.503906 27.65625 -23.671875 L 27.65625 -21.0625 C 27.65625 -19.269531 27.796875 -16.695312 28.078125 -13.34375 L 26.5 -13.34375 C 26.21875 -15.550781 25.6875 -17.273438 24.90625 -18.515625 C 24.125 -19.753906 22.679688 -20.375 20.578125 -20.375 L 14.859375 -20.375 L 14.859375 -7.296875 C 14.859375 -5.546875 14.992188 -4.28125 15.265625 -3.5 C 15.546875 -2.726562 16.0625 -2.210938 16.8125 -1.953125 C 17.570312 -1.703125 18.78125 -1.578125 20.4375 -1.578125 L 25.453125 -1.578125 C 27.753906 -1.578125 29.566406 -1.941406 30.890625 -2.671875 C 32.222656 -3.410156 33.234375 -4.59375 33.921875 -6.21875 C 34.609375 -7.851562 35.09375 -10.140625 35.375 -13.078125 L 36.953125 -13.078125 C 36.816406 -11.835938 36.75 -10.1875 36.75 -8.125 Z M 36.75 -8.125 "/></g></g></g><g fill="#e3e6e3" fill-opacity="1"><g transform="translate(563.955241, 432.374998)"><g><path d="M 20.4375 -40.46875 C 18.78125 -40.375 17.570312 -40.1875 16.8125 -39.90625 C 16.0625 -39.632812 15.546875 -39.109375 15.265625 -38.328125 C 14.992188 -37.546875 14.859375 -36.285156 14.859375 -34.546875 L 14.859375 -7.296875 C 14.859375 -5.546875 14.992188 -4.28125 15.265625 -3.5 C 15.546875 -2.726562 16.0625 -2.210938 16.8125 -1.953125 C 17.570312 -1.703125 18.78125 -1.578125 20.4375 -1.578125 L 24.765625 -1.578125 C 27.929688 -1.578125 30.394531 -2.515625 32.15625 -4.390625 C 33.925781 -6.273438 35 -9.398438 35.375 -13.765625 L 36.953125 -13.765625 C 36.816406 -12.335938 36.75 -10.457031 36.75 -8.125 C 36.75 -5.738281 36.910156 -3.03125 37.234375 0 C 34.242188 -0.132812 29.21875 -0.203125 22.15625 -0.203125 C 13.664062 -0.203125 7.242188 -0.132812 2.890625 0 L 2.890625 -1.375 C 4.546875 -1.46875 5.75 -1.648438 6.5 -1.921875 C 7.257812 -2.203125 7.773438 -2.726562 8.046875 -3.5 C 8.328125 -4.28125 8.46875 -5.546875 8.46875 -7.296875 L 8.46875 -34.546875 C 8.46875 -36.285156 8.328125 -37.546875 8.046875 -38.328125 C 7.773438 -39.109375 7.257812 -39.632812 6.5 -39.90625 C 5.75 -40.1875 4.546875 -40.375 2.890625 -40.46875 L 2.890625 -41.84375 C 4.816406 -41.695312 7.753906 -41.625 11.703125 -41.625 C 15.367188 -41.625 18.28125 -41.695312 20.4375 -41.84375 Z M 20.4375 -40.46875 "/></g></g></g><g fill="#e3e6e3" fill-opacity="1"><g transform="translate(286.213697, 497.624995)"><g><path d="M 41.078125 -41.84375 C 40.753906 -38.8125 40.59375 -36.101562 40.59375 -33.71875 C 40.59375 -31.332031 40.664062 -29.453125 40.8125 -28.078125 L 39.21875 -28.078125 C 38.945312 -31.285156 38.507812 -33.738281 37.90625 -35.4375 C 37.3125 -37.132812 36.347656 -38.359375 35.015625 -39.109375 C 33.691406 -39.867188 31.789062 -40.25 29.3125 -40.25 L 24.90625 -40.25 L 24.90625 -7.984375 C 24.90625 -6.054688 25.085938 -4.65625 25.453125 -3.78125 C 25.828125 -2.914062 26.472656 -2.320312 27.390625 -2 C 28.304688 -1.675781 29.796875 -1.46875 31.859375 -1.375 L 31.859375 0 C 29.472656 -0.132812 26.101562 -0.203125 21.75 -0.203125 C 17.15625 -0.203125 13.757812 -0.132812 11.5625 0 L 11.5625 -1.375 C 13.625 -1.46875 15.113281 -1.675781 16.03125 -2 C 16.945312 -2.320312 17.585938 -2.914062 17.953125 -3.78125 C 18.328125 -4.65625 18.515625 -6.054688 18.515625 -7.984375 L 18.515625 -40.25 L 14.109375 -40.25 C 11.628906 -40.25 9.722656 -39.867188 8.390625 -39.109375 C 7.066406 -38.359375 6.101562 -37.132812 5.5 -35.4375 C 4.90625 -33.738281 4.472656 -31.285156 4.203125 -28.078125 L 2.609375 -28.078125 C 2.753906 -29.546875 2.828125 -31.425781 2.828125 -33.71875 C 2.828125 -36.101562 2.664062 -38.8125 2.34375 -41.84375 C 6.144531 -41.695312 12.613281 -41.625 21.75 -41.625 C 30.832031 -41.625 37.273438 -41.695312 41.078125 -41.84375 Z M 41.078125 -41.84375 "/></g></g></g><g fill="#e3e6e3" fill-opacity="1"><g transform="translate(326.186532, 497.624995)"><g><path d="M 20.4375 -40.46875 C 18.78125 -40.375 17.570312 -40.1875 16.8125 -39.90625 C 16.0625 -39.632812 15.546875 -39.109375 15.265625 -38.328125 C 14.992188 -37.546875 14.859375 -36.285156 14.859375 -34.546875 L 14.859375 -7.296875 C 14.859375 -5.546875 14.992188 -4.28125 15.265625 -3.5 C 15.546875 -2.726562 16.0625 -2.203125 16.8125 -1.921875 C 17.570312 -1.648438 18.78125 -1.46875 20.4375 -1.375 L 20.4375 0 C 18.320312 -0.132812 15.410156 -0.203125 11.703125 -0.203125 C 7.753906 -0.203125 4.816406 -0.132812 2.890625 0 L 2.890625 -1.375 C 4.546875 -1.46875 5.75 -1.648438 6.5 -1.921875 C 7.257812 -2.203125 7.773438 -2.726562 8.046875 -3.5 C 8.328125 -4.28125 8.46875 -5.546875 8.46875 -7.296875 L 8.46875 -34.546875 C 8.46875 -36.285156 8.328125 -37.546875 8.046875 -38.328125 C 7.773438 -39.109375 7.257812 -39.632812 6.5 -39.90625 C 5.75 -40.1875 4.546875 -40.375 2.890625 -40.46875 L 2.890625 -41.84375 C 4.816406 -41.695312 7.753906 -41.625 11.703125 -41.625 C 15.367188 -41.625 18.28125 -41.695312 20.4375 -41.84375 Z M 20.4375 -40.46875 "/></g></g></g><g fill="#e3e6e3" fill-opacity="1"><g transform="translate(346.069527, 497.624995)"><g><path d="M 36.75 -8.125 C 36.75 -5.738281 36.910156 -3.03125 37.234375 0 C 34.242188 -0.132812 29.21875 -0.203125 22.15625 -0.203125 C 13.664062 -0.203125 7.242188 -0.132812 2.890625 0 L 2.890625 -1.375 C 4.546875 -1.46875 5.75 -1.648438 6.5 -1.921875 C 7.257812 -2.203125 7.773438 -2.726562 8.046875 -3.5 C 8.328125 -4.28125 8.46875 -5.546875 8.46875 -7.296875 L 8.46875 -34.546875 C 8.46875 -36.285156 8.328125 -37.546875 8.046875 -38.328125 C 7.773438 -39.109375 7.257812 -39.632812 6.5 -39.90625 C 5.75 -40.1875 4.546875 -40.375 2.890625 -40.46875 L 2.890625 -41.84375 C 7.242188 -41.695312 13.664062 -41.625 22.15625 -41.625 C 28.582031 -41.625 33.144531 -41.695312 35.84375 -41.84375 C 35.53125 -39.082031 35.375 -36.601562 35.375 -34.40625 C 35.375 -32.613281 35.441406 -31.191406 35.578125 -30.140625 L 34 -30.140625 C 33.675781 -33.898438 32.882812 -36.523438 31.625 -38.015625 C 30.363281 -39.503906 28.304688 -40.25 25.453125 -40.25 L 20.4375 -40.25 C 18.78125 -40.25 17.570312 -40.125 16.8125 -39.875 C 16.0625 -39.625 15.546875 -39.109375 15.265625 -38.328125 C 14.992188 -37.546875 14.859375 -36.285156 14.859375 -34.546875 L 14.859375 -21.75 L 20.578125 -21.75 C 22.046875 -21.75 23.164062 -22.125 23.9375 -22.875 C 24.71875 -23.632812 25.242188 -24.460938 25.515625 -25.359375 C 25.796875 -26.253906 26.050781 -27.390625 26.28125 -28.765625 L 27.875 -28.765625 C 27.726562 -27.203125 27.65625 -25.503906 27.65625 -23.671875 L 27.65625 -21.0625 C 27.65625 -19.269531 27.796875 -16.695312 28.078125 -13.34375 L 26.5 -13.34375 C 26.21875 -15.550781 25.6875 -17.273438 24.90625 -18.515625 C 24.125 -19.753906 22.679688 -20.375 20.578125 -20.375 L 14.859375 -20.375 L 14.859375 -7.296875 C 14.859375 -5.546875 14.992188 -4.28125 15.265625 -3.5 C 15.546875 -2.726562 16.0625 -2.210938 16.8125 -1.953125 C 17.570312 -1.703125 18.78125 -1.578125 20.4375 -1.578125 L 25.453125 -1.578125 C 27.753906 -1.578125 29.566406 -1.941406 30.890625 -2.671875 C 32.222656 -3.410156 33.234375 -4.59375 33.921875 -6.21875 C 34.609375 -7.851562 35.09375 -10.140625 35.375 -13.078125 L 36.953125 -13.078125 C 36.816406 -11.835938 36.75 -10.1875 36.75 -8.125 Z M 36.75 -8.125 "/></g></g></g><g fill="#e3e6e3" fill-opacity="1"><g transform="translate(383.565525, 497.624995)"><g><path d="M 55.671875 -40.46875 C 54.015625 -40.375 52.804688 -40.1875 52.046875 -39.90625 C 51.296875 -39.632812 50.78125 -39.109375 50.5 -38.328125 C 50.226562 -37.546875 50.09375 -36.285156 50.09375 -34.546875 L 50.09375 -7.296875 C 50.09375 -5.546875 50.226562 -4.28125 50.5 -3.5 C 50.78125 -2.726562 51.296875 -2.203125 52.046875 -1.921875 C 52.804688 -1.648438 54.015625 -1.46875 55.671875 -1.375 L 55.671875 0 C 53.554688 -0.132812 50.644531 -0.203125 46.9375 -0.203125 C 42.988281 -0.203125 40.050781 -0.132812 38.125 0 L 38.125 -1.375 C 39.769531 -1.46875 40.972656 -1.648438 41.734375 -1.921875 C 42.492188 -2.203125 43.007812 -2.726562 43.28125 -3.5 C 43.5625 -4.28125 43.703125 -5.546875 43.703125 -7.296875 L 43.703125 -37.5 L 27.109375 0.34375 L 26.015625 0.34375 L 10.046875 -37.4375 L 10.046875 -7.984375 C 10.046875 -6.191406 10.191406 -4.859375 10.484375 -3.984375 C 10.785156 -3.117188 11.375 -2.488281 12.25 -2.09375 C 13.125 -1.707031 14.476562 -1.46875 16.3125 -1.375 L 16.3125 0 C 14.65625 -0.132812 12.316406 -0.203125 9.296875 -0.203125 C 6.535156 -0.203125 4.398438 -0.132812 2.890625 0 L 2.890625 -1.375 C 4.492188 -1.46875 5.6875 -1.707031 6.46875 -2.09375 C 7.25 -2.488281 7.773438 -3.132812 8.046875 -4.03125 C 8.328125 -4.925781 8.46875 -6.242188 8.46875 -7.984375 L 8.46875 -34.546875 C 8.46875 -36.285156 8.328125 -37.546875 8.046875 -38.328125 C 7.773438 -39.109375 7.257812 -39.632812 6.5 -39.90625 C 5.75 -40.1875 4.546875 -40.375 2.890625 -40.46875 L 2.890625 -41.84375 C 4.398438 -41.695312 6.535156 -41.625 9.296875 -41.625 C 11.492188 -41.625 13.441406 -41.695312 15.140625 -41.84375 L 28.96875 -8.328125 L 43.703125 -41.625 L 46.9375 -41.625 C 50.644531 -41.625 53.554688 -41.695312 55.671875 -41.84375 Z M 55.671875 -40.46875 "/></g></g></g><g fill="#e3e6e3" fill-opacity="1"><g transform="translate(438.674535, 497.624995)"><g><path d="M 14.859375 -16.921875 L 14.859375 -7.296875 C 14.859375 -5.546875 14.992188 -4.28125 15.265625 -3.5 C 15.546875 -2.726562 16.0625 -2.203125 16.8125 -1.921875 C 17.570312 -1.648438 18.78125 -1.46875 20.4375 -1.375 L 20.4375 0 C 18.320312 -0.132812 15.410156 -0.203125 11.703125 -0.203125 C 7.753906 -0.203125 4.816406 -0.132812 2.890625 0 L 2.890625 -1.375 C 4.546875 -1.46875 5.75 -1.648438 6.5 -1.921875 C 7.257812 -2.203125 7.773438 -2.726562 8.046875 -3.5 C 8.328125 -4.28125 8.46875 -5.546875 8.46875 -7.296875 L 8.46875 -34.546875 C 8.46875 -36.285156 8.328125 -37.546875 8.046875 -38.328125 C 7.773438 -39.109375 7.257812 -39.632812 6.5 -39.90625 C 5.75 -40.1875 4.546875 -40.375 2.890625 -40.46875 L 2.890625 -41.84375 C 4.816406 -41.695312 7.613281 -41.625 11.28125 -41.625 L 18.71875 -41.703125 C 19.59375 -41.742188 20.578125 -41.765625 21.671875 -41.765625 C 26.578125 -41.765625 30.335938 -40.71875 32.953125 -38.625 C 35.578125 -36.539062 36.890625 -33.757812 36.890625 -30.28125 C 36.890625 -28.070312 36.347656 -25.957031 35.265625 -23.9375 C 34.191406 -21.925781 32.359375 -20.253906 29.765625 -18.921875 C 27.171875 -17.585938 23.738281 -16.921875 19.46875 -16.921875 Z M 19.953125 -40.46875 C 18.535156 -40.46875 17.46875 -40.304688 16.75 -39.984375 C 16.039062 -39.660156 15.546875 -39.082031 15.265625 -38.25 C 14.992188 -37.425781 14.859375 -36.191406 14.859375 -34.546875 L 14.859375 -18.296875 L 18.78125 -18.296875 C 23 -18.296875 25.921875 -19.304688 27.546875 -21.328125 C 29.179688 -23.347656 30 -26.078125 30 -29.515625 C 30 -33.234375 29.21875 -35.988281 27.65625 -37.78125 C 26.101562 -39.570312 23.535156 -40.46875 19.953125 -40.46875 Z M 19.953125 -40.46875 "/></g></g></g><g fill="#e3e6e3" fill-opacity="1"><g transform="translate(474.175319, 497.624995)"><g><path d="M 24.84375 -42.796875 C 29.0625 -42.796875 32.765625 -41.957031 35.953125 -40.28125 C 39.140625 -38.613281 41.601562 -36.160156 43.34375 -32.921875 C 45.09375 -29.691406 45.96875 -25.828125 45.96875 -21.328125 C 45.96875 -16.921875 45.0625 -13.03125 43.25 -9.65625 C 41.4375 -6.289062 38.921875 -3.675781 35.703125 -1.8125 C 32.492188 0.0390625 28.847656 0.96875 24.765625 0.96875 C 20.546875 0.96875 16.84375 0.128906 13.65625 -1.546875 C 10.46875 -3.222656 8 -5.675781 6.25 -8.90625 C 4.507812 -12.144531 3.640625 -16.007812 3.640625 -20.5 C 3.640625 -24.90625 4.546875 -28.796875 6.359375 -32.171875 C 8.171875 -35.546875 10.679688 -38.160156 13.890625 -40.015625 C 17.109375 -41.867188 20.757812 -42.796875 24.84375 -42.796875 Z M 24.5625 -41.5625 C 21.769531 -41.5625 19.304688 -40.675781 17.171875 -38.90625 C 15.035156 -37.144531 13.394531 -34.691406 12.25 -31.546875 C 11.101562 -28.410156 10.53125 -24.820312 10.53125 -20.78125 C 10.53125 -16.695312 11.171875 -13.09375 12.453125 -9.96875 C 13.734375 -6.851562 15.472656 -4.457031 17.671875 -2.78125 C 19.878906 -1.113281 22.335938 -0.28125 25.046875 -0.28125 C 27.847656 -0.28125 30.3125 -1.160156 32.4375 -2.921875 C 34.570312 -4.691406 36.210938 -7.144531 37.359375 -10.28125 C 38.503906 -13.425781 39.078125 -17.019531 39.078125 -21.0625 C 39.078125 -25.144531 38.4375 -28.742188 37.15625 -31.859375 C 35.875 -34.984375 34.128906 -37.378906 31.921875 -39.046875 C 29.722656 -40.722656 27.269531 -41.5625 24.5625 -41.5625 Z M 24.5625 -41.5625 "/></g></g></g></svg>